%
M48
M72
T01C0.02756
T02C0.03200
T03C0.04000
%
T01
X61879Y34713
X71721Y34713
X71721Y48887
X61879Y48887
T02
X21800Y56800
X21800Y66800
X16800Y111800
X16800Y121800
X16800Y151800
X46800Y136800
X46800Y126800
X46800Y111800
X61800Y116800
X71800Y116800
X66800Y141800
X56800Y141800
X91800Y141800
X101800Y141800
X101800Y116800
X101800Y106800
X81800Y91800
X81800Y81800
T03
X61800Y81800
X61800Y91800
X61800Y101800
X61800Y71800
X31800Y71800
X31800Y81800
X31800Y91800
X31800Y101800
M30
