G75*
%MOIN*%
%OFA0B0*%
%FSLAX25Y25*%
%IPPOS*%
%LPD*%
%AMOC8*
5,1,8,0,0,1.08239X$1,22.5*
%
%ADD10C,0.00060*%
%ADD11C,0.00100*%
%ADD12C,0.00500*%
%ADD13C,0.02000*%
%ADD14C,0.00600*%
%ADD15C,0.01200*%
%ADD16C,0.00400*%
%ADD17R,0.02000X0.08000*%
%ADD18R,0.02500X0.02000*%
%ADD19R,0.08000X0.02000*%
%ADD20R,0.02000X0.02500*%
D10*
X0098132Y0116884D02*
X0098446Y0116445D01*
X0098445Y0116445D02*
X0098325Y0116356D01*
X0098207Y0116264D01*
X0098092Y0116168D01*
X0097979Y0116070D01*
X0097869Y0115969D01*
X0097761Y0115865D01*
X0097657Y0115758D01*
X0097555Y0115648D01*
X0097456Y0115536D01*
X0097360Y0115422D01*
X0097267Y0115304D01*
X0097177Y0115185D01*
X0097090Y0115063D01*
X0097006Y0114939D01*
X0096926Y0114813D01*
X0096849Y0114684D01*
X0096775Y0114554D01*
X0096705Y0114422D01*
X0096638Y0114288D01*
X0096575Y0114152D01*
X0096516Y0114015D01*
X0096459Y0113877D01*
X0096407Y0113736D01*
X0096358Y0113595D01*
X0096313Y0113452D01*
X0096272Y0113308D01*
X0096235Y0113164D01*
X0096201Y0113018D01*
X0096171Y0112871D01*
X0096145Y0112724D01*
X0096123Y0112576D01*
X0096104Y0112427D01*
X0096090Y0112278D01*
X0096079Y0112129D01*
X0096073Y0111980D01*
X0096070Y0111830D01*
X0095531Y0111830D01*
X0095530Y0111830D01*
X0095533Y0111985D01*
X0095539Y0112140D01*
X0095550Y0112295D01*
X0095564Y0112450D01*
X0095582Y0112604D01*
X0095604Y0112758D01*
X0095629Y0112911D01*
X0095659Y0113063D01*
X0095692Y0113215D01*
X0095729Y0113366D01*
X0095769Y0113516D01*
X0095814Y0113665D01*
X0095862Y0113812D01*
X0095913Y0113959D01*
X0095969Y0114104D01*
X0096027Y0114247D01*
X0096090Y0114390D01*
X0096156Y0114530D01*
X0096225Y0114669D01*
X0096298Y0114806D01*
X0096374Y0114942D01*
X0096453Y0115075D01*
X0096536Y0115206D01*
X0096622Y0115336D01*
X0096711Y0115463D01*
X0096803Y0115588D01*
X0096899Y0115710D01*
X0096997Y0115830D01*
X0097098Y0115948D01*
X0097202Y0116063D01*
X0097309Y0116176D01*
X0097419Y0116286D01*
X0097531Y0116393D01*
X0097646Y0116497D01*
X0097764Y0116598D01*
X0097884Y0116697D01*
X0098007Y0116792D01*
X0098131Y0116885D01*
X0098164Y0116839D01*
X0098040Y0116747D01*
X0097919Y0116653D01*
X0097800Y0116555D01*
X0097683Y0116455D01*
X0097569Y0116351D01*
X0097458Y0116245D01*
X0097349Y0116137D01*
X0097243Y0116025D01*
X0097140Y0115911D01*
X0097040Y0115794D01*
X0096942Y0115675D01*
X0096848Y0115554D01*
X0096756Y0115430D01*
X0096668Y0115304D01*
X0096583Y0115176D01*
X0096501Y0115046D01*
X0096422Y0114914D01*
X0096347Y0114779D01*
X0096275Y0114643D01*
X0096206Y0114506D01*
X0096141Y0114367D01*
X0096079Y0114226D01*
X0096021Y0114083D01*
X0095966Y0113939D01*
X0095915Y0113794D01*
X0095867Y0113648D01*
X0095823Y0113501D01*
X0095783Y0113352D01*
X0095746Y0113203D01*
X0095714Y0113052D01*
X0095684Y0112901D01*
X0095659Y0112750D01*
X0095637Y0112597D01*
X0095620Y0112444D01*
X0095605Y0112291D01*
X0095595Y0112138D01*
X0095589Y0111984D01*
X0095586Y0111830D01*
X0095642Y0111830D01*
X0095645Y0111987D01*
X0095652Y0112143D01*
X0095662Y0112299D01*
X0095677Y0112455D01*
X0095696Y0112611D01*
X0095718Y0112766D01*
X0095745Y0112920D01*
X0095775Y0113074D01*
X0095809Y0113226D01*
X0095848Y0113378D01*
X0095890Y0113529D01*
X0095936Y0113679D01*
X0095985Y0113827D01*
X0096039Y0113974D01*
X0096096Y0114120D01*
X0096157Y0114264D01*
X0096221Y0114407D01*
X0096289Y0114548D01*
X0096361Y0114687D01*
X0096436Y0114825D01*
X0096515Y0114960D01*
X0096597Y0115093D01*
X0096682Y0115225D01*
X0096771Y0115354D01*
X0096863Y0115480D01*
X0096958Y0115605D01*
X0097056Y0115727D01*
X0097158Y0115846D01*
X0097262Y0115963D01*
X0097369Y0116077D01*
X0097479Y0116188D01*
X0097592Y0116296D01*
X0097708Y0116402D01*
X0097826Y0116504D01*
X0097947Y0116604D01*
X0098071Y0116700D01*
X0098196Y0116793D01*
X0098229Y0116748D01*
X0098104Y0116656D01*
X0097982Y0116560D01*
X0097862Y0116461D01*
X0097745Y0116360D01*
X0097630Y0116255D01*
X0097519Y0116148D01*
X0097409Y0116038D01*
X0097303Y0115925D01*
X0097200Y0115809D01*
X0097099Y0115691D01*
X0097002Y0115570D01*
X0096908Y0115447D01*
X0096816Y0115321D01*
X0096729Y0115193D01*
X0096644Y0115063D01*
X0096563Y0114931D01*
X0096485Y0114797D01*
X0096410Y0114661D01*
X0096339Y0114523D01*
X0096272Y0114383D01*
X0096208Y0114242D01*
X0096148Y0114099D01*
X0096091Y0113955D01*
X0096038Y0113809D01*
X0095989Y0113662D01*
X0095943Y0113513D01*
X0095902Y0113364D01*
X0095864Y0113213D01*
X0095830Y0113062D01*
X0095800Y0112910D01*
X0095774Y0112757D01*
X0095751Y0112603D01*
X0095733Y0112449D01*
X0095718Y0112295D01*
X0095707Y0112140D01*
X0095701Y0111985D01*
X0095698Y0111830D01*
X0095754Y0111830D01*
X0095757Y0111984D01*
X0095763Y0112137D01*
X0095774Y0112291D01*
X0095788Y0112444D01*
X0095807Y0112596D01*
X0095829Y0112748D01*
X0095855Y0112900D01*
X0095885Y0113051D01*
X0095918Y0113201D01*
X0095956Y0113350D01*
X0095997Y0113498D01*
X0096042Y0113645D01*
X0096091Y0113790D01*
X0096143Y0113935D01*
X0096200Y0114078D01*
X0096259Y0114220D01*
X0096323Y0114360D01*
X0096389Y0114498D01*
X0096460Y0114635D01*
X0096534Y0114770D01*
X0096611Y0114902D01*
X0096691Y0115033D01*
X0096775Y0115162D01*
X0096862Y0115289D01*
X0096952Y0115413D01*
X0097046Y0115535D01*
X0097142Y0115655D01*
X0097242Y0115772D01*
X0097344Y0115887D01*
X0097450Y0115999D01*
X0097558Y0116108D01*
X0097669Y0116214D01*
X0097782Y0116318D01*
X0097898Y0116419D01*
X0098017Y0116516D01*
X0098138Y0116611D01*
X0098261Y0116702D01*
X0098294Y0116657D01*
X0098172Y0116566D01*
X0098052Y0116472D01*
X0097934Y0116376D01*
X0097819Y0116276D01*
X0097707Y0116173D01*
X0097597Y0116068D01*
X0097490Y0115960D01*
X0097385Y0115849D01*
X0097284Y0115735D01*
X0097185Y0115619D01*
X0097090Y0115501D01*
X0096997Y0115380D01*
X0096908Y0115256D01*
X0096822Y0115131D01*
X0096739Y0115003D01*
X0096659Y0114874D01*
X0096582Y0114742D01*
X0096509Y0114608D01*
X0096440Y0114473D01*
X0096373Y0114336D01*
X0096311Y0114197D01*
X0096251Y0114057D01*
X0096196Y0113915D01*
X0096144Y0113772D01*
X0096096Y0113628D01*
X0096051Y0113482D01*
X0096010Y0113335D01*
X0095973Y0113188D01*
X0095940Y0113039D01*
X0095910Y0112890D01*
X0095884Y0112740D01*
X0095862Y0112589D01*
X0095844Y0112438D01*
X0095830Y0112286D01*
X0095819Y0112134D01*
X0095813Y0111982D01*
X0095810Y0111830D01*
X0095866Y0111830D01*
X0095869Y0111981D01*
X0095875Y0112132D01*
X0095886Y0112282D01*
X0095900Y0112432D01*
X0095918Y0112582D01*
X0095940Y0112731D01*
X0095965Y0112880D01*
X0095994Y0113028D01*
X0096027Y0113175D01*
X0096064Y0113321D01*
X0096105Y0113466D01*
X0096149Y0113611D01*
X0096197Y0113754D01*
X0096248Y0113895D01*
X0096303Y0114036D01*
X0096362Y0114175D01*
X0096424Y0114312D01*
X0096490Y0114448D01*
X0096559Y0114582D01*
X0096631Y0114715D01*
X0096707Y0114845D01*
X0096786Y0114973D01*
X0096868Y0115100D01*
X0096954Y0115224D01*
X0097042Y0115346D01*
X0097134Y0115466D01*
X0097228Y0115583D01*
X0097326Y0115698D01*
X0097427Y0115811D01*
X0097530Y0115921D01*
X0097636Y0116028D01*
X0097745Y0116132D01*
X0097856Y0116234D01*
X0097970Y0116333D01*
X0098087Y0116429D01*
X0098205Y0116521D01*
X0098327Y0116611D01*
X0098359Y0116566D01*
X0098239Y0116477D01*
X0098121Y0116385D01*
X0098006Y0116290D01*
X0097893Y0116192D01*
X0097783Y0116091D01*
X0097675Y0115988D01*
X0097570Y0115882D01*
X0097468Y0115773D01*
X0097368Y0115661D01*
X0097272Y0115547D01*
X0097178Y0115431D01*
X0097087Y0115313D01*
X0096999Y0115192D01*
X0096915Y0115069D01*
X0096833Y0114943D01*
X0096755Y0114816D01*
X0096680Y0114687D01*
X0096608Y0114556D01*
X0096540Y0114423D01*
X0096475Y0114289D01*
X0096413Y0114152D01*
X0096355Y0114015D01*
X0096301Y0113876D01*
X0096250Y0113735D01*
X0096202Y0113594D01*
X0096159Y0113451D01*
X0096118Y0113307D01*
X0096082Y0113162D01*
X0096049Y0113016D01*
X0096020Y0112870D01*
X0095995Y0112723D01*
X0095973Y0112575D01*
X0095955Y0112426D01*
X0095941Y0112278D01*
X0095931Y0112129D01*
X0095925Y0111979D01*
X0095922Y0111830D01*
X0095978Y0111830D01*
X0095981Y0111982D01*
X0095988Y0112134D01*
X0095998Y0112286D01*
X0096013Y0112437D01*
X0096032Y0112588D01*
X0096054Y0112738D01*
X0096081Y0112888D01*
X0096111Y0113037D01*
X0096145Y0113185D01*
X0096183Y0113332D01*
X0096225Y0113479D01*
X0096271Y0113624D01*
X0096320Y0113767D01*
X0096374Y0113910D01*
X0096431Y0114051D01*
X0096491Y0114190D01*
X0096555Y0114328D01*
X0096623Y0114464D01*
X0096695Y0114598D01*
X0096769Y0114731D01*
X0096848Y0114861D01*
X0096929Y0114989D01*
X0097014Y0115116D01*
X0097103Y0115239D01*
X0097194Y0115361D01*
X0097288Y0115480D01*
X0097386Y0115596D01*
X0097487Y0115710D01*
X0097590Y0115822D01*
X0097697Y0115930D01*
X0097806Y0116036D01*
X0097918Y0116139D01*
X0098033Y0116239D01*
X0098150Y0116336D01*
X0098270Y0116429D01*
X0098392Y0116520D01*
X0098424Y0116475D01*
X0098303Y0116385D01*
X0098185Y0116292D01*
X0098069Y0116196D01*
X0097955Y0116097D01*
X0097844Y0115995D01*
X0097736Y0115890D01*
X0097631Y0115783D01*
X0097528Y0115673D01*
X0097428Y0115560D01*
X0097332Y0115444D01*
X0097238Y0115327D01*
X0097148Y0115206D01*
X0097060Y0115084D01*
X0096976Y0114959D01*
X0096895Y0114832D01*
X0096818Y0114703D01*
X0096744Y0114571D01*
X0096673Y0114438D01*
X0096606Y0114304D01*
X0096542Y0114167D01*
X0096482Y0114029D01*
X0096426Y0113890D01*
X0096373Y0113748D01*
X0096324Y0113606D01*
X0096279Y0113463D01*
X0096237Y0113318D01*
X0096200Y0113172D01*
X0096166Y0113025D01*
X0096136Y0112878D01*
X0096109Y0112730D01*
X0096087Y0112581D01*
X0096069Y0112431D01*
X0096054Y0112281D01*
X0096044Y0112131D01*
X0096037Y0111981D01*
X0096034Y0111830D01*
X0105672Y0106870D02*
X0105341Y0107296D01*
X0105341Y0107295D02*
X0105456Y0107388D01*
X0105568Y0107483D01*
X0105678Y0107581D01*
X0105785Y0107682D01*
X0105889Y0107786D01*
X0105991Y0107893D01*
X0106090Y0108002D01*
X0106186Y0108113D01*
X0106280Y0108227D01*
X0106370Y0108343D01*
X0106457Y0108462D01*
X0106541Y0108583D01*
X0106622Y0108705D01*
X0106700Y0108830D01*
X0106775Y0108957D01*
X0106846Y0109086D01*
X0106915Y0109216D01*
X0106979Y0109349D01*
X0107040Y0109483D01*
X0107098Y0109618D01*
X0107153Y0109755D01*
X0107203Y0109893D01*
X0107251Y0110033D01*
X0107294Y0110173D01*
X0107334Y0110315D01*
X0107371Y0110457D01*
X0107403Y0110601D01*
X0107432Y0110745D01*
X0107457Y0110890D01*
X0107479Y0111036D01*
X0107497Y0111182D01*
X0107511Y0111329D01*
X0107521Y0111476D01*
X0107527Y0111623D01*
X0107530Y0111770D01*
X0108069Y0111770D01*
X0108070Y0111770D01*
X0108067Y0111613D01*
X0108061Y0111457D01*
X0108050Y0111300D01*
X0108036Y0111144D01*
X0108017Y0110988D01*
X0107995Y0110833D01*
X0107969Y0110679D01*
X0107939Y0110525D01*
X0107905Y0110372D01*
X0107867Y0110219D01*
X0107826Y0110068D01*
X0107781Y0109918D01*
X0107732Y0109769D01*
X0107679Y0109621D01*
X0107623Y0109475D01*
X0107563Y0109330D01*
X0107499Y0109187D01*
X0107432Y0109045D01*
X0107362Y0108905D01*
X0107288Y0108767D01*
X0107210Y0108631D01*
X0107129Y0108496D01*
X0107045Y0108364D01*
X0106957Y0108234D01*
X0106867Y0108106D01*
X0106773Y0107981D01*
X0106676Y0107858D01*
X0106575Y0107737D01*
X0106472Y0107619D01*
X0106366Y0107503D01*
X0106258Y0107391D01*
X0106146Y0107280D01*
X0106032Y0107173D01*
X0105915Y0107069D01*
X0105795Y0106967D01*
X0105673Y0106869D01*
X0105638Y0106913D01*
X0105759Y0107011D01*
X0105878Y0107111D01*
X0105994Y0107215D01*
X0106107Y0107321D01*
X0106218Y0107430D01*
X0106326Y0107542D01*
X0106431Y0107656D01*
X0106533Y0107773D01*
X0106632Y0107893D01*
X0106728Y0108015D01*
X0106821Y0108139D01*
X0106911Y0108266D01*
X0106998Y0108395D01*
X0107082Y0108526D01*
X0107162Y0108659D01*
X0107239Y0108794D01*
X0107312Y0108931D01*
X0107382Y0109070D01*
X0107449Y0109210D01*
X0107512Y0109352D01*
X0107571Y0109496D01*
X0107627Y0109641D01*
X0107679Y0109787D01*
X0107727Y0109935D01*
X0107772Y0110083D01*
X0107813Y0110233D01*
X0107851Y0110384D01*
X0107884Y0110536D01*
X0107914Y0110688D01*
X0107940Y0110842D01*
X0107962Y0110995D01*
X0107980Y0111150D01*
X0107994Y0111304D01*
X0108005Y0111459D01*
X0108011Y0111615D01*
X0108014Y0111770D01*
X0107958Y0111770D01*
X0107955Y0111616D01*
X0107949Y0111462D01*
X0107938Y0111309D01*
X0107924Y0111155D01*
X0107906Y0111002D01*
X0107884Y0110850D01*
X0107859Y0110698D01*
X0107829Y0110547D01*
X0107796Y0110397D01*
X0107759Y0110247D01*
X0107718Y0110099D01*
X0107674Y0109951D01*
X0107626Y0109805D01*
X0107574Y0109660D01*
X0107519Y0109516D01*
X0107460Y0109374D01*
X0107398Y0109233D01*
X0107332Y0109094D01*
X0107262Y0108957D01*
X0107190Y0108821D01*
X0107113Y0108687D01*
X0107034Y0108556D01*
X0106951Y0108426D01*
X0106865Y0108298D01*
X0106776Y0108173D01*
X0106684Y0108049D01*
X0106589Y0107928D01*
X0106490Y0107810D01*
X0106389Y0107694D01*
X0106285Y0107580D01*
X0106178Y0107470D01*
X0106069Y0107361D01*
X0105956Y0107256D01*
X0105841Y0107154D01*
X0105724Y0107054D01*
X0105604Y0106958D01*
X0105570Y0107002D01*
X0105688Y0107097D01*
X0105805Y0107196D01*
X0105919Y0107298D01*
X0106030Y0107402D01*
X0106139Y0107509D01*
X0106244Y0107619D01*
X0106348Y0107731D01*
X0106448Y0107846D01*
X0106545Y0107964D01*
X0106640Y0108083D01*
X0106731Y0108206D01*
X0106819Y0108330D01*
X0106904Y0108457D01*
X0106986Y0108585D01*
X0107065Y0108716D01*
X0107141Y0108848D01*
X0107213Y0108983D01*
X0107281Y0109119D01*
X0107347Y0109257D01*
X0107409Y0109396D01*
X0107467Y0109537D01*
X0107522Y0109680D01*
X0107573Y0109823D01*
X0107621Y0109968D01*
X0107665Y0110114D01*
X0107705Y0110261D01*
X0107741Y0110409D01*
X0107774Y0110558D01*
X0107804Y0110708D01*
X0107829Y0110858D01*
X0107851Y0111009D01*
X0107868Y0111161D01*
X0107883Y0111313D01*
X0107893Y0111465D01*
X0107899Y0111617D01*
X0107902Y0111770D01*
X0107846Y0111770D01*
X0107843Y0111619D01*
X0107837Y0111468D01*
X0107827Y0111317D01*
X0107813Y0111167D01*
X0107795Y0111017D01*
X0107774Y0110867D01*
X0107748Y0110718D01*
X0107719Y0110570D01*
X0107687Y0110422D01*
X0107651Y0110275D01*
X0107611Y0110130D01*
X0107567Y0109985D01*
X0107520Y0109841D01*
X0107469Y0109699D01*
X0107415Y0109558D01*
X0107357Y0109418D01*
X0107296Y0109280D01*
X0107231Y0109144D01*
X0107163Y0109009D01*
X0107092Y0108875D01*
X0107017Y0108744D01*
X0106939Y0108615D01*
X0106858Y0108487D01*
X0106773Y0108362D01*
X0106686Y0108239D01*
X0106595Y0108118D01*
X0106502Y0107999D01*
X0106405Y0107883D01*
X0106306Y0107769D01*
X0106204Y0107657D01*
X0106099Y0107549D01*
X0105991Y0107443D01*
X0105881Y0107339D01*
X0105768Y0107239D01*
X0105653Y0107141D01*
X0105535Y0107046D01*
X0105501Y0107090D01*
X0105621Y0107187D01*
X0105738Y0107287D01*
X0105853Y0107389D01*
X0105965Y0107495D01*
X0106074Y0107603D01*
X0106181Y0107715D01*
X0106284Y0107829D01*
X0106385Y0107945D01*
X0106482Y0108064D01*
X0106577Y0108186D01*
X0106668Y0108310D01*
X0106756Y0108436D01*
X0106841Y0108565D01*
X0106923Y0108695D01*
X0107001Y0108828D01*
X0107075Y0108963D01*
X0107147Y0109099D01*
X0107214Y0109238D01*
X0107278Y0109378D01*
X0107339Y0109519D01*
X0107396Y0109662D01*
X0107449Y0109807D01*
X0107498Y0109953D01*
X0107544Y0110100D01*
X0107585Y0110248D01*
X0107623Y0110397D01*
X0107658Y0110547D01*
X0107688Y0110698D01*
X0107714Y0110850D01*
X0107737Y0111002D01*
X0107755Y0111155D01*
X0107770Y0111309D01*
X0107780Y0111462D01*
X0107787Y0111616D01*
X0107790Y0111770D01*
X0107734Y0111770D01*
X0107731Y0111617D01*
X0107725Y0111465D01*
X0107714Y0111313D01*
X0107700Y0111161D01*
X0107681Y0111010D01*
X0107659Y0110859D01*
X0107633Y0110708D01*
X0107603Y0110559D01*
X0107569Y0110410D01*
X0107531Y0110262D01*
X0107490Y0110116D01*
X0107445Y0109970D01*
X0107396Y0109825D01*
X0107343Y0109682D01*
X0107287Y0109540D01*
X0107227Y0109400D01*
X0107164Y0109261D01*
X0107097Y0109124D01*
X0107026Y0108989D01*
X0106952Y0108856D01*
X0106875Y0108724D01*
X0106794Y0108595D01*
X0106710Y0108468D01*
X0106623Y0108343D01*
X0106532Y0108220D01*
X0106439Y0108099D01*
X0106342Y0107981D01*
X0106242Y0107866D01*
X0106140Y0107753D01*
X0106034Y0107643D01*
X0105926Y0107535D01*
X0105815Y0107431D01*
X0105701Y0107329D01*
X0105585Y0107230D01*
X0105467Y0107134D01*
X0105432Y0107179D01*
X0105550Y0107273D01*
X0105665Y0107371D01*
X0105777Y0107472D01*
X0105887Y0107576D01*
X0105995Y0107682D01*
X0106099Y0107791D01*
X0106201Y0107903D01*
X0106299Y0108017D01*
X0106395Y0108134D01*
X0106488Y0108254D01*
X0106577Y0108375D01*
X0106664Y0108499D01*
X0106747Y0108625D01*
X0106827Y0108753D01*
X0106904Y0108884D01*
X0106977Y0109016D01*
X0107047Y0109150D01*
X0107113Y0109285D01*
X0107176Y0109423D01*
X0107235Y0109562D01*
X0107291Y0109702D01*
X0107343Y0109844D01*
X0107391Y0109987D01*
X0107436Y0110131D01*
X0107477Y0110277D01*
X0107514Y0110423D01*
X0107548Y0110570D01*
X0107578Y0110719D01*
X0107604Y0110867D01*
X0107626Y0111017D01*
X0107644Y0111167D01*
X0107658Y0111317D01*
X0107669Y0111468D01*
X0107675Y0111619D01*
X0107678Y0111770D01*
X0107622Y0111770D01*
X0107619Y0111620D01*
X0107613Y0111471D01*
X0107602Y0111322D01*
X0107588Y0111173D01*
X0107570Y0111024D01*
X0107548Y0110876D01*
X0107523Y0110729D01*
X0107493Y0110582D01*
X0107460Y0110436D01*
X0107423Y0110291D01*
X0107382Y0110147D01*
X0107338Y0110004D01*
X0107290Y0109863D01*
X0107239Y0109722D01*
X0107183Y0109583D01*
X0107125Y0109445D01*
X0107062Y0109309D01*
X0106997Y0109175D01*
X0106927Y0109042D01*
X0106855Y0108911D01*
X0106779Y0108783D01*
X0106700Y0108656D01*
X0106617Y0108531D01*
X0106532Y0108408D01*
X0106443Y0108288D01*
X0106351Y0108169D01*
X0106256Y0108054D01*
X0106159Y0107940D01*
X0106058Y0107830D01*
X0105955Y0107722D01*
X0105849Y0107616D01*
X0105740Y0107513D01*
X0105628Y0107414D01*
X0105514Y0107317D01*
X0105398Y0107223D01*
X0105363Y0107267D01*
X0105479Y0107360D01*
X0105592Y0107456D01*
X0105702Y0107555D01*
X0105810Y0107656D01*
X0105915Y0107761D01*
X0106017Y0107868D01*
X0106117Y0107978D01*
X0106214Y0108090D01*
X0106308Y0108204D01*
X0106399Y0108321D01*
X0106486Y0108441D01*
X0106571Y0108562D01*
X0106653Y0108686D01*
X0106731Y0108812D01*
X0106806Y0108939D01*
X0106878Y0109069D01*
X0106947Y0109200D01*
X0107012Y0109333D01*
X0107073Y0109468D01*
X0107132Y0109604D01*
X0107186Y0109742D01*
X0107237Y0109881D01*
X0107285Y0110021D01*
X0107329Y0110163D01*
X0107369Y0110306D01*
X0107406Y0110449D01*
X0107438Y0110594D01*
X0107468Y0110739D01*
X0107493Y0110885D01*
X0107515Y0111031D01*
X0107532Y0111179D01*
X0107546Y0111326D01*
X0107557Y0111474D01*
X0107563Y0111622D01*
X0107566Y0111770D01*
X0095531Y0111771D02*
X0096071Y0111771D01*
X0096070Y0111770D02*
X0096073Y0111620D01*
X0096080Y0111470D01*
X0096090Y0111320D01*
X0096105Y0111171D01*
X0096123Y0111022D01*
X0096145Y0110874D01*
X0096172Y0110726D01*
X0096202Y0110579D01*
X0096236Y0110432D01*
X0096273Y0110287D01*
X0096315Y0110143D01*
X0096360Y0110000D01*
X0096409Y0109858D01*
X0096462Y0109717D01*
X0096518Y0109578D01*
X0096578Y0109441D01*
X0096642Y0109305D01*
X0096709Y0109171D01*
X0096780Y0109038D01*
X0096854Y0108908D01*
X0096931Y0108779D01*
X0097012Y0108653D01*
X0097096Y0108528D01*
X0097183Y0108406D01*
X0097274Y0108286D01*
X0097367Y0108169D01*
X0097464Y0108054D01*
X0097564Y0107942D01*
X0097666Y0107832D01*
X0097771Y0107725D01*
X0097879Y0107621D01*
X0097990Y0107520D01*
X0098104Y0107422D01*
X0098220Y0107326D01*
X0098338Y0107234D01*
X0098015Y0106803D01*
X0098014Y0106802D01*
X0097891Y0106897D01*
X0097771Y0106996D01*
X0097653Y0107097D01*
X0097538Y0107202D01*
X0097425Y0107309D01*
X0097315Y0107419D01*
X0097208Y0107531D01*
X0097103Y0107646D01*
X0097002Y0107764D01*
X0096903Y0107884D01*
X0096807Y0108007D01*
X0096715Y0108132D01*
X0096625Y0108259D01*
X0096539Y0108389D01*
X0096456Y0108520D01*
X0096376Y0108654D01*
X0096300Y0108789D01*
X0096227Y0108927D01*
X0096158Y0109066D01*
X0096092Y0109207D01*
X0096029Y0109349D01*
X0095970Y0109493D01*
X0095915Y0109638D01*
X0095863Y0109785D01*
X0095815Y0109933D01*
X0095770Y0110082D01*
X0095729Y0110232D01*
X0095692Y0110383D01*
X0095659Y0110535D01*
X0095630Y0110687D01*
X0095604Y0110841D01*
X0095582Y0110995D01*
X0095564Y0111149D01*
X0095550Y0111304D01*
X0095539Y0111459D01*
X0095533Y0111615D01*
X0095530Y0111770D01*
X0095586Y0111770D01*
X0095589Y0111616D01*
X0095595Y0111462D01*
X0095605Y0111308D01*
X0095620Y0111155D01*
X0095637Y0111002D01*
X0095659Y0110849D01*
X0095685Y0110697D01*
X0095714Y0110546D01*
X0095747Y0110395D01*
X0095784Y0110246D01*
X0095824Y0110097D01*
X0095868Y0109949D01*
X0095916Y0109803D01*
X0095967Y0109657D01*
X0096022Y0109513D01*
X0096081Y0109371D01*
X0096143Y0109230D01*
X0096208Y0109090D01*
X0096277Y0108952D01*
X0096349Y0108816D01*
X0096425Y0108682D01*
X0096504Y0108550D01*
X0096586Y0108419D01*
X0096672Y0108291D01*
X0096760Y0108165D01*
X0096852Y0108041D01*
X0096947Y0107920D01*
X0097044Y0107800D01*
X0097145Y0107684D01*
X0097248Y0107569D01*
X0097355Y0107458D01*
X0097464Y0107349D01*
X0097576Y0107243D01*
X0097690Y0107139D01*
X0097807Y0107039D01*
X0097926Y0106941D01*
X0098048Y0106847D01*
X0098081Y0106892D01*
X0097961Y0106985D01*
X0097842Y0107082D01*
X0097727Y0107182D01*
X0097613Y0107284D01*
X0097503Y0107389D01*
X0097395Y0107497D01*
X0097289Y0107608D01*
X0097187Y0107721D01*
X0097087Y0107837D01*
X0096990Y0107955D01*
X0096896Y0108075D01*
X0096806Y0108198D01*
X0096718Y0108323D01*
X0096633Y0108450D01*
X0096552Y0108579D01*
X0096473Y0108710D01*
X0096398Y0108843D01*
X0096327Y0108978D01*
X0096258Y0109115D01*
X0096194Y0109253D01*
X0096132Y0109393D01*
X0096074Y0109534D01*
X0096020Y0109677D01*
X0095969Y0109821D01*
X0095922Y0109966D01*
X0095878Y0110112D01*
X0095838Y0110259D01*
X0095801Y0110408D01*
X0095769Y0110557D01*
X0095740Y0110707D01*
X0095715Y0110857D01*
X0095693Y0111009D01*
X0095675Y0111160D01*
X0095661Y0111312D01*
X0095651Y0111465D01*
X0095645Y0111617D01*
X0095642Y0111770D01*
X0095698Y0111770D01*
X0095701Y0111615D01*
X0095708Y0111459D01*
X0095718Y0111304D01*
X0095733Y0111149D01*
X0095751Y0110995D01*
X0095774Y0110841D01*
X0095800Y0110688D01*
X0095831Y0110535D01*
X0095865Y0110383D01*
X0095903Y0110233D01*
X0095945Y0110083D01*
X0095990Y0109934D01*
X0096040Y0109787D01*
X0096093Y0109641D01*
X0096150Y0109496D01*
X0096210Y0109353D01*
X0096274Y0109211D01*
X0096342Y0109071D01*
X0096414Y0108933D01*
X0096488Y0108797D01*
X0096567Y0108662D01*
X0096648Y0108530D01*
X0096733Y0108400D01*
X0096822Y0108272D01*
X0096913Y0108146D01*
X0097008Y0108023D01*
X0097106Y0107902D01*
X0097206Y0107783D01*
X0097310Y0107668D01*
X0097417Y0107555D01*
X0097527Y0107444D01*
X0097639Y0107337D01*
X0097754Y0107232D01*
X0097872Y0107131D01*
X0097992Y0107032D01*
X0098115Y0106936D01*
X0098148Y0106981D01*
X0098027Y0107076D01*
X0097908Y0107174D01*
X0097791Y0107274D01*
X0097677Y0107378D01*
X0097566Y0107484D01*
X0097457Y0107594D01*
X0097351Y0107706D01*
X0097249Y0107820D01*
X0097149Y0107938D01*
X0097052Y0108057D01*
X0096958Y0108180D01*
X0096867Y0108304D01*
X0096780Y0108431D01*
X0096695Y0108560D01*
X0096615Y0108691D01*
X0096537Y0108824D01*
X0096463Y0108959D01*
X0096392Y0109096D01*
X0096325Y0109235D01*
X0096262Y0109375D01*
X0096202Y0109517D01*
X0096145Y0109660D01*
X0096093Y0109805D01*
X0096044Y0109951D01*
X0095998Y0110099D01*
X0095957Y0110247D01*
X0095919Y0110396D01*
X0095885Y0110547D01*
X0095855Y0110698D01*
X0095829Y0110850D01*
X0095807Y0111002D01*
X0095789Y0111155D01*
X0095774Y0111308D01*
X0095763Y0111462D01*
X0095757Y0111616D01*
X0095754Y0111770D01*
X0095810Y0111770D01*
X0095813Y0111617D01*
X0095819Y0111465D01*
X0095830Y0111313D01*
X0095844Y0111161D01*
X0095862Y0111009D01*
X0095885Y0110858D01*
X0095910Y0110708D01*
X0095940Y0110558D01*
X0095974Y0110409D01*
X0096011Y0110261D01*
X0096052Y0110114D01*
X0096097Y0109968D01*
X0096145Y0109824D01*
X0096198Y0109680D01*
X0096253Y0109538D01*
X0096313Y0109398D01*
X0096376Y0109259D01*
X0096442Y0109121D01*
X0096512Y0108986D01*
X0096586Y0108852D01*
X0096663Y0108720D01*
X0096743Y0108590D01*
X0096826Y0108462D01*
X0096913Y0108337D01*
X0097003Y0108213D01*
X0097096Y0108092D01*
X0097192Y0107973D01*
X0097291Y0107857D01*
X0097392Y0107744D01*
X0097497Y0107633D01*
X0097605Y0107524D01*
X0097715Y0107419D01*
X0097828Y0107316D01*
X0097944Y0107217D01*
X0098062Y0107120D01*
X0098182Y0107026D01*
X0098216Y0107071D01*
X0098096Y0107164D01*
X0097979Y0107260D01*
X0097865Y0107358D01*
X0097753Y0107460D01*
X0097644Y0107565D01*
X0097537Y0107672D01*
X0097434Y0107782D01*
X0097333Y0107894D01*
X0097235Y0108009D01*
X0097139Y0108127D01*
X0097047Y0108247D01*
X0096958Y0108369D01*
X0096873Y0108493D01*
X0096790Y0108620D01*
X0096711Y0108749D01*
X0096635Y0108879D01*
X0096562Y0109012D01*
X0096492Y0109146D01*
X0096427Y0109282D01*
X0096364Y0109420D01*
X0096305Y0109559D01*
X0096250Y0109700D01*
X0096198Y0109842D01*
X0096150Y0109985D01*
X0096106Y0110130D01*
X0096065Y0110275D01*
X0096028Y0110422D01*
X0095995Y0110570D01*
X0095966Y0110718D01*
X0095940Y0110867D01*
X0095918Y0111016D01*
X0095900Y0111166D01*
X0095886Y0111317D01*
X0095875Y0111468D01*
X0095869Y0111619D01*
X0095866Y0111770D01*
X0095922Y0111770D01*
X0095925Y0111620D01*
X0095931Y0111471D01*
X0095942Y0111321D01*
X0095956Y0111172D01*
X0095974Y0111024D01*
X0095995Y0110875D01*
X0096021Y0110728D01*
X0096050Y0110581D01*
X0096083Y0110435D01*
X0096119Y0110290D01*
X0096160Y0110146D01*
X0096204Y0110002D01*
X0096251Y0109860D01*
X0096302Y0109720D01*
X0096357Y0109580D01*
X0096416Y0109442D01*
X0096477Y0109306D01*
X0096543Y0109171D01*
X0096611Y0109038D01*
X0096683Y0108907D01*
X0096759Y0108778D01*
X0096837Y0108650D01*
X0096919Y0108525D01*
X0097004Y0108401D01*
X0097092Y0108280D01*
X0097183Y0108162D01*
X0097278Y0108045D01*
X0097375Y0107931D01*
X0097475Y0107820D01*
X0097577Y0107711D01*
X0097683Y0107605D01*
X0097791Y0107501D01*
X0097902Y0107400D01*
X0098015Y0107303D01*
X0098131Y0107208D01*
X0098249Y0107116D01*
X0098283Y0107160D01*
X0098166Y0107252D01*
X0098051Y0107346D01*
X0097939Y0107443D01*
X0097829Y0107542D01*
X0097722Y0107645D01*
X0097618Y0107750D01*
X0097516Y0107858D01*
X0097417Y0107968D01*
X0097321Y0108081D01*
X0097227Y0108196D01*
X0097137Y0108314D01*
X0097050Y0108434D01*
X0096966Y0108556D01*
X0096884Y0108680D01*
X0096807Y0108806D01*
X0096732Y0108935D01*
X0096661Y0109065D01*
X0096593Y0109196D01*
X0096528Y0109330D01*
X0096467Y0109465D01*
X0096409Y0109601D01*
X0096355Y0109739D01*
X0096304Y0109879D01*
X0096257Y0110019D01*
X0096213Y0110161D01*
X0096173Y0110304D01*
X0096137Y0110448D01*
X0096105Y0110592D01*
X0096076Y0110738D01*
X0096051Y0110884D01*
X0096029Y0111031D01*
X0096011Y0111178D01*
X0095997Y0111326D01*
X0095987Y0111474D01*
X0095981Y0111622D01*
X0095978Y0111770D01*
X0096034Y0111770D01*
X0096037Y0111619D01*
X0096044Y0111468D01*
X0096054Y0111317D01*
X0096069Y0111167D01*
X0096087Y0111017D01*
X0096110Y0110868D01*
X0096136Y0110719D01*
X0096166Y0110571D01*
X0096201Y0110424D01*
X0096239Y0110278D01*
X0096280Y0110133D01*
X0096326Y0109989D01*
X0096375Y0109846D01*
X0096428Y0109704D01*
X0096485Y0109564D01*
X0096545Y0109426D01*
X0096609Y0109289D01*
X0096677Y0109154D01*
X0096748Y0109021D01*
X0096823Y0108889D01*
X0096900Y0108760D01*
X0096982Y0108633D01*
X0097066Y0108508D01*
X0097154Y0108385D01*
X0097245Y0108264D01*
X0097340Y0108146D01*
X0097437Y0108031D01*
X0097537Y0107918D01*
X0097640Y0107807D01*
X0097746Y0107700D01*
X0097855Y0107595D01*
X0097966Y0107493D01*
X0098081Y0107394D01*
X0098197Y0107298D01*
X0098316Y0107205D01*
X0108069Y0111830D02*
X0107529Y0111830D01*
X0107530Y0111830D02*
X0107527Y0111977D01*
X0107521Y0112124D01*
X0107511Y0112271D01*
X0107497Y0112418D01*
X0107479Y0112564D01*
X0107457Y0112710D01*
X0107432Y0112855D01*
X0107403Y0112999D01*
X0107371Y0113143D01*
X0107334Y0113285D01*
X0107294Y0113427D01*
X0107251Y0113567D01*
X0107203Y0113707D01*
X0107153Y0113845D01*
X0107098Y0113982D01*
X0107040Y0114117D01*
X0106979Y0114251D01*
X0106915Y0114384D01*
X0106846Y0114514D01*
X0106775Y0114643D01*
X0106700Y0114770D01*
X0106622Y0114895D01*
X0106541Y0115017D01*
X0106457Y0115138D01*
X0106370Y0115257D01*
X0106280Y0115373D01*
X0106186Y0115487D01*
X0106090Y0115598D01*
X0105991Y0115707D01*
X0105889Y0115814D01*
X0105785Y0115918D01*
X0105678Y0116019D01*
X0105568Y0116117D01*
X0105456Y0116212D01*
X0105341Y0116305D01*
X0105672Y0116730D01*
X0105673Y0116731D01*
X0105795Y0116633D01*
X0105915Y0116531D01*
X0106032Y0116427D01*
X0106146Y0116320D01*
X0106258Y0116209D01*
X0106366Y0116097D01*
X0106472Y0115981D01*
X0106575Y0115863D01*
X0106676Y0115742D01*
X0106773Y0115619D01*
X0106867Y0115494D01*
X0106957Y0115366D01*
X0107045Y0115236D01*
X0107129Y0115104D01*
X0107210Y0114969D01*
X0107288Y0114833D01*
X0107362Y0114695D01*
X0107432Y0114555D01*
X0107499Y0114413D01*
X0107563Y0114270D01*
X0107623Y0114125D01*
X0107679Y0113979D01*
X0107732Y0113831D01*
X0107781Y0113682D01*
X0107826Y0113532D01*
X0107867Y0113381D01*
X0107905Y0113228D01*
X0107939Y0113075D01*
X0107969Y0112921D01*
X0107995Y0112767D01*
X0108017Y0112612D01*
X0108036Y0112456D01*
X0108050Y0112300D01*
X0108061Y0112143D01*
X0108067Y0111987D01*
X0108070Y0111830D01*
X0108014Y0111830D01*
X0108011Y0111985D01*
X0108005Y0112141D01*
X0107994Y0112296D01*
X0107980Y0112450D01*
X0107962Y0112605D01*
X0107940Y0112758D01*
X0107914Y0112912D01*
X0107884Y0113064D01*
X0107851Y0113216D01*
X0107813Y0113367D01*
X0107772Y0113517D01*
X0107727Y0113665D01*
X0107679Y0113813D01*
X0107627Y0113959D01*
X0107571Y0114104D01*
X0107512Y0114248D01*
X0107449Y0114390D01*
X0107382Y0114530D01*
X0107312Y0114669D01*
X0107239Y0114806D01*
X0107162Y0114941D01*
X0107082Y0115074D01*
X0106998Y0115205D01*
X0106911Y0115334D01*
X0106821Y0115461D01*
X0106728Y0115585D01*
X0106632Y0115707D01*
X0106533Y0115827D01*
X0106431Y0115944D01*
X0106326Y0116058D01*
X0106218Y0116170D01*
X0106107Y0116279D01*
X0105994Y0116385D01*
X0105878Y0116489D01*
X0105759Y0116589D01*
X0105638Y0116687D01*
X0105604Y0116642D01*
X0105724Y0116546D01*
X0105841Y0116446D01*
X0105956Y0116344D01*
X0106069Y0116239D01*
X0106178Y0116130D01*
X0106285Y0116020D01*
X0106389Y0115906D01*
X0106490Y0115790D01*
X0106589Y0115672D01*
X0106684Y0115551D01*
X0106776Y0115427D01*
X0106865Y0115302D01*
X0106951Y0115174D01*
X0107034Y0115044D01*
X0107113Y0114913D01*
X0107190Y0114779D01*
X0107262Y0114643D01*
X0107332Y0114506D01*
X0107398Y0114367D01*
X0107460Y0114226D01*
X0107519Y0114084D01*
X0107574Y0113940D01*
X0107626Y0113795D01*
X0107674Y0113649D01*
X0107718Y0113501D01*
X0107759Y0113353D01*
X0107796Y0113203D01*
X0107829Y0113053D01*
X0107859Y0112902D01*
X0107884Y0112750D01*
X0107906Y0112598D01*
X0107924Y0112445D01*
X0107938Y0112291D01*
X0107949Y0112138D01*
X0107955Y0111984D01*
X0107958Y0111830D01*
X0107902Y0111830D01*
X0107899Y0111983D01*
X0107893Y0112135D01*
X0107883Y0112287D01*
X0107868Y0112439D01*
X0107851Y0112591D01*
X0107829Y0112742D01*
X0107804Y0112892D01*
X0107774Y0113042D01*
X0107741Y0113191D01*
X0107705Y0113339D01*
X0107665Y0113486D01*
X0107621Y0113632D01*
X0107573Y0113777D01*
X0107522Y0113920D01*
X0107467Y0114063D01*
X0107409Y0114204D01*
X0107347Y0114343D01*
X0107281Y0114481D01*
X0107213Y0114617D01*
X0107141Y0114752D01*
X0107065Y0114884D01*
X0106986Y0115015D01*
X0106904Y0115143D01*
X0106819Y0115270D01*
X0106731Y0115394D01*
X0106640Y0115517D01*
X0106545Y0115636D01*
X0106448Y0115754D01*
X0106348Y0115869D01*
X0106244Y0115981D01*
X0106139Y0116091D01*
X0106030Y0116198D01*
X0105919Y0116302D01*
X0105805Y0116404D01*
X0105688Y0116503D01*
X0105570Y0116598D01*
X0105535Y0116554D01*
X0105653Y0116459D01*
X0105768Y0116361D01*
X0105881Y0116261D01*
X0105991Y0116157D01*
X0106099Y0116051D01*
X0106204Y0115943D01*
X0106306Y0115831D01*
X0106405Y0115717D01*
X0106502Y0115601D01*
X0106595Y0115482D01*
X0106686Y0115361D01*
X0106773Y0115238D01*
X0106858Y0115113D01*
X0106939Y0114985D01*
X0107017Y0114856D01*
X0107092Y0114725D01*
X0107163Y0114591D01*
X0107231Y0114456D01*
X0107296Y0114320D01*
X0107357Y0114182D01*
X0107415Y0114042D01*
X0107469Y0113901D01*
X0107520Y0113759D01*
X0107567Y0113615D01*
X0107611Y0113470D01*
X0107651Y0113325D01*
X0107687Y0113178D01*
X0107719Y0113030D01*
X0107748Y0112882D01*
X0107774Y0112733D01*
X0107795Y0112583D01*
X0107813Y0112433D01*
X0107827Y0112283D01*
X0107837Y0112132D01*
X0107843Y0111981D01*
X0107846Y0111830D01*
X0107790Y0111830D01*
X0107787Y0111984D01*
X0107780Y0112138D01*
X0107770Y0112291D01*
X0107755Y0112445D01*
X0107737Y0112598D01*
X0107714Y0112750D01*
X0107688Y0112902D01*
X0107658Y0113053D01*
X0107623Y0113203D01*
X0107585Y0113352D01*
X0107544Y0113500D01*
X0107498Y0113647D01*
X0107449Y0113793D01*
X0107396Y0113938D01*
X0107339Y0114081D01*
X0107278Y0114222D01*
X0107214Y0114362D01*
X0107147Y0114501D01*
X0107075Y0114637D01*
X0107001Y0114772D01*
X0106923Y0114905D01*
X0106841Y0115035D01*
X0106756Y0115164D01*
X0106668Y0115290D01*
X0106577Y0115414D01*
X0106482Y0115536D01*
X0106385Y0115655D01*
X0106284Y0115771D01*
X0106181Y0115885D01*
X0106074Y0115997D01*
X0105965Y0116105D01*
X0105853Y0116211D01*
X0105738Y0116313D01*
X0105621Y0116413D01*
X0105501Y0116510D01*
X0105467Y0116466D01*
X0105585Y0116370D01*
X0105701Y0116271D01*
X0105815Y0116169D01*
X0105926Y0116065D01*
X0106034Y0115957D01*
X0106140Y0115847D01*
X0106242Y0115734D01*
X0106342Y0115619D01*
X0106439Y0115501D01*
X0106532Y0115380D01*
X0106623Y0115257D01*
X0106710Y0115132D01*
X0106794Y0115005D01*
X0106875Y0114876D01*
X0106952Y0114744D01*
X0107026Y0114611D01*
X0107097Y0114476D01*
X0107164Y0114339D01*
X0107227Y0114200D01*
X0107287Y0114060D01*
X0107343Y0113918D01*
X0107396Y0113775D01*
X0107445Y0113630D01*
X0107490Y0113484D01*
X0107531Y0113338D01*
X0107569Y0113190D01*
X0107603Y0113041D01*
X0107633Y0112892D01*
X0107659Y0112741D01*
X0107681Y0112590D01*
X0107700Y0112439D01*
X0107714Y0112287D01*
X0107725Y0112135D01*
X0107731Y0111983D01*
X0107734Y0111830D01*
X0107678Y0111830D01*
X0107675Y0111981D01*
X0107669Y0112132D01*
X0107658Y0112283D01*
X0107644Y0112433D01*
X0107626Y0112583D01*
X0107604Y0112733D01*
X0107578Y0112881D01*
X0107548Y0113030D01*
X0107514Y0113177D01*
X0107477Y0113323D01*
X0107436Y0113469D01*
X0107391Y0113613D01*
X0107343Y0113756D01*
X0107291Y0113898D01*
X0107235Y0114038D01*
X0107176Y0114177D01*
X0107113Y0114315D01*
X0107047Y0114450D01*
X0106977Y0114584D01*
X0106904Y0114716D01*
X0106827Y0114847D01*
X0106747Y0114975D01*
X0106664Y0115101D01*
X0106577Y0115225D01*
X0106488Y0115346D01*
X0106395Y0115466D01*
X0106299Y0115583D01*
X0106201Y0115697D01*
X0106099Y0115809D01*
X0105995Y0115918D01*
X0105887Y0116024D01*
X0105777Y0116128D01*
X0105665Y0116229D01*
X0105550Y0116327D01*
X0105432Y0116421D01*
X0105398Y0116377D01*
X0105514Y0116283D01*
X0105628Y0116186D01*
X0105740Y0116087D01*
X0105849Y0115984D01*
X0105955Y0115878D01*
X0106058Y0115770D01*
X0106159Y0115660D01*
X0106256Y0115546D01*
X0106351Y0115431D01*
X0106443Y0115312D01*
X0106532Y0115192D01*
X0106617Y0115069D01*
X0106700Y0114944D01*
X0106779Y0114817D01*
X0106855Y0114689D01*
X0106927Y0114558D01*
X0106997Y0114425D01*
X0107062Y0114291D01*
X0107125Y0114155D01*
X0107183Y0114017D01*
X0107239Y0113878D01*
X0107290Y0113737D01*
X0107338Y0113596D01*
X0107382Y0113453D01*
X0107423Y0113309D01*
X0107460Y0113164D01*
X0107493Y0113018D01*
X0107523Y0112871D01*
X0107548Y0112724D01*
X0107570Y0112576D01*
X0107588Y0112427D01*
X0107602Y0112278D01*
X0107613Y0112129D01*
X0107619Y0111980D01*
X0107622Y0111830D01*
X0107566Y0111830D01*
X0107563Y0111978D01*
X0107557Y0112126D01*
X0107546Y0112274D01*
X0107532Y0112421D01*
X0107515Y0112569D01*
X0107493Y0112715D01*
X0107468Y0112861D01*
X0107438Y0113006D01*
X0107406Y0113151D01*
X0107369Y0113294D01*
X0107329Y0113437D01*
X0107285Y0113579D01*
X0107237Y0113719D01*
X0107186Y0113858D01*
X0107132Y0113996D01*
X0107073Y0114132D01*
X0107012Y0114267D01*
X0106947Y0114400D01*
X0106878Y0114531D01*
X0106806Y0114661D01*
X0106731Y0114788D01*
X0106653Y0114914D01*
X0106571Y0115038D01*
X0106486Y0115159D01*
X0106399Y0115279D01*
X0106308Y0115396D01*
X0106214Y0115510D01*
X0106117Y0115622D01*
X0106017Y0115732D01*
X0105915Y0115839D01*
X0105810Y0115944D01*
X0105702Y0116045D01*
X0105592Y0116144D01*
X0105479Y0116240D01*
X0105363Y0116333D01*
X0043132Y0136884D02*
X0043446Y0136445D01*
X0043445Y0136445D02*
X0043325Y0136356D01*
X0043207Y0136264D01*
X0043092Y0136168D01*
X0042979Y0136070D01*
X0042869Y0135969D01*
X0042761Y0135865D01*
X0042657Y0135758D01*
X0042555Y0135648D01*
X0042456Y0135536D01*
X0042360Y0135422D01*
X0042267Y0135304D01*
X0042177Y0135185D01*
X0042090Y0135063D01*
X0042006Y0134939D01*
X0041926Y0134813D01*
X0041849Y0134684D01*
X0041775Y0134554D01*
X0041705Y0134422D01*
X0041638Y0134288D01*
X0041575Y0134152D01*
X0041516Y0134015D01*
X0041459Y0133877D01*
X0041407Y0133736D01*
X0041358Y0133595D01*
X0041313Y0133452D01*
X0041272Y0133308D01*
X0041235Y0133164D01*
X0041201Y0133018D01*
X0041171Y0132871D01*
X0041145Y0132724D01*
X0041123Y0132576D01*
X0041104Y0132427D01*
X0041090Y0132278D01*
X0041079Y0132129D01*
X0041073Y0131980D01*
X0041070Y0131830D01*
X0040531Y0131830D01*
X0040530Y0131830D01*
X0040533Y0131985D01*
X0040539Y0132140D01*
X0040550Y0132295D01*
X0040564Y0132450D01*
X0040582Y0132604D01*
X0040604Y0132758D01*
X0040629Y0132911D01*
X0040659Y0133063D01*
X0040692Y0133215D01*
X0040729Y0133366D01*
X0040769Y0133516D01*
X0040814Y0133665D01*
X0040862Y0133812D01*
X0040913Y0133959D01*
X0040969Y0134104D01*
X0041027Y0134247D01*
X0041090Y0134390D01*
X0041156Y0134530D01*
X0041225Y0134669D01*
X0041298Y0134806D01*
X0041374Y0134942D01*
X0041453Y0135075D01*
X0041536Y0135206D01*
X0041622Y0135336D01*
X0041711Y0135463D01*
X0041803Y0135588D01*
X0041899Y0135710D01*
X0041997Y0135830D01*
X0042098Y0135948D01*
X0042202Y0136063D01*
X0042309Y0136176D01*
X0042419Y0136286D01*
X0042531Y0136393D01*
X0042646Y0136497D01*
X0042764Y0136598D01*
X0042884Y0136697D01*
X0043007Y0136792D01*
X0043131Y0136885D01*
X0043164Y0136839D01*
X0043040Y0136747D01*
X0042919Y0136653D01*
X0042800Y0136555D01*
X0042683Y0136455D01*
X0042569Y0136351D01*
X0042458Y0136245D01*
X0042349Y0136137D01*
X0042243Y0136025D01*
X0042140Y0135911D01*
X0042040Y0135794D01*
X0041942Y0135675D01*
X0041848Y0135554D01*
X0041756Y0135430D01*
X0041668Y0135304D01*
X0041583Y0135176D01*
X0041501Y0135046D01*
X0041422Y0134914D01*
X0041347Y0134779D01*
X0041275Y0134643D01*
X0041206Y0134506D01*
X0041141Y0134367D01*
X0041079Y0134226D01*
X0041021Y0134083D01*
X0040966Y0133939D01*
X0040915Y0133794D01*
X0040867Y0133648D01*
X0040823Y0133501D01*
X0040783Y0133352D01*
X0040746Y0133203D01*
X0040714Y0133052D01*
X0040684Y0132901D01*
X0040659Y0132750D01*
X0040637Y0132597D01*
X0040620Y0132444D01*
X0040605Y0132291D01*
X0040595Y0132138D01*
X0040589Y0131984D01*
X0040586Y0131830D01*
X0040642Y0131830D01*
X0040645Y0131987D01*
X0040652Y0132143D01*
X0040662Y0132299D01*
X0040677Y0132455D01*
X0040696Y0132611D01*
X0040718Y0132766D01*
X0040745Y0132920D01*
X0040775Y0133074D01*
X0040809Y0133226D01*
X0040848Y0133378D01*
X0040890Y0133529D01*
X0040936Y0133679D01*
X0040985Y0133827D01*
X0041039Y0133974D01*
X0041096Y0134120D01*
X0041157Y0134264D01*
X0041221Y0134407D01*
X0041289Y0134548D01*
X0041361Y0134687D01*
X0041436Y0134825D01*
X0041515Y0134960D01*
X0041597Y0135093D01*
X0041682Y0135225D01*
X0041771Y0135354D01*
X0041863Y0135480D01*
X0041958Y0135605D01*
X0042056Y0135727D01*
X0042158Y0135846D01*
X0042262Y0135963D01*
X0042369Y0136077D01*
X0042479Y0136188D01*
X0042592Y0136296D01*
X0042708Y0136402D01*
X0042826Y0136504D01*
X0042947Y0136604D01*
X0043071Y0136700D01*
X0043196Y0136793D01*
X0043229Y0136748D01*
X0043104Y0136656D01*
X0042982Y0136560D01*
X0042862Y0136461D01*
X0042745Y0136360D01*
X0042630Y0136255D01*
X0042519Y0136148D01*
X0042409Y0136038D01*
X0042303Y0135925D01*
X0042200Y0135809D01*
X0042099Y0135691D01*
X0042002Y0135570D01*
X0041908Y0135447D01*
X0041816Y0135321D01*
X0041729Y0135193D01*
X0041644Y0135063D01*
X0041563Y0134931D01*
X0041485Y0134797D01*
X0041410Y0134661D01*
X0041339Y0134523D01*
X0041272Y0134383D01*
X0041208Y0134242D01*
X0041148Y0134099D01*
X0041091Y0133955D01*
X0041038Y0133809D01*
X0040989Y0133662D01*
X0040943Y0133513D01*
X0040902Y0133364D01*
X0040864Y0133213D01*
X0040830Y0133062D01*
X0040800Y0132910D01*
X0040774Y0132757D01*
X0040751Y0132603D01*
X0040733Y0132449D01*
X0040718Y0132295D01*
X0040707Y0132140D01*
X0040701Y0131985D01*
X0040698Y0131830D01*
X0040754Y0131830D01*
X0040757Y0131984D01*
X0040763Y0132137D01*
X0040774Y0132291D01*
X0040788Y0132444D01*
X0040807Y0132596D01*
X0040829Y0132748D01*
X0040855Y0132900D01*
X0040885Y0133051D01*
X0040918Y0133201D01*
X0040956Y0133350D01*
X0040997Y0133498D01*
X0041042Y0133645D01*
X0041091Y0133790D01*
X0041143Y0133935D01*
X0041200Y0134078D01*
X0041259Y0134220D01*
X0041323Y0134360D01*
X0041389Y0134498D01*
X0041460Y0134635D01*
X0041534Y0134770D01*
X0041611Y0134902D01*
X0041691Y0135033D01*
X0041775Y0135162D01*
X0041862Y0135289D01*
X0041952Y0135413D01*
X0042046Y0135535D01*
X0042142Y0135655D01*
X0042242Y0135772D01*
X0042344Y0135887D01*
X0042450Y0135999D01*
X0042558Y0136108D01*
X0042669Y0136214D01*
X0042782Y0136318D01*
X0042898Y0136419D01*
X0043017Y0136516D01*
X0043138Y0136611D01*
X0043261Y0136702D01*
X0043294Y0136657D01*
X0043172Y0136566D01*
X0043052Y0136472D01*
X0042934Y0136376D01*
X0042819Y0136276D01*
X0042707Y0136173D01*
X0042597Y0136068D01*
X0042490Y0135960D01*
X0042385Y0135849D01*
X0042284Y0135735D01*
X0042185Y0135619D01*
X0042090Y0135501D01*
X0041997Y0135380D01*
X0041908Y0135256D01*
X0041822Y0135131D01*
X0041739Y0135003D01*
X0041659Y0134874D01*
X0041582Y0134742D01*
X0041509Y0134608D01*
X0041440Y0134473D01*
X0041373Y0134336D01*
X0041311Y0134197D01*
X0041251Y0134057D01*
X0041196Y0133915D01*
X0041144Y0133772D01*
X0041096Y0133628D01*
X0041051Y0133482D01*
X0041010Y0133335D01*
X0040973Y0133188D01*
X0040940Y0133039D01*
X0040910Y0132890D01*
X0040884Y0132740D01*
X0040862Y0132589D01*
X0040844Y0132438D01*
X0040830Y0132286D01*
X0040819Y0132134D01*
X0040813Y0131982D01*
X0040810Y0131830D01*
X0040866Y0131830D01*
X0040869Y0131981D01*
X0040875Y0132132D01*
X0040886Y0132282D01*
X0040900Y0132432D01*
X0040918Y0132582D01*
X0040940Y0132731D01*
X0040965Y0132880D01*
X0040994Y0133028D01*
X0041027Y0133175D01*
X0041064Y0133321D01*
X0041105Y0133466D01*
X0041149Y0133611D01*
X0041197Y0133754D01*
X0041248Y0133895D01*
X0041303Y0134036D01*
X0041362Y0134175D01*
X0041424Y0134312D01*
X0041490Y0134448D01*
X0041559Y0134582D01*
X0041631Y0134715D01*
X0041707Y0134845D01*
X0041786Y0134973D01*
X0041868Y0135100D01*
X0041954Y0135224D01*
X0042042Y0135346D01*
X0042134Y0135466D01*
X0042228Y0135583D01*
X0042326Y0135698D01*
X0042427Y0135811D01*
X0042530Y0135921D01*
X0042636Y0136028D01*
X0042745Y0136132D01*
X0042856Y0136234D01*
X0042970Y0136333D01*
X0043087Y0136429D01*
X0043205Y0136521D01*
X0043327Y0136611D01*
X0043359Y0136566D01*
X0043239Y0136477D01*
X0043121Y0136385D01*
X0043006Y0136290D01*
X0042893Y0136192D01*
X0042783Y0136091D01*
X0042675Y0135988D01*
X0042570Y0135882D01*
X0042468Y0135773D01*
X0042368Y0135661D01*
X0042272Y0135547D01*
X0042178Y0135431D01*
X0042087Y0135313D01*
X0041999Y0135192D01*
X0041915Y0135069D01*
X0041833Y0134943D01*
X0041755Y0134816D01*
X0041680Y0134687D01*
X0041608Y0134556D01*
X0041540Y0134423D01*
X0041475Y0134289D01*
X0041413Y0134152D01*
X0041355Y0134015D01*
X0041301Y0133876D01*
X0041250Y0133735D01*
X0041202Y0133594D01*
X0041159Y0133451D01*
X0041118Y0133307D01*
X0041082Y0133162D01*
X0041049Y0133016D01*
X0041020Y0132870D01*
X0040995Y0132723D01*
X0040973Y0132575D01*
X0040955Y0132426D01*
X0040941Y0132278D01*
X0040931Y0132129D01*
X0040925Y0131979D01*
X0040922Y0131830D01*
X0040978Y0131830D01*
X0040981Y0131982D01*
X0040988Y0132134D01*
X0040998Y0132286D01*
X0041013Y0132437D01*
X0041032Y0132588D01*
X0041054Y0132738D01*
X0041081Y0132888D01*
X0041111Y0133037D01*
X0041145Y0133185D01*
X0041183Y0133332D01*
X0041225Y0133479D01*
X0041271Y0133624D01*
X0041320Y0133767D01*
X0041374Y0133910D01*
X0041431Y0134051D01*
X0041491Y0134190D01*
X0041555Y0134328D01*
X0041623Y0134464D01*
X0041695Y0134598D01*
X0041769Y0134731D01*
X0041848Y0134861D01*
X0041929Y0134989D01*
X0042014Y0135116D01*
X0042103Y0135239D01*
X0042194Y0135361D01*
X0042288Y0135480D01*
X0042386Y0135596D01*
X0042487Y0135710D01*
X0042590Y0135822D01*
X0042697Y0135930D01*
X0042806Y0136036D01*
X0042918Y0136139D01*
X0043033Y0136239D01*
X0043150Y0136336D01*
X0043270Y0136429D01*
X0043392Y0136520D01*
X0043424Y0136475D01*
X0043303Y0136385D01*
X0043185Y0136292D01*
X0043069Y0136196D01*
X0042955Y0136097D01*
X0042844Y0135995D01*
X0042736Y0135890D01*
X0042631Y0135783D01*
X0042528Y0135673D01*
X0042428Y0135560D01*
X0042332Y0135444D01*
X0042238Y0135327D01*
X0042148Y0135206D01*
X0042060Y0135084D01*
X0041976Y0134959D01*
X0041895Y0134832D01*
X0041818Y0134703D01*
X0041744Y0134571D01*
X0041673Y0134438D01*
X0041606Y0134304D01*
X0041542Y0134167D01*
X0041482Y0134029D01*
X0041426Y0133890D01*
X0041373Y0133748D01*
X0041324Y0133606D01*
X0041279Y0133463D01*
X0041237Y0133318D01*
X0041200Y0133172D01*
X0041166Y0133025D01*
X0041136Y0132878D01*
X0041109Y0132730D01*
X0041087Y0132581D01*
X0041069Y0132431D01*
X0041054Y0132281D01*
X0041044Y0132131D01*
X0041037Y0131981D01*
X0041034Y0131830D01*
X0050672Y0126870D02*
X0050341Y0127296D01*
X0050341Y0127295D02*
X0050456Y0127388D01*
X0050568Y0127483D01*
X0050678Y0127581D01*
X0050785Y0127682D01*
X0050889Y0127786D01*
X0050991Y0127893D01*
X0051090Y0128002D01*
X0051186Y0128113D01*
X0051280Y0128227D01*
X0051370Y0128343D01*
X0051457Y0128462D01*
X0051541Y0128583D01*
X0051622Y0128705D01*
X0051700Y0128830D01*
X0051775Y0128957D01*
X0051846Y0129086D01*
X0051915Y0129216D01*
X0051979Y0129349D01*
X0052040Y0129483D01*
X0052098Y0129618D01*
X0052153Y0129755D01*
X0052203Y0129893D01*
X0052251Y0130033D01*
X0052294Y0130173D01*
X0052334Y0130315D01*
X0052371Y0130457D01*
X0052403Y0130601D01*
X0052432Y0130745D01*
X0052457Y0130890D01*
X0052479Y0131036D01*
X0052497Y0131182D01*
X0052511Y0131329D01*
X0052521Y0131476D01*
X0052527Y0131623D01*
X0052530Y0131770D01*
X0053069Y0131770D01*
X0053070Y0131770D01*
X0053067Y0131613D01*
X0053061Y0131457D01*
X0053050Y0131300D01*
X0053036Y0131144D01*
X0053017Y0130988D01*
X0052995Y0130833D01*
X0052969Y0130679D01*
X0052939Y0130525D01*
X0052905Y0130372D01*
X0052867Y0130219D01*
X0052826Y0130068D01*
X0052781Y0129918D01*
X0052732Y0129769D01*
X0052679Y0129621D01*
X0052623Y0129475D01*
X0052563Y0129330D01*
X0052499Y0129187D01*
X0052432Y0129045D01*
X0052362Y0128905D01*
X0052288Y0128767D01*
X0052210Y0128631D01*
X0052129Y0128496D01*
X0052045Y0128364D01*
X0051957Y0128234D01*
X0051867Y0128106D01*
X0051773Y0127981D01*
X0051676Y0127858D01*
X0051575Y0127737D01*
X0051472Y0127619D01*
X0051366Y0127503D01*
X0051258Y0127391D01*
X0051146Y0127280D01*
X0051032Y0127173D01*
X0050915Y0127069D01*
X0050795Y0126967D01*
X0050673Y0126869D01*
X0050638Y0126913D01*
X0050759Y0127011D01*
X0050878Y0127111D01*
X0050994Y0127215D01*
X0051107Y0127321D01*
X0051218Y0127430D01*
X0051326Y0127542D01*
X0051431Y0127656D01*
X0051533Y0127773D01*
X0051632Y0127893D01*
X0051728Y0128015D01*
X0051821Y0128139D01*
X0051911Y0128266D01*
X0051998Y0128395D01*
X0052082Y0128526D01*
X0052162Y0128659D01*
X0052239Y0128794D01*
X0052312Y0128931D01*
X0052382Y0129070D01*
X0052449Y0129210D01*
X0052512Y0129352D01*
X0052571Y0129496D01*
X0052627Y0129641D01*
X0052679Y0129787D01*
X0052727Y0129935D01*
X0052772Y0130083D01*
X0052813Y0130233D01*
X0052851Y0130384D01*
X0052884Y0130536D01*
X0052914Y0130688D01*
X0052940Y0130842D01*
X0052962Y0130995D01*
X0052980Y0131150D01*
X0052994Y0131304D01*
X0053005Y0131459D01*
X0053011Y0131615D01*
X0053014Y0131770D01*
X0052958Y0131770D01*
X0052955Y0131616D01*
X0052949Y0131462D01*
X0052938Y0131309D01*
X0052924Y0131155D01*
X0052906Y0131002D01*
X0052884Y0130850D01*
X0052859Y0130698D01*
X0052829Y0130547D01*
X0052796Y0130397D01*
X0052759Y0130247D01*
X0052718Y0130099D01*
X0052674Y0129951D01*
X0052626Y0129805D01*
X0052574Y0129660D01*
X0052519Y0129516D01*
X0052460Y0129374D01*
X0052398Y0129233D01*
X0052332Y0129094D01*
X0052262Y0128957D01*
X0052190Y0128821D01*
X0052113Y0128687D01*
X0052034Y0128556D01*
X0051951Y0128426D01*
X0051865Y0128298D01*
X0051776Y0128173D01*
X0051684Y0128049D01*
X0051589Y0127928D01*
X0051490Y0127810D01*
X0051389Y0127694D01*
X0051285Y0127580D01*
X0051178Y0127470D01*
X0051069Y0127361D01*
X0050956Y0127256D01*
X0050841Y0127154D01*
X0050724Y0127054D01*
X0050604Y0126958D01*
X0050570Y0127002D01*
X0050688Y0127097D01*
X0050805Y0127196D01*
X0050919Y0127298D01*
X0051030Y0127402D01*
X0051139Y0127509D01*
X0051244Y0127619D01*
X0051348Y0127731D01*
X0051448Y0127846D01*
X0051545Y0127964D01*
X0051640Y0128083D01*
X0051731Y0128206D01*
X0051819Y0128330D01*
X0051904Y0128457D01*
X0051986Y0128585D01*
X0052065Y0128716D01*
X0052141Y0128848D01*
X0052213Y0128983D01*
X0052281Y0129119D01*
X0052347Y0129257D01*
X0052409Y0129396D01*
X0052467Y0129537D01*
X0052522Y0129680D01*
X0052573Y0129823D01*
X0052621Y0129968D01*
X0052665Y0130114D01*
X0052705Y0130261D01*
X0052741Y0130409D01*
X0052774Y0130558D01*
X0052804Y0130708D01*
X0052829Y0130858D01*
X0052851Y0131009D01*
X0052868Y0131161D01*
X0052883Y0131313D01*
X0052893Y0131465D01*
X0052899Y0131617D01*
X0052902Y0131770D01*
X0052846Y0131770D01*
X0052843Y0131619D01*
X0052837Y0131468D01*
X0052827Y0131317D01*
X0052813Y0131167D01*
X0052795Y0131017D01*
X0052774Y0130867D01*
X0052748Y0130718D01*
X0052719Y0130570D01*
X0052687Y0130422D01*
X0052651Y0130275D01*
X0052611Y0130130D01*
X0052567Y0129985D01*
X0052520Y0129841D01*
X0052469Y0129699D01*
X0052415Y0129558D01*
X0052357Y0129418D01*
X0052296Y0129280D01*
X0052231Y0129144D01*
X0052163Y0129009D01*
X0052092Y0128875D01*
X0052017Y0128744D01*
X0051939Y0128615D01*
X0051858Y0128487D01*
X0051773Y0128362D01*
X0051686Y0128239D01*
X0051595Y0128118D01*
X0051502Y0127999D01*
X0051405Y0127883D01*
X0051306Y0127769D01*
X0051204Y0127657D01*
X0051099Y0127549D01*
X0050991Y0127443D01*
X0050881Y0127339D01*
X0050768Y0127239D01*
X0050653Y0127141D01*
X0050535Y0127046D01*
X0050501Y0127090D01*
X0050621Y0127187D01*
X0050738Y0127287D01*
X0050853Y0127389D01*
X0050965Y0127495D01*
X0051074Y0127603D01*
X0051181Y0127715D01*
X0051284Y0127829D01*
X0051385Y0127945D01*
X0051482Y0128064D01*
X0051577Y0128186D01*
X0051668Y0128310D01*
X0051756Y0128436D01*
X0051841Y0128565D01*
X0051923Y0128695D01*
X0052001Y0128828D01*
X0052075Y0128963D01*
X0052147Y0129099D01*
X0052214Y0129238D01*
X0052278Y0129378D01*
X0052339Y0129519D01*
X0052396Y0129662D01*
X0052449Y0129807D01*
X0052498Y0129953D01*
X0052544Y0130100D01*
X0052585Y0130248D01*
X0052623Y0130397D01*
X0052658Y0130547D01*
X0052688Y0130698D01*
X0052714Y0130850D01*
X0052737Y0131002D01*
X0052755Y0131155D01*
X0052770Y0131309D01*
X0052780Y0131462D01*
X0052787Y0131616D01*
X0052790Y0131770D01*
X0052734Y0131770D01*
X0052731Y0131617D01*
X0052725Y0131465D01*
X0052714Y0131313D01*
X0052700Y0131161D01*
X0052681Y0131010D01*
X0052659Y0130859D01*
X0052633Y0130708D01*
X0052603Y0130559D01*
X0052569Y0130410D01*
X0052531Y0130262D01*
X0052490Y0130116D01*
X0052445Y0129970D01*
X0052396Y0129825D01*
X0052343Y0129682D01*
X0052287Y0129540D01*
X0052227Y0129400D01*
X0052164Y0129261D01*
X0052097Y0129124D01*
X0052026Y0128989D01*
X0051952Y0128856D01*
X0051875Y0128724D01*
X0051794Y0128595D01*
X0051710Y0128468D01*
X0051623Y0128343D01*
X0051532Y0128220D01*
X0051439Y0128099D01*
X0051342Y0127981D01*
X0051242Y0127866D01*
X0051140Y0127753D01*
X0051034Y0127643D01*
X0050926Y0127535D01*
X0050815Y0127431D01*
X0050701Y0127329D01*
X0050585Y0127230D01*
X0050467Y0127134D01*
X0050432Y0127179D01*
X0050550Y0127273D01*
X0050665Y0127371D01*
X0050777Y0127472D01*
X0050887Y0127576D01*
X0050995Y0127682D01*
X0051099Y0127791D01*
X0051201Y0127903D01*
X0051299Y0128017D01*
X0051395Y0128134D01*
X0051488Y0128254D01*
X0051577Y0128375D01*
X0051664Y0128499D01*
X0051747Y0128625D01*
X0051827Y0128753D01*
X0051904Y0128884D01*
X0051977Y0129016D01*
X0052047Y0129150D01*
X0052113Y0129285D01*
X0052176Y0129423D01*
X0052235Y0129562D01*
X0052291Y0129702D01*
X0052343Y0129844D01*
X0052391Y0129987D01*
X0052436Y0130131D01*
X0052477Y0130277D01*
X0052514Y0130423D01*
X0052548Y0130570D01*
X0052578Y0130719D01*
X0052604Y0130867D01*
X0052626Y0131017D01*
X0052644Y0131167D01*
X0052658Y0131317D01*
X0052669Y0131468D01*
X0052675Y0131619D01*
X0052678Y0131770D01*
X0052622Y0131770D01*
X0052619Y0131620D01*
X0052613Y0131471D01*
X0052602Y0131322D01*
X0052588Y0131173D01*
X0052570Y0131024D01*
X0052548Y0130876D01*
X0052523Y0130729D01*
X0052493Y0130582D01*
X0052460Y0130436D01*
X0052423Y0130291D01*
X0052382Y0130147D01*
X0052338Y0130004D01*
X0052290Y0129863D01*
X0052239Y0129722D01*
X0052183Y0129583D01*
X0052125Y0129445D01*
X0052062Y0129309D01*
X0051997Y0129175D01*
X0051927Y0129042D01*
X0051855Y0128911D01*
X0051779Y0128783D01*
X0051700Y0128656D01*
X0051617Y0128531D01*
X0051532Y0128408D01*
X0051443Y0128288D01*
X0051351Y0128169D01*
X0051256Y0128054D01*
X0051159Y0127940D01*
X0051058Y0127830D01*
X0050955Y0127722D01*
X0050849Y0127616D01*
X0050740Y0127513D01*
X0050628Y0127414D01*
X0050514Y0127317D01*
X0050398Y0127223D01*
X0050363Y0127267D01*
X0050479Y0127360D01*
X0050592Y0127456D01*
X0050702Y0127555D01*
X0050810Y0127656D01*
X0050915Y0127761D01*
X0051017Y0127868D01*
X0051117Y0127978D01*
X0051214Y0128090D01*
X0051308Y0128204D01*
X0051399Y0128321D01*
X0051486Y0128441D01*
X0051571Y0128562D01*
X0051653Y0128686D01*
X0051731Y0128812D01*
X0051806Y0128939D01*
X0051878Y0129069D01*
X0051947Y0129200D01*
X0052012Y0129333D01*
X0052073Y0129468D01*
X0052132Y0129604D01*
X0052186Y0129742D01*
X0052237Y0129881D01*
X0052285Y0130021D01*
X0052329Y0130163D01*
X0052369Y0130306D01*
X0052406Y0130449D01*
X0052438Y0130594D01*
X0052468Y0130739D01*
X0052493Y0130885D01*
X0052515Y0131031D01*
X0052532Y0131179D01*
X0052546Y0131326D01*
X0052557Y0131474D01*
X0052563Y0131622D01*
X0052566Y0131770D01*
X0040531Y0131771D02*
X0041071Y0131771D01*
X0041070Y0131770D02*
X0041073Y0131620D01*
X0041080Y0131470D01*
X0041090Y0131320D01*
X0041105Y0131171D01*
X0041123Y0131022D01*
X0041145Y0130874D01*
X0041172Y0130726D01*
X0041202Y0130579D01*
X0041236Y0130432D01*
X0041273Y0130287D01*
X0041315Y0130143D01*
X0041360Y0130000D01*
X0041409Y0129858D01*
X0041462Y0129717D01*
X0041518Y0129578D01*
X0041578Y0129441D01*
X0041642Y0129305D01*
X0041709Y0129171D01*
X0041780Y0129038D01*
X0041854Y0128908D01*
X0041931Y0128779D01*
X0042012Y0128653D01*
X0042096Y0128528D01*
X0042183Y0128406D01*
X0042274Y0128286D01*
X0042367Y0128169D01*
X0042464Y0128054D01*
X0042564Y0127942D01*
X0042666Y0127832D01*
X0042771Y0127725D01*
X0042879Y0127621D01*
X0042990Y0127520D01*
X0043104Y0127422D01*
X0043220Y0127326D01*
X0043338Y0127234D01*
X0043015Y0126803D01*
X0043014Y0126802D01*
X0042891Y0126897D01*
X0042771Y0126996D01*
X0042653Y0127097D01*
X0042538Y0127202D01*
X0042425Y0127309D01*
X0042315Y0127419D01*
X0042208Y0127531D01*
X0042103Y0127646D01*
X0042002Y0127764D01*
X0041903Y0127884D01*
X0041807Y0128007D01*
X0041715Y0128132D01*
X0041625Y0128259D01*
X0041539Y0128389D01*
X0041456Y0128520D01*
X0041376Y0128654D01*
X0041300Y0128789D01*
X0041227Y0128927D01*
X0041158Y0129066D01*
X0041092Y0129207D01*
X0041029Y0129349D01*
X0040970Y0129493D01*
X0040915Y0129638D01*
X0040863Y0129785D01*
X0040815Y0129933D01*
X0040770Y0130082D01*
X0040729Y0130232D01*
X0040692Y0130383D01*
X0040659Y0130535D01*
X0040630Y0130687D01*
X0040604Y0130841D01*
X0040582Y0130995D01*
X0040564Y0131149D01*
X0040550Y0131304D01*
X0040539Y0131459D01*
X0040533Y0131615D01*
X0040530Y0131770D01*
X0040586Y0131770D01*
X0040589Y0131616D01*
X0040595Y0131462D01*
X0040605Y0131308D01*
X0040620Y0131155D01*
X0040637Y0131002D01*
X0040659Y0130849D01*
X0040685Y0130697D01*
X0040714Y0130546D01*
X0040747Y0130395D01*
X0040784Y0130246D01*
X0040824Y0130097D01*
X0040868Y0129949D01*
X0040916Y0129803D01*
X0040967Y0129657D01*
X0041022Y0129513D01*
X0041081Y0129371D01*
X0041143Y0129230D01*
X0041208Y0129090D01*
X0041277Y0128952D01*
X0041349Y0128816D01*
X0041425Y0128682D01*
X0041504Y0128550D01*
X0041586Y0128419D01*
X0041672Y0128291D01*
X0041760Y0128165D01*
X0041852Y0128041D01*
X0041947Y0127920D01*
X0042044Y0127800D01*
X0042145Y0127684D01*
X0042248Y0127569D01*
X0042355Y0127458D01*
X0042464Y0127349D01*
X0042576Y0127243D01*
X0042690Y0127139D01*
X0042807Y0127039D01*
X0042926Y0126941D01*
X0043048Y0126847D01*
X0043081Y0126892D01*
X0042961Y0126985D01*
X0042842Y0127082D01*
X0042727Y0127182D01*
X0042613Y0127284D01*
X0042503Y0127389D01*
X0042395Y0127497D01*
X0042289Y0127608D01*
X0042187Y0127721D01*
X0042087Y0127837D01*
X0041990Y0127955D01*
X0041896Y0128075D01*
X0041806Y0128198D01*
X0041718Y0128323D01*
X0041633Y0128450D01*
X0041552Y0128579D01*
X0041473Y0128710D01*
X0041398Y0128843D01*
X0041327Y0128978D01*
X0041258Y0129115D01*
X0041194Y0129253D01*
X0041132Y0129393D01*
X0041074Y0129534D01*
X0041020Y0129677D01*
X0040969Y0129821D01*
X0040922Y0129966D01*
X0040878Y0130112D01*
X0040838Y0130259D01*
X0040801Y0130408D01*
X0040769Y0130557D01*
X0040740Y0130707D01*
X0040715Y0130857D01*
X0040693Y0131009D01*
X0040675Y0131160D01*
X0040661Y0131312D01*
X0040651Y0131465D01*
X0040645Y0131617D01*
X0040642Y0131770D01*
X0040698Y0131770D01*
X0040701Y0131615D01*
X0040708Y0131459D01*
X0040718Y0131304D01*
X0040733Y0131149D01*
X0040751Y0130995D01*
X0040774Y0130841D01*
X0040800Y0130688D01*
X0040831Y0130535D01*
X0040865Y0130383D01*
X0040903Y0130233D01*
X0040945Y0130083D01*
X0040990Y0129934D01*
X0041040Y0129787D01*
X0041093Y0129641D01*
X0041150Y0129496D01*
X0041210Y0129353D01*
X0041274Y0129211D01*
X0041342Y0129071D01*
X0041414Y0128933D01*
X0041488Y0128797D01*
X0041567Y0128662D01*
X0041648Y0128530D01*
X0041733Y0128400D01*
X0041822Y0128272D01*
X0041913Y0128146D01*
X0042008Y0128023D01*
X0042106Y0127902D01*
X0042206Y0127783D01*
X0042310Y0127668D01*
X0042417Y0127555D01*
X0042527Y0127444D01*
X0042639Y0127337D01*
X0042754Y0127232D01*
X0042872Y0127131D01*
X0042992Y0127032D01*
X0043115Y0126936D01*
X0043148Y0126981D01*
X0043027Y0127076D01*
X0042908Y0127174D01*
X0042791Y0127274D01*
X0042677Y0127378D01*
X0042566Y0127484D01*
X0042457Y0127594D01*
X0042351Y0127706D01*
X0042249Y0127820D01*
X0042149Y0127938D01*
X0042052Y0128057D01*
X0041958Y0128180D01*
X0041867Y0128304D01*
X0041780Y0128431D01*
X0041695Y0128560D01*
X0041615Y0128691D01*
X0041537Y0128824D01*
X0041463Y0128959D01*
X0041392Y0129096D01*
X0041325Y0129235D01*
X0041262Y0129375D01*
X0041202Y0129517D01*
X0041145Y0129660D01*
X0041093Y0129805D01*
X0041044Y0129951D01*
X0040998Y0130099D01*
X0040957Y0130247D01*
X0040919Y0130396D01*
X0040885Y0130547D01*
X0040855Y0130698D01*
X0040829Y0130850D01*
X0040807Y0131002D01*
X0040789Y0131155D01*
X0040774Y0131308D01*
X0040763Y0131462D01*
X0040757Y0131616D01*
X0040754Y0131770D01*
X0040810Y0131770D01*
X0040813Y0131617D01*
X0040819Y0131465D01*
X0040830Y0131313D01*
X0040844Y0131161D01*
X0040862Y0131009D01*
X0040885Y0130858D01*
X0040910Y0130708D01*
X0040940Y0130558D01*
X0040974Y0130409D01*
X0041011Y0130261D01*
X0041052Y0130114D01*
X0041097Y0129968D01*
X0041145Y0129824D01*
X0041198Y0129680D01*
X0041253Y0129538D01*
X0041313Y0129398D01*
X0041376Y0129259D01*
X0041442Y0129121D01*
X0041512Y0128986D01*
X0041586Y0128852D01*
X0041663Y0128720D01*
X0041743Y0128590D01*
X0041826Y0128462D01*
X0041913Y0128337D01*
X0042003Y0128213D01*
X0042096Y0128092D01*
X0042192Y0127973D01*
X0042291Y0127857D01*
X0042392Y0127744D01*
X0042497Y0127633D01*
X0042605Y0127524D01*
X0042715Y0127419D01*
X0042828Y0127316D01*
X0042944Y0127217D01*
X0043062Y0127120D01*
X0043182Y0127026D01*
X0043216Y0127071D01*
X0043096Y0127164D01*
X0042979Y0127260D01*
X0042865Y0127358D01*
X0042753Y0127460D01*
X0042644Y0127565D01*
X0042537Y0127672D01*
X0042434Y0127782D01*
X0042333Y0127894D01*
X0042235Y0128009D01*
X0042139Y0128127D01*
X0042047Y0128247D01*
X0041958Y0128369D01*
X0041873Y0128493D01*
X0041790Y0128620D01*
X0041711Y0128749D01*
X0041635Y0128879D01*
X0041562Y0129012D01*
X0041492Y0129146D01*
X0041427Y0129282D01*
X0041364Y0129420D01*
X0041305Y0129559D01*
X0041250Y0129700D01*
X0041198Y0129842D01*
X0041150Y0129985D01*
X0041106Y0130130D01*
X0041065Y0130275D01*
X0041028Y0130422D01*
X0040995Y0130570D01*
X0040966Y0130718D01*
X0040940Y0130867D01*
X0040918Y0131016D01*
X0040900Y0131166D01*
X0040886Y0131317D01*
X0040875Y0131468D01*
X0040869Y0131619D01*
X0040866Y0131770D01*
X0040922Y0131770D01*
X0040925Y0131620D01*
X0040931Y0131471D01*
X0040942Y0131321D01*
X0040956Y0131172D01*
X0040974Y0131024D01*
X0040995Y0130875D01*
X0041021Y0130728D01*
X0041050Y0130581D01*
X0041083Y0130435D01*
X0041119Y0130290D01*
X0041160Y0130146D01*
X0041204Y0130002D01*
X0041251Y0129860D01*
X0041302Y0129720D01*
X0041357Y0129580D01*
X0041416Y0129442D01*
X0041477Y0129306D01*
X0041543Y0129171D01*
X0041611Y0129038D01*
X0041683Y0128907D01*
X0041759Y0128778D01*
X0041837Y0128650D01*
X0041919Y0128525D01*
X0042004Y0128401D01*
X0042092Y0128280D01*
X0042183Y0128162D01*
X0042278Y0128045D01*
X0042375Y0127931D01*
X0042475Y0127820D01*
X0042577Y0127711D01*
X0042683Y0127605D01*
X0042791Y0127501D01*
X0042902Y0127400D01*
X0043015Y0127303D01*
X0043131Y0127208D01*
X0043249Y0127116D01*
X0043283Y0127160D01*
X0043166Y0127252D01*
X0043051Y0127346D01*
X0042939Y0127443D01*
X0042829Y0127542D01*
X0042722Y0127645D01*
X0042618Y0127750D01*
X0042516Y0127858D01*
X0042417Y0127968D01*
X0042321Y0128081D01*
X0042227Y0128196D01*
X0042137Y0128314D01*
X0042050Y0128434D01*
X0041966Y0128556D01*
X0041884Y0128680D01*
X0041807Y0128806D01*
X0041732Y0128935D01*
X0041661Y0129065D01*
X0041593Y0129196D01*
X0041528Y0129330D01*
X0041467Y0129465D01*
X0041409Y0129601D01*
X0041355Y0129739D01*
X0041304Y0129879D01*
X0041257Y0130019D01*
X0041213Y0130161D01*
X0041173Y0130304D01*
X0041137Y0130448D01*
X0041105Y0130592D01*
X0041076Y0130738D01*
X0041051Y0130884D01*
X0041029Y0131031D01*
X0041011Y0131178D01*
X0040997Y0131326D01*
X0040987Y0131474D01*
X0040981Y0131622D01*
X0040978Y0131770D01*
X0041034Y0131770D01*
X0041037Y0131619D01*
X0041044Y0131468D01*
X0041054Y0131317D01*
X0041069Y0131167D01*
X0041087Y0131017D01*
X0041110Y0130868D01*
X0041136Y0130719D01*
X0041166Y0130571D01*
X0041201Y0130424D01*
X0041239Y0130278D01*
X0041280Y0130133D01*
X0041326Y0129989D01*
X0041375Y0129846D01*
X0041428Y0129704D01*
X0041485Y0129564D01*
X0041545Y0129426D01*
X0041609Y0129289D01*
X0041677Y0129154D01*
X0041748Y0129021D01*
X0041823Y0128889D01*
X0041900Y0128760D01*
X0041982Y0128633D01*
X0042066Y0128508D01*
X0042154Y0128385D01*
X0042245Y0128264D01*
X0042340Y0128146D01*
X0042437Y0128031D01*
X0042537Y0127918D01*
X0042640Y0127807D01*
X0042746Y0127700D01*
X0042855Y0127595D01*
X0042966Y0127493D01*
X0043081Y0127394D01*
X0043197Y0127298D01*
X0043316Y0127205D01*
X0053069Y0131830D02*
X0052529Y0131830D01*
X0052530Y0131830D02*
X0052527Y0131977D01*
X0052521Y0132124D01*
X0052511Y0132271D01*
X0052497Y0132418D01*
X0052479Y0132564D01*
X0052457Y0132710D01*
X0052432Y0132855D01*
X0052403Y0132999D01*
X0052371Y0133143D01*
X0052334Y0133285D01*
X0052294Y0133427D01*
X0052251Y0133567D01*
X0052203Y0133707D01*
X0052153Y0133845D01*
X0052098Y0133982D01*
X0052040Y0134117D01*
X0051979Y0134251D01*
X0051915Y0134384D01*
X0051846Y0134514D01*
X0051775Y0134643D01*
X0051700Y0134770D01*
X0051622Y0134895D01*
X0051541Y0135017D01*
X0051457Y0135138D01*
X0051370Y0135257D01*
X0051280Y0135373D01*
X0051186Y0135487D01*
X0051090Y0135598D01*
X0050991Y0135707D01*
X0050889Y0135814D01*
X0050785Y0135918D01*
X0050678Y0136019D01*
X0050568Y0136117D01*
X0050456Y0136212D01*
X0050341Y0136305D01*
X0050672Y0136730D01*
X0050673Y0136731D01*
X0050795Y0136633D01*
X0050915Y0136531D01*
X0051032Y0136427D01*
X0051146Y0136320D01*
X0051258Y0136209D01*
X0051366Y0136097D01*
X0051472Y0135981D01*
X0051575Y0135863D01*
X0051676Y0135742D01*
X0051773Y0135619D01*
X0051867Y0135494D01*
X0051957Y0135366D01*
X0052045Y0135236D01*
X0052129Y0135104D01*
X0052210Y0134969D01*
X0052288Y0134833D01*
X0052362Y0134695D01*
X0052432Y0134555D01*
X0052499Y0134413D01*
X0052563Y0134270D01*
X0052623Y0134125D01*
X0052679Y0133979D01*
X0052732Y0133831D01*
X0052781Y0133682D01*
X0052826Y0133532D01*
X0052867Y0133381D01*
X0052905Y0133228D01*
X0052939Y0133075D01*
X0052969Y0132921D01*
X0052995Y0132767D01*
X0053017Y0132612D01*
X0053036Y0132456D01*
X0053050Y0132300D01*
X0053061Y0132143D01*
X0053067Y0131987D01*
X0053070Y0131830D01*
X0053014Y0131830D01*
X0053011Y0131985D01*
X0053005Y0132141D01*
X0052994Y0132296D01*
X0052980Y0132450D01*
X0052962Y0132605D01*
X0052940Y0132758D01*
X0052914Y0132912D01*
X0052884Y0133064D01*
X0052851Y0133216D01*
X0052813Y0133367D01*
X0052772Y0133517D01*
X0052727Y0133665D01*
X0052679Y0133813D01*
X0052627Y0133959D01*
X0052571Y0134104D01*
X0052512Y0134248D01*
X0052449Y0134390D01*
X0052382Y0134530D01*
X0052312Y0134669D01*
X0052239Y0134806D01*
X0052162Y0134941D01*
X0052082Y0135074D01*
X0051998Y0135205D01*
X0051911Y0135334D01*
X0051821Y0135461D01*
X0051728Y0135585D01*
X0051632Y0135707D01*
X0051533Y0135827D01*
X0051431Y0135944D01*
X0051326Y0136058D01*
X0051218Y0136170D01*
X0051107Y0136279D01*
X0050994Y0136385D01*
X0050878Y0136489D01*
X0050759Y0136589D01*
X0050638Y0136687D01*
X0050604Y0136642D01*
X0050724Y0136546D01*
X0050841Y0136446D01*
X0050956Y0136344D01*
X0051069Y0136239D01*
X0051178Y0136130D01*
X0051285Y0136020D01*
X0051389Y0135906D01*
X0051490Y0135790D01*
X0051589Y0135672D01*
X0051684Y0135551D01*
X0051776Y0135427D01*
X0051865Y0135302D01*
X0051951Y0135174D01*
X0052034Y0135044D01*
X0052113Y0134913D01*
X0052190Y0134779D01*
X0052262Y0134643D01*
X0052332Y0134506D01*
X0052398Y0134367D01*
X0052460Y0134226D01*
X0052519Y0134084D01*
X0052574Y0133940D01*
X0052626Y0133795D01*
X0052674Y0133649D01*
X0052718Y0133501D01*
X0052759Y0133353D01*
X0052796Y0133203D01*
X0052829Y0133053D01*
X0052859Y0132902D01*
X0052884Y0132750D01*
X0052906Y0132598D01*
X0052924Y0132445D01*
X0052938Y0132291D01*
X0052949Y0132138D01*
X0052955Y0131984D01*
X0052958Y0131830D01*
X0052902Y0131830D01*
X0052899Y0131983D01*
X0052893Y0132135D01*
X0052883Y0132287D01*
X0052868Y0132439D01*
X0052851Y0132591D01*
X0052829Y0132742D01*
X0052804Y0132892D01*
X0052774Y0133042D01*
X0052741Y0133191D01*
X0052705Y0133339D01*
X0052665Y0133486D01*
X0052621Y0133632D01*
X0052573Y0133777D01*
X0052522Y0133920D01*
X0052467Y0134063D01*
X0052409Y0134204D01*
X0052347Y0134343D01*
X0052281Y0134481D01*
X0052213Y0134617D01*
X0052141Y0134752D01*
X0052065Y0134884D01*
X0051986Y0135015D01*
X0051904Y0135143D01*
X0051819Y0135270D01*
X0051731Y0135394D01*
X0051640Y0135517D01*
X0051545Y0135636D01*
X0051448Y0135754D01*
X0051348Y0135869D01*
X0051244Y0135981D01*
X0051139Y0136091D01*
X0051030Y0136198D01*
X0050919Y0136302D01*
X0050805Y0136404D01*
X0050688Y0136503D01*
X0050570Y0136598D01*
X0050535Y0136554D01*
X0050653Y0136459D01*
X0050768Y0136361D01*
X0050881Y0136261D01*
X0050991Y0136157D01*
X0051099Y0136051D01*
X0051204Y0135943D01*
X0051306Y0135831D01*
X0051405Y0135717D01*
X0051502Y0135601D01*
X0051595Y0135482D01*
X0051686Y0135361D01*
X0051773Y0135238D01*
X0051858Y0135113D01*
X0051939Y0134985D01*
X0052017Y0134856D01*
X0052092Y0134725D01*
X0052163Y0134591D01*
X0052231Y0134456D01*
X0052296Y0134320D01*
X0052357Y0134182D01*
X0052415Y0134042D01*
X0052469Y0133901D01*
X0052520Y0133759D01*
X0052567Y0133615D01*
X0052611Y0133470D01*
X0052651Y0133325D01*
X0052687Y0133178D01*
X0052719Y0133030D01*
X0052748Y0132882D01*
X0052774Y0132733D01*
X0052795Y0132583D01*
X0052813Y0132433D01*
X0052827Y0132283D01*
X0052837Y0132132D01*
X0052843Y0131981D01*
X0052846Y0131830D01*
X0052790Y0131830D01*
X0052787Y0131984D01*
X0052780Y0132138D01*
X0052770Y0132291D01*
X0052755Y0132445D01*
X0052737Y0132598D01*
X0052714Y0132750D01*
X0052688Y0132902D01*
X0052658Y0133053D01*
X0052623Y0133203D01*
X0052585Y0133352D01*
X0052544Y0133500D01*
X0052498Y0133647D01*
X0052449Y0133793D01*
X0052396Y0133938D01*
X0052339Y0134081D01*
X0052278Y0134222D01*
X0052214Y0134362D01*
X0052147Y0134501D01*
X0052075Y0134637D01*
X0052001Y0134772D01*
X0051923Y0134905D01*
X0051841Y0135035D01*
X0051756Y0135164D01*
X0051668Y0135290D01*
X0051577Y0135414D01*
X0051482Y0135536D01*
X0051385Y0135655D01*
X0051284Y0135771D01*
X0051181Y0135885D01*
X0051074Y0135997D01*
X0050965Y0136105D01*
X0050853Y0136211D01*
X0050738Y0136313D01*
X0050621Y0136413D01*
X0050501Y0136510D01*
X0050467Y0136466D01*
X0050585Y0136370D01*
X0050701Y0136271D01*
X0050815Y0136169D01*
X0050926Y0136065D01*
X0051034Y0135957D01*
X0051140Y0135847D01*
X0051242Y0135734D01*
X0051342Y0135619D01*
X0051439Y0135501D01*
X0051532Y0135380D01*
X0051623Y0135257D01*
X0051710Y0135132D01*
X0051794Y0135005D01*
X0051875Y0134876D01*
X0051952Y0134744D01*
X0052026Y0134611D01*
X0052097Y0134476D01*
X0052164Y0134339D01*
X0052227Y0134200D01*
X0052287Y0134060D01*
X0052343Y0133918D01*
X0052396Y0133775D01*
X0052445Y0133630D01*
X0052490Y0133484D01*
X0052531Y0133338D01*
X0052569Y0133190D01*
X0052603Y0133041D01*
X0052633Y0132892D01*
X0052659Y0132741D01*
X0052681Y0132590D01*
X0052700Y0132439D01*
X0052714Y0132287D01*
X0052725Y0132135D01*
X0052731Y0131983D01*
X0052734Y0131830D01*
X0052678Y0131830D01*
X0052675Y0131981D01*
X0052669Y0132132D01*
X0052658Y0132283D01*
X0052644Y0132433D01*
X0052626Y0132583D01*
X0052604Y0132733D01*
X0052578Y0132881D01*
X0052548Y0133030D01*
X0052514Y0133177D01*
X0052477Y0133323D01*
X0052436Y0133469D01*
X0052391Y0133613D01*
X0052343Y0133756D01*
X0052291Y0133898D01*
X0052235Y0134038D01*
X0052176Y0134177D01*
X0052113Y0134315D01*
X0052047Y0134450D01*
X0051977Y0134584D01*
X0051904Y0134716D01*
X0051827Y0134847D01*
X0051747Y0134975D01*
X0051664Y0135101D01*
X0051577Y0135225D01*
X0051488Y0135346D01*
X0051395Y0135466D01*
X0051299Y0135583D01*
X0051201Y0135697D01*
X0051099Y0135809D01*
X0050995Y0135918D01*
X0050887Y0136024D01*
X0050777Y0136128D01*
X0050665Y0136229D01*
X0050550Y0136327D01*
X0050432Y0136421D01*
X0050398Y0136377D01*
X0050514Y0136283D01*
X0050628Y0136186D01*
X0050740Y0136087D01*
X0050849Y0135984D01*
X0050955Y0135878D01*
X0051058Y0135770D01*
X0051159Y0135660D01*
X0051256Y0135546D01*
X0051351Y0135431D01*
X0051443Y0135312D01*
X0051532Y0135192D01*
X0051617Y0135069D01*
X0051700Y0134944D01*
X0051779Y0134817D01*
X0051855Y0134689D01*
X0051927Y0134558D01*
X0051997Y0134425D01*
X0052062Y0134291D01*
X0052125Y0134155D01*
X0052183Y0134017D01*
X0052239Y0133878D01*
X0052290Y0133737D01*
X0052338Y0133596D01*
X0052382Y0133453D01*
X0052423Y0133309D01*
X0052460Y0133164D01*
X0052493Y0133018D01*
X0052523Y0132871D01*
X0052548Y0132724D01*
X0052570Y0132576D01*
X0052588Y0132427D01*
X0052602Y0132278D01*
X0052613Y0132129D01*
X0052619Y0131980D01*
X0052622Y0131830D01*
X0052566Y0131830D01*
X0052563Y0131978D01*
X0052557Y0132126D01*
X0052546Y0132274D01*
X0052532Y0132421D01*
X0052515Y0132569D01*
X0052493Y0132715D01*
X0052468Y0132861D01*
X0052438Y0133006D01*
X0052406Y0133151D01*
X0052369Y0133294D01*
X0052329Y0133437D01*
X0052285Y0133579D01*
X0052237Y0133719D01*
X0052186Y0133858D01*
X0052132Y0133996D01*
X0052073Y0134132D01*
X0052012Y0134267D01*
X0051947Y0134400D01*
X0051878Y0134531D01*
X0051806Y0134661D01*
X0051731Y0134788D01*
X0051653Y0134914D01*
X0051571Y0135038D01*
X0051486Y0135159D01*
X0051399Y0135279D01*
X0051308Y0135396D01*
X0051214Y0135510D01*
X0051117Y0135622D01*
X0051017Y0135732D01*
X0050915Y0135839D01*
X0050810Y0135944D01*
X0050702Y0136045D01*
X0050592Y0136144D01*
X0050479Y0136240D01*
X0050363Y0136333D01*
D11*
X0038351Y0131750D02*
X0039251Y0131750D01*
X0039250Y0131750D02*
X0039254Y0131567D01*
X0039261Y0131384D01*
X0039274Y0131201D01*
X0039291Y0131018D01*
X0039312Y0130836D01*
X0039337Y0130655D01*
X0039367Y0130474D01*
X0039402Y0130294D01*
X0039440Y0130115D01*
X0039483Y0129937D01*
X0039531Y0129760D01*
X0039582Y0129585D01*
X0039638Y0129410D01*
X0039698Y0129237D01*
X0039763Y0129066D01*
X0039831Y0128896D01*
X0039903Y0128727D01*
X0039980Y0128561D01*
X0040061Y0128397D01*
X0040145Y0128234D01*
X0040234Y0128074D01*
X0040326Y0127915D01*
X0040422Y0127759D01*
X0040522Y0127606D01*
X0040626Y0127455D01*
X0040733Y0127306D01*
X0040844Y0127160D01*
X0040958Y0127017D01*
X0041076Y0126877D01*
X0041197Y0126740D01*
X0041321Y0126605D01*
X0041449Y0126474D01*
X0041580Y0126345D01*
X0041714Y0126220D01*
X0041850Y0126099D01*
X0041990Y0125980D01*
X0042133Y0125865D01*
X0042278Y0125754D01*
X0042426Y0125646D01*
X0042577Y0125542D01*
X0042730Y0125441D01*
X0042885Y0125344D01*
X0043043Y0125251D01*
X0043203Y0125162D01*
X0042780Y0124368D01*
X0042600Y0124468D01*
X0042423Y0124572D01*
X0042249Y0124680D01*
X0042077Y0124793D01*
X0041909Y0124910D01*
X0041743Y0125031D01*
X0041580Y0125155D01*
X0041420Y0125284D01*
X0041263Y0125417D01*
X0041110Y0125553D01*
X0040960Y0125693D01*
X0040813Y0125837D01*
X0040670Y0125984D01*
X0040530Y0126135D01*
X0040395Y0126289D01*
X0040263Y0126446D01*
X0040135Y0126606D01*
X0040010Y0126770D01*
X0039890Y0126936D01*
X0039774Y0127106D01*
X0039662Y0127278D01*
X0039554Y0127452D01*
X0039451Y0127630D01*
X0039352Y0127809D01*
X0039257Y0127992D01*
X0039167Y0128176D01*
X0039081Y0128362D01*
X0039000Y0128551D01*
X0038923Y0128741D01*
X0038851Y0128934D01*
X0038784Y0129128D01*
X0038721Y0129323D01*
X0038663Y0129520D01*
X0038610Y0129718D01*
X0038562Y0129918D01*
X0038519Y0130119D01*
X0038481Y0130320D01*
X0038447Y0130523D01*
X0038419Y0130726D01*
X0038395Y0130930D01*
X0038376Y0131135D01*
X0038363Y0131339D01*
X0038354Y0131544D01*
X0038350Y0131750D01*
X0038444Y0131750D01*
X0038448Y0131547D01*
X0038456Y0131344D01*
X0038470Y0131141D01*
X0038488Y0130939D01*
X0038512Y0130738D01*
X0038540Y0130537D01*
X0038573Y0130336D01*
X0038611Y0130137D01*
X0038654Y0129939D01*
X0038702Y0129741D01*
X0038754Y0129545D01*
X0038811Y0129350D01*
X0038873Y0129157D01*
X0038940Y0128965D01*
X0039011Y0128775D01*
X0039086Y0128587D01*
X0039167Y0128401D01*
X0039252Y0128216D01*
X0039341Y0128034D01*
X0039435Y0127854D01*
X0039533Y0127676D01*
X0039635Y0127501D01*
X0039741Y0127328D01*
X0039852Y0127158D01*
X0039967Y0126990D01*
X0040086Y0126826D01*
X0040209Y0126664D01*
X0040335Y0126506D01*
X0040466Y0126350D01*
X0040600Y0126198D01*
X0040738Y0126049D01*
X0040879Y0125903D01*
X0041024Y0125761D01*
X0041173Y0125623D01*
X0041324Y0125488D01*
X0041479Y0125357D01*
X0041637Y0125230D01*
X0041799Y0125106D01*
X0041963Y0124987D01*
X0042130Y0124871D01*
X0042299Y0124760D01*
X0042472Y0124652D01*
X0042647Y0124549D01*
X0042824Y0124451D01*
X0042868Y0124534D01*
X0042693Y0124631D01*
X0042520Y0124733D01*
X0042350Y0124839D01*
X0042182Y0124949D01*
X0042017Y0125063D01*
X0041855Y0125182D01*
X0041695Y0125304D01*
X0041539Y0125430D01*
X0041386Y0125559D01*
X0041236Y0125693D01*
X0041089Y0125829D01*
X0040946Y0125970D01*
X0040806Y0126114D01*
X0040670Y0126261D01*
X0040537Y0126412D01*
X0040408Y0126565D01*
X0040283Y0126722D01*
X0040161Y0126882D01*
X0040044Y0127045D01*
X0039930Y0127210D01*
X0039821Y0127378D01*
X0039715Y0127549D01*
X0039614Y0127722D01*
X0039517Y0127898D01*
X0039425Y0128076D01*
X0039337Y0128256D01*
X0039253Y0128439D01*
X0039173Y0128623D01*
X0039098Y0128809D01*
X0039028Y0128997D01*
X0038962Y0129187D01*
X0038901Y0129378D01*
X0038845Y0129570D01*
X0038793Y0129764D01*
X0038746Y0129959D01*
X0038703Y0130155D01*
X0038666Y0130353D01*
X0038633Y0130551D01*
X0038605Y0130749D01*
X0038582Y0130949D01*
X0038564Y0131148D01*
X0038550Y0131349D01*
X0038542Y0131549D01*
X0038538Y0131750D01*
X0038632Y0131750D01*
X0038636Y0131551D01*
X0038644Y0131353D01*
X0038657Y0131155D01*
X0038676Y0130958D01*
X0038698Y0130761D01*
X0038726Y0130564D01*
X0038758Y0130369D01*
X0038796Y0130174D01*
X0038837Y0129980D01*
X0038884Y0129787D01*
X0038935Y0129595D01*
X0038991Y0129405D01*
X0039051Y0129216D01*
X0039116Y0129029D01*
X0039186Y0128843D01*
X0039260Y0128659D01*
X0039339Y0128477D01*
X0039422Y0128297D01*
X0039509Y0128118D01*
X0039600Y0127942D01*
X0039696Y0127769D01*
X0039796Y0127597D01*
X0039900Y0127429D01*
X0040008Y0127262D01*
X0040121Y0127099D01*
X0040237Y0126938D01*
X0040357Y0126780D01*
X0040481Y0126625D01*
X0040608Y0126473D01*
X0040739Y0126324D01*
X0040874Y0126179D01*
X0041012Y0126036D01*
X0041154Y0125898D01*
X0041299Y0125762D01*
X0041447Y0125630D01*
X0041599Y0125502D01*
X0041753Y0125378D01*
X0041910Y0125257D01*
X0042071Y0125140D01*
X0042234Y0125027D01*
X0042400Y0124919D01*
X0042568Y0124814D01*
X0042739Y0124713D01*
X0042912Y0124617D01*
X0042957Y0124699D01*
X0042785Y0124795D01*
X0042616Y0124894D01*
X0042450Y0124998D01*
X0042286Y0125106D01*
X0042125Y0125217D01*
X0041966Y0125333D01*
X0041811Y0125452D01*
X0041658Y0125575D01*
X0041509Y0125702D01*
X0041362Y0125832D01*
X0041219Y0125966D01*
X0041079Y0126103D01*
X0040942Y0126244D01*
X0040809Y0126387D01*
X0040679Y0126534D01*
X0040553Y0126685D01*
X0040431Y0126838D01*
X0040312Y0126994D01*
X0040197Y0127153D01*
X0040087Y0127315D01*
X0039980Y0127479D01*
X0039877Y0127646D01*
X0039778Y0127815D01*
X0039683Y0127987D01*
X0039593Y0128161D01*
X0039506Y0128337D01*
X0039425Y0128515D01*
X0039347Y0128695D01*
X0039274Y0128877D01*
X0039205Y0129060D01*
X0039141Y0129246D01*
X0039081Y0129432D01*
X0039026Y0129620D01*
X0038975Y0129810D01*
X0038929Y0130000D01*
X0038888Y0130192D01*
X0038851Y0130385D01*
X0038819Y0130578D01*
X0038792Y0130772D01*
X0038769Y0130967D01*
X0038751Y0131162D01*
X0038738Y0131358D01*
X0038730Y0131554D01*
X0038726Y0131750D01*
X0038820Y0131750D01*
X0038824Y0131556D01*
X0038832Y0131362D01*
X0038845Y0131169D01*
X0038863Y0130976D01*
X0038885Y0130784D01*
X0038912Y0130592D01*
X0038944Y0130401D01*
X0038980Y0130210D01*
X0039021Y0130021D01*
X0039066Y0129833D01*
X0039116Y0129646D01*
X0039171Y0129460D01*
X0039230Y0129275D01*
X0039293Y0129092D01*
X0039361Y0128911D01*
X0039434Y0128731D01*
X0039510Y0128553D01*
X0039591Y0128377D01*
X0039677Y0128203D01*
X0039766Y0128031D01*
X0039860Y0127861D01*
X0039957Y0127694D01*
X0040059Y0127529D01*
X0040165Y0127367D01*
X0040274Y0127207D01*
X0040388Y0127050D01*
X0040505Y0126896D01*
X0040626Y0126744D01*
X0040750Y0126596D01*
X0040878Y0126451D01*
X0041010Y0126308D01*
X0041145Y0126169D01*
X0041283Y0126034D01*
X0041425Y0125902D01*
X0041570Y0125773D01*
X0041718Y0125648D01*
X0041869Y0125526D01*
X0042022Y0125408D01*
X0042179Y0125294D01*
X0042338Y0125184D01*
X0042500Y0125078D01*
X0042665Y0124975D01*
X0042832Y0124877D01*
X0043001Y0124782D01*
X0043045Y0124865D01*
X0042878Y0124959D01*
X0042713Y0125056D01*
X0042550Y0125157D01*
X0042390Y0125262D01*
X0042233Y0125371D01*
X0042078Y0125484D01*
X0041926Y0125600D01*
X0041777Y0125720D01*
X0041631Y0125844D01*
X0041488Y0125971D01*
X0041348Y0126102D01*
X0041212Y0126236D01*
X0041078Y0126373D01*
X0040948Y0126514D01*
X0040821Y0126657D01*
X0040698Y0126804D01*
X0040579Y0126954D01*
X0040463Y0127106D01*
X0040351Y0127261D01*
X0040243Y0127419D01*
X0040138Y0127580D01*
X0040038Y0127743D01*
X0039941Y0127908D01*
X0039849Y0128075D01*
X0039761Y0128245D01*
X0039676Y0128417D01*
X0039596Y0128591D01*
X0039521Y0128767D01*
X0039449Y0128945D01*
X0039382Y0129124D01*
X0039319Y0129305D01*
X0039261Y0129487D01*
X0039207Y0129671D01*
X0039157Y0129856D01*
X0039113Y0130042D01*
X0039072Y0130229D01*
X0039036Y0130417D01*
X0039005Y0130606D01*
X0038978Y0130795D01*
X0038956Y0130985D01*
X0038939Y0131176D01*
X0038926Y0131367D01*
X0038918Y0131558D01*
X0038914Y0131750D01*
X0039008Y0131750D01*
X0039012Y0131561D01*
X0039020Y0131372D01*
X0039032Y0131183D01*
X0039050Y0130995D01*
X0039072Y0130807D01*
X0039098Y0130620D01*
X0039129Y0130433D01*
X0039164Y0130247D01*
X0039204Y0130062D01*
X0039249Y0129878D01*
X0039298Y0129696D01*
X0039351Y0129514D01*
X0039408Y0129334D01*
X0039470Y0129156D01*
X0039537Y0128978D01*
X0039607Y0128803D01*
X0039682Y0128629D01*
X0039761Y0128457D01*
X0039845Y0128288D01*
X0039932Y0128120D01*
X0040023Y0127954D01*
X0040119Y0127791D01*
X0040218Y0127630D01*
X0040321Y0127471D01*
X0040428Y0127315D01*
X0040539Y0127162D01*
X0040653Y0127011D01*
X0040771Y0126864D01*
X0040893Y0126719D01*
X0041018Y0126577D01*
X0041146Y0126438D01*
X0041278Y0126303D01*
X0041413Y0126170D01*
X0041551Y0126041D01*
X0041693Y0125915D01*
X0041837Y0125793D01*
X0041984Y0125674D01*
X0042134Y0125559D01*
X0042287Y0125448D01*
X0042443Y0125340D01*
X0042601Y0125236D01*
X0042761Y0125136D01*
X0042924Y0125040D01*
X0043089Y0124948D01*
X0043134Y0125031D01*
X0042970Y0125122D01*
X0042809Y0125217D01*
X0042651Y0125316D01*
X0042495Y0125418D01*
X0042341Y0125525D01*
X0042190Y0125635D01*
X0042042Y0125749D01*
X0041896Y0125866D01*
X0041754Y0125987D01*
X0041614Y0126111D01*
X0041478Y0126238D01*
X0041344Y0126369D01*
X0041214Y0126503D01*
X0041087Y0126640D01*
X0040964Y0126780D01*
X0040844Y0126923D01*
X0040727Y0127069D01*
X0040614Y0127218D01*
X0040505Y0127370D01*
X0040399Y0127524D01*
X0040297Y0127680D01*
X0040199Y0127839D01*
X0040105Y0128001D01*
X0040015Y0128164D01*
X0039928Y0128330D01*
X0039846Y0128498D01*
X0039768Y0128667D01*
X0039694Y0128839D01*
X0039625Y0129012D01*
X0039559Y0129187D01*
X0039498Y0129364D01*
X0039441Y0129542D01*
X0039388Y0129721D01*
X0039340Y0129901D01*
X0039296Y0130083D01*
X0039256Y0130266D01*
X0039221Y0130449D01*
X0039191Y0130633D01*
X0039165Y0130818D01*
X0039143Y0131004D01*
X0039126Y0131190D01*
X0039114Y0131376D01*
X0039106Y0131563D01*
X0039102Y0131750D01*
X0039196Y0131750D01*
X0039200Y0131565D01*
X0039208Y0131381D01*
X0039220Y0131197D01*
X0039237Y0131013D01*
X0039258Y0130830D01*
X0039284Y0130647D01*
X0039314Y0130465D01*
X0039349Y0130284D01*
X0039388Y0130104D01*
X0039431Y0129924D01*
X0039479Y0129746D01*
X0039531Y0129569D01*
X0039587Y0129393D01*
X0039647Y0129219D01*
X0039712Y0129046D01*
X0039781Y0128875D01*
X0039854Y0128706D01*
X0039931Y0128538D01*
X0040012Y0128372D01*
X0040098Y0128209D01*
X0040187Y0128047D01*
X0040280Y0127888D01*
X0040377Y0127731D01*
X0040477Y0127576D01*
X0040582Y0127424D01*
X0040690Y0127274D01*
X0040801Y0127127D01*
X0040916Y0126983D01*
X0041035Y0126842D01*
X0041157Y0126703D01*
X0041282Y0126568D01*
X0041411Y0126436D01*
X0041543Y0126306D01*
X0041677Y0126180D01*
X0041815Y0126058D01*
X0041956Y0125939D01*
X0042100Y0125823D01*
X0042246Y0125710D01*
X0042395Y0125602D01*
X0042547Y0125497D01*
X0042701Y0125395D01*
X0042858Y0125298D01*
X0043017Y0125204D01*
X0043178Y0125114D01*
X0051035Y0124489D02*
X0050589Y0125270D01*
X0050746Y0125363D01*
X0050900Y0125460D01*
X0051052Y0125561D01*
X0051201Y0125666D01*
X0051348Y0125774D01*
X0051493Y0125885D01*
X0051634Y0126000D01*
X0051773Y0126119D01*
X0051908Y0126241D01*
X0052041Y0126366D01*
X0052171Y0126494D01*
X0052297Y0126625D01*
X0052421Y0126759D01*
X0052541Y0126896D01*
X0052658Y0127036D01*
X0052771Y0127179D01*
X0052881Y0127325D01*
X0052987Y0127473D01*
X0053090Y0127624D01*
X0053189Y0127777D01*
X0053284Y0127932D01*
X0053375Y0128090D01*
X0053463Y0128250D01*
X0053547Y0128412D01*
X0053627Y0128575D01*
X0053703Y0128741D01*
X0053774Y0128909D01*
X0053842Y0129078D01*
X0053906Y0129249D01*
X0053965Y0129421D01*
X0054021Y0129595D01*
X0054072Y0129770D01*
X0054119Y0129946D01*
X0054161Y0130123D01*
X0054200Y0130302D01*
X0054234Y0130481D01*
X0054264Y0130661D01*
X0054289Y0130841D01*
X0054310Y0131022D01*
X0054326Y0131204D01*
X0054339Y0131386D01*
X0054346Y0131568D01*
X0054350Y0131750D01*
X0055249Y0131751D01*
X0055250Y0131750D01*
X0055246Y0131546D01*
X0055238Y0131342D01*
X0055224Y0131138D01*
X0055206Y0130934D01*
X0055182Y0130731D01*
X0055154Y0130529D01*
X0055121Y0130327D01*
X0055083Y0130127D01*
X0055040Y0129927D01*
X0054992Y0129728D01*
X0054940Y0129531D01*
X0054882Y0129335D01*
X0054820Y0129140D01*
X0054754Y0128947D01*
X0054682Y0128755D01*
X0054606Y0128566D01*
X0054526Y0128378D01*
X0054441Y0128192D01*
X0054351Y0128008D01*
X0054258Y0127827D01*
X0054159Y0127648D01*
X0054057Y0127471D01*
X0053950Y0127297D01*
X0053839Y0127125D01*
X0053724Y0126956D01*
X0053605Y0126790D01*
X0053482Y0126627D01*
X0053355Y0126467D01*
X0053224Y0126310D01*
X0053089Y0126156D01*
X0052951Y0126006D01*
X0052809Y0125859D01*
X0052664Y0125715D01*
X0052515Y0125575D01*
X0052363Y0125439D01*
X0052207Y0125306D01*
X0052049Y0125178D01*
X0051887Y0125053D01*
X0051722Y0124932D01*
X0051555Y0124815D01*
X0051384Y0124702D01*
X0051211Y0124593D01*
X0051036Y0124488D01*
X0050989Y0124570D01*
X0051163Y0124673D01*
X0051334Y0124781D01*
X0051502Y0124893D01*
X0051668Y0125008D01*
X0051831Y0125128D01*
X0051990Y0125252D01*
X0052147Y0125379D01*
X0052301Y0125510D01*
X0052451Y0125645D01*
X0052599Y0125783D01*
X0052742Y0125925D01*
X0052883Y0126071D01*
X0053019Y0126219D01*
X0053152Y0126371D01*
X0053282Y0126527D01*
X0053407Y0126685D01*
X0053529Y0126846D01*
X0053647Y0127010D01*
X0053761Y0127177D01*
X0053870Y0127347D01*
X0053976Y0127519D01*
X0054077Y0127694D01*
X0054175Y0127871D01*
X0054267Y0128050D01*
X0054356Y0128232D01*
X0054440Y0128416D01*
X0054520Y0128601D01*
X0054595Y0128789D01*
X0054665Y0128978D01*
X0054731Y0129169D01*
X0054792Y0129362D01*
X0054849Y0129556D01*
X0054901Y0129751D01*
X0054948Y0129947D01*
X0054990Y0130145D01*
X0055028Y0130343D01*
X0055061Y0130543D01*
X0055089Y0130743D01*
X0055112Y0130944D01*
X0055130Y0131145D01*
X0055144Y0131346D01*
X0055152Y0131548D01*
X0055156Y0131750D01*
X0055062Y0131750D01*
X0055058Y0131551D01*
X0055050Y0131351D01*
X0055037Y0131152D01*
X0055018Y0130953D01*
X0054996Y0130754D01*
X0054968Y0130557D01*
X0054935Y0130359D01*
X0054898Y0130163D01*
X0054856Y0129968D01*
X0054810Y0129774D01*
X0054758Y0129581D01*
X0054702Y0129389D01*
X0054642Y0129199D01*
X0054577Y0129010D01*
X0054507Y0128823D01*
X0054433Y0128637D01*
X0054354Y0128454D01*
X0054271Y0128272D01*
X0054183Y0128092D01*
X0054092Y0127915D01*
X0053996Y0127740D01*
X0053895Y0127567D01*
X0053791Y0127397D01*
X0053682Y0127229D01*
X0053570Y0127064D01*
X0053454Y0126902D01*
X0053333Y0126743D01*
X0053209Y0126586D01*
X0053081Y0126433D01*
X0052950Y0126282D01*
X0052814Y0126135D01*
X0052676Y0125992D01*
X0052534Y0125851D01*
X0052388Y0125714D01*
X0052239Y0125581D01*
X0052087Y0125451D01*
X0051932Y0125325D01*
X0051774Y0125203D01*
X0051613Y0125085D01*
X0051450Y0124971D01*
X0051283Y0124860D01*
X0051114Y0124754D01*
X0050943Y0124652D01*
X0050896Y0124733D01*
X0051066Y0124834D01*
X0051233Y0124939D01*
X0051397Y0125049D01*
X0051559Y0125162D01*
X0051718Y0125279D01*
X0051874Y0125399D01*
X0052028Y0125524D01*
X0052178Y0125652D01*
X0052325Y0125784D01*
X0052469Y0125919D01*
X0052609Y0126058D01*
X0052746Y0126200D01*
X0052880Y0126345D01*
X0053010Y0126494D01*
X0053136Y0126646D01*
X0053259Y0126800D01*
X0053378Y0126958D01*
X0053493Y0127118D01*
X0053604Y0127281D01*
X0053711Y0127447D01*
X0053815Y0127615D01*
X0053914Y0127786D01*
X0054009Y0127959D01*
X0054099Y0128135D01*
X0054186Y0128312D01*
X0054268Y0128492D01*
X0054346Y0128673D01*
X0054419Y0128856D01*
X0054488Y0129041D01*
X0054552Y0129228D01*
X0054612Y0129416D01*
X0054668Y0129606D01*
X0054718Y0129796D01*
X0054765Y0129988D01*
X0054806Y0130181D01*
X0054843Y0130375D01*
X0054875Y0130570D01*
X0054902Y0130766D01*
X0054925Y0130962D01*
X0054943Y0131159D01*
X0054956Y0131356D01*
X0054964Y0131553D01*
X0054968Y0131750D01*
X0054874Y0131750D01*
X0054870Y0131555D01*
X0054862Y0131360D01*
X0054849Y0131165D01*
X0054831Y0130971D01*
X0054809Y0130777D01*
X0054782Y0130584D01*
X0054750Y0130391D01*
X0054714Y0130200D01*
X0054673Y0130009D01*
X0054627Y0129819D01*
X0054577Y0129631D01*
X0054522Y0129443D01*
X0054463Y0129257D01*
X0054400Y0129073D01*
X0054331Y0128890D01*
X0054259Y0128709D01*
X0054182Y0128530D01*
X0054101Y0128352D01*
X0054015Y0128177D01*
X0053926Y0128003D01*
X0053832Y0127832D01*
X0053734Y0127664D01*
X0053632Y0127497D01*
X0053526Y0127333D01*
X0053416Y0127172D01*
X0053302Y0127014D01*
X0053185Y0126858D01*
X0053063Y0126705D01*
X0052938Y0126555D01*
X0052810Y0126408D01*
X0052678Y0126265D01*
X0052542Y0126124D01*
X0052403Y0125987D01*
X0052261Y0125853D01*
X0052116Y0125723D01*
X0051968Y0125596D01*
X0051816Y0125473D01*
X0051662Y0125354D01*
X0051505Y0125238D01*
X0051345Y0125127D01*
X0051182Y0125019D01*
X0051017Y0124915D01*
X0050849Y0124815D01*
X0050803Y0124896D01*
X0050968Y0124995D01*
X0051132Y0125098D01*
X0051292Y0125205D01*
X0051450Y0125315D01*
X0051606Y0125429D01*
X0051758Y0125547D01*
X0051908Y0125669D01*
X0052054Y0125794D01*
X0052198Y0125923D01*
X0052338Y0126055D01*
X0052476Y0126190D01*
X0052610Y0126329D01*
X0052740Y0126471D01*
X0052867Y0126616D01*
X0052991Y0126764D01*
X0053110Y0126915D01*
X0053227Y0127069D01*
X0053339Y0127226D01*
X0053448Y0127385D01*
X0053552Y0127547D01*
X0053653Y0127712D01*
X0053750Y0127878D01*
X0053843Y0128048D01*
X0053931Y0128219D01*
X0054016Y0128392D01*
X0054096Y0128568D01*
X0054172Y0128745D01*
X0054244Y0128924D01*
X0054311Y0129105D01*
X0054374Y0129287D01*
X0054432Y0129471D01*
X0054486Y0129656D01*
X0054536Y0129842D01*
X0054581Y0130030D01*
X0054622Y0130218D01*
X0054658Y0130407D01*
X0054689Y0130598D01*
X0054716Y0130789D01*
X0054738Y0130980D01*
X0054755Y0131172D01*
X0054768Y0131365D01*
X0054776Y0131557D01*
X0054780Y0131750D01*
X0054686Y0131750D01*
X0054682Y0131560D01*
X0054674Y0131369D01*
X0054662Y0131179D01*
X0054644Y0130989D01*
X0054622Y0130800D01*
X0054596Y0130612D01*
X0054565Y0130424D01*
X0054529Y0130236D01*
X0054489Y0130050D01*
X0054445Y0129865D01*
X0054396Y0129681D01*
X0054342Y0129498D01*
X0054285Y0129316D01*
X0054222Y0129136D01*
X0054156Y0128958D01*
X0054085Y0128781D01*
X0054010Y0128606D01*
X0053931Y0128432D01*
X0053847Y0128261D01*
X0053760Y0128092D01*
X0053668Y0127925D01*
X0053572Y0127760D01*
X0053473Y0127597D01*
X0053369Y0127437D01*
X0053262Y0127280D01*
X0053151Y0127125D01*
X0053036Y0126973D01*
X0052918Y0126824D01*
X0052796Y0126678D01*
X0052670Y0126534D01*
X0052541Y0126394D01*
X0052409Y0126257D01*
X0052273Y0126123D01*
X0052135Y0125992D01*
X0051993Y0125865D01*
X0051848Y0125741D01*
X0051700Y0125621D01*
X0051549Y0125505D01*
X0051396Y0125392D01*
X0051240Y0125283D01*
X0051081Y0125177D01*
X0050920Y0125076D01*
X0050756Y0124978D01*
X0050709Y0125060D01*
X0050871Y0125156D01*
X0051030Y0125256D01*
X0051187Y0125360D01*
X0051342Y0125468D01*
X0051493Y0125580D01*
X0051642Y0125695D01*
X0051788Y0125814D01*
X0051931Y0125936D01*
X0052071Y0126062D01*
X0052208Y0126191D01*
X0052342Y0126323D01*
X0052473Y0126459D01*
X0052600Y0126597D01*
X0052724Y0126739D01*
X0052845Y0126883D01*
X0052962Y0127031D01*
X0053075Y0127181D01*
X0053185Y0127334D01*
X0053291Y0127490D01*
X0053393Y0127648D01*
X0053492Y0127808D01*
X0053586Y0127971D01*
X0053677Y0128136D01*
X0053763Y0128303D01*
X0053846Y0128472D01*
X0053924Y0128643D01*
X0053998Y0128816D01*
X0054068Y0128991D01*
X0054134Y0129168D01*
X0054195Y0129346D01*
X0054252Y0129525D01*
X0054305Y0129706D01*
X0054354Y0129888D01*
X0054398Y0130071D01*
X0054437Y0130255D01*
X0054472Y0130440D01*
X0054503Y0130625D01*
X0054529Y0130812D01*
X0054551Y0130999D01*
X0054568Y0131186D01*
X0054580Y0131374D01*
X0054588Y0131562D01*
X0054592Y0131750D01*
X0054498Y0131750D01*
X0054494Y0131564D01*
X0054486Y0131379D01*
X0054474Y0131193D01*
X0054457Y0131008D01*
X0054436Y0130823D01*
X0054410Y0130639D01*
X0054380Y0130456D01*
X0054345Y0130273D01*
X0054306Y0130091D01*
X0054262Y0129910D01*
X0054215Y0129731D01*
X0054162Y0129552D01*
X0054106Y0129375D01*
X0054045Y0129199D01*
X0053980Y0129025D01*
X0053911Y0128852D01*
X0053838Y0128681D01*
X0053761Y0128512D01*
X0053679Y0128345D01*
X0053594Y0128180D01*
X0053504Y0128017D01*
X0053411Y0127856D01*
X0053314Y0127698D01*
X0053213Y0127542D01*
X0053108Y0127388D01*
X0053000Y0127237D01*
X0052888Y0127088D01*
X0052772Y0126943D01*
X0052653Y0126800D01*
X0052531Y0126660D01*
X0052405Y0126523D01*
X0052276Y0126389D01*
X0052143Y0126259D01*
X0052008Y0126131D01*
X0051870Y0126007D01*
X0051728Y0125886D01*
X0051584Y0125769D01*
X0051437Y0125655D01*
X0051287Y0125545D01*
X0051135Y0125438D01*
X0050980Y0125336D01*
X0050822Y0125237D01*
X0050663Y0125141D01*
X0050616Y0125223D01*
X0050774Y0125317D01*
X0050929Y0125415D01*
X0051082Y0125516D01*
X0051233Y0125622D01*
X0051381Y0125731D01*
X0051526Y0125843D01*
X0051668Y0125959D01*
X0051808Y0126078D01*
X0051945Y0126201D01*
X0052078Y0126327D01*
X0052209Y0126456D01*
X0052337Y0126588D01*
X0052461Y0126723D01*
X0052582Y0126861D01*
X0052699Y0127002D01*
X0052813Y0127146D01*
X0052924Y0127293D01*
X0053031Y0127442D01*
X0053135Y0127594D01*
X0053234Y0127748D01*
X0053330Y0127904D01*
X0053422Y0128063D01*
X0053511Y0128224D01*
X0053595Y0128387D01*
X0053676Y0128552D01*
X0053752Y0128719D01*
X0053824Y0128888D01*
X0053893Y0129059D01*
X0053957Y0129231D01*
X0054017Y0129404D01*
X0054073Y0129579D01*
X0054124Y0129756D01*
X0054171Y0129933D01*
X0054214Y0130112D01*
X0054253Y0130291D01*
X0054287Y0130472D01*
X0054317Y0130653D01*
X0054342Y0130835D01*
X0054364Y0131017D01*
X0054380Y0131200D01*
X0054393Y0131383D01*
X0054400Y0131567D01*
X0054404Y0131750D01*
X0055249Y0131849D02*
X0054349Y0131849D01*
X0054350Y0131850D02*
X0054346Y0132034D01*
X0054338Y0132219D01*
X0054326Y0132403D01*
X0054309Y0132586D01*
X0054287Y0132770D01*
X0054262Y0132952D01*
X0054231Y0133134D01*
X0054196Y0133315D01*
X0054157Y0133496D01*
X0054113Y0133675D01*
X0054065Y0133853D01*
X0054013Y0134030D01*
X0053956Y0134206D01*
X0053896Y0134380D01*
X0053830Y0134552D01*
X0053761Y0134723D01*
X0053688Y0134893D01*
X0053610Y0135060D01*
X0053528Y0135225D01*
X0053443Y0135389D01*
X0053353Y0135550D01*
X0053259Y0135709D01*
X0053162Y0135866D01*
X0053061Y0136020D01*
X0052956Y0136172D01*
X0052847Y0136321D01*
X0052735Y0136467D01*
X0052619Y0136611D01*
X0052500Y0136751D01*
X0052377Y0136889D01*
X0052251Y0137024D01*
X0052122Y0137156D01*
X0051989Y0137284D01*
X0051854Y0137409D01*
X0051715Y0137531D01*
X0052296Y0138218D01*
X0052452Y0138082D01*
X0052604Y0137941D01*
X0052753Y0137797D01*
X0052898Y0137650D01*
X0053039Y0137499D01*
X0053176Y0137345D01*
X0053310Y0137187D01*
X0053440Y0137026D01*
X0053566Y0136862D01*
X0053688Y0136695D01*
X0053806Y0136525D01*
X0053919Y0136352D01*
X0054028Y0136176D01*
X0054133Y0135998D01*
X0054234Y0135817D01*
X0054330Y0135634D01*
X0054422Y0135449D01*
X0054509Y0135261D01*
X0054591Y0135071D01*
X0054669Y0134880D01*
X0054742Y0134686D01*
X0054810Y0134491D01*
X0054874Y0134294D01*
X0054932Y0134096D01*
X0054986Y0133896D01*
X0055035Y0133695D01*
X0055079Y0133493D01*
X0055118Y0133290D01*
X0055152Y0133086D01*
X0055181Y0132881D01*
X0055205Y0132676D01*
X0055223Y0132470D01*
X0055237Y0132263D01*
X0055246Y0132057D01*
X0055250Y0131850D01*
X0055156Y0131850D01*
X0055152Y0132054D01*
X0055143Y0132259D01*
X0055130Y0132463D01*
X0055111Y0132666D01*
X0055087Y0132869D01*
X0055059Y0133072D01*
X0055025Y0133274D01*
X0054987Y0133474D01*
X0054943Y0133674D01*
X0054895Y0133873D01*
X0054842Y0134070D01*
X0054784Y0134267D01*
X0054721Y0134461D01*
X0054653Y0134654D01*
X0054581Y0134846D01*
X0054504Y0135035D01*
X0054423Y0135223D01*
X0054337Y0135408D01*
X0054246Y0135591D01*
X0054151Y0135773D01*
X0054052Y0135951D01*
X0053948Y0136127D01*
X0053840Y0136301D01*
X0053728Y0136472D01*
X0053611Y0136640D01*
X0053491Y0136805D01*
X0053366Y0136968D01*
X0053238Y0137127D01*
X0053106Y0137283D01*
X0052970Y0137435D01*
X0052830Y0137585D01*
X0052687Y0137730D01*
X0052540Y0137873D01*
X0052389Y0138011D01*
X0052236Y0138146D01*
X0052175Y0138075D01*
X0052327Y0137941D01*
X0052476Y0137804D01*
X0052621Y0137663D01*
X0052762Y0137519D01*
X0052901Y0137372D01*
X0053035Y0137221D01*
X0053166Y0137067D01*
X0053293Y0136909D01*
X0053416Y0136749D01*
X0053535Y0136585D01*
X0053650Y0136419D01*
X0053761Y0136250D01*
X0053868Y0136079D01*
X0053970Y0135904D01*
X0054069Y0135728D01*
X0054163Y0135549D01*
X0054252Y0135367D01*
X0054337Y0135184D01*
X0054418Y0134999D01*
X0054494Y0134811D01*
X0054565Y0134622D01*
X0054632Y0134431D01*
X0054694Y0134239D01*
X0054751Y0134045D01*
X0054804Y0133850D01*
X0054851Y0133653D01*
X0054894Y0133456D01*
X0054932Y0133257D01*
X0054966Y0133058D01*
X0054994Y0132858D01*
X0055017Y0132657D01*
X0055036Y0132456D01*
X0055050Y0132254D01*
X0055058Y0132052D01*
X0055062Y0131850D01*
X0054968Y0131850D01*
X0054964Y0132050D01*
X0054956Y0132249D01*
X0054942Y0132449D01*
X0054924Y0132648D01*
X0054901Y0132846D01*
X0054873Y0133044D01*
X0054840Y0133241D01*
X0054802Y0133437D01*
X0054760Y0133633D01*
X0054713Y0133827D01*
X0054661Y0134020D01*
X0054604Y0134211D01*
X0054543Y0134402D01*
X0054477Y0134590D01*
X0054406Y0134777D01*
X0054331Y0134962D01*
X0054251Y0135146D01*
X0054167Y0135327D01*
X0054079Y0135506D01*
X0053986Y0135683D01*
X0053889Y0135858D01*
X0053787Y0136030D01*
X0053682Y0136199D01*
X0053572Y0136367D01*
X0053458Y0136531D01*
X0053341Y0136692D01*
X0053219Y0136851D01*
X0053094Y0137006D01*
X0052964Y0137159D01*
X0052831Y0137308D01*
X0052695Y0137454D01*
X0052555Y0137596D01*
X0052411Y0137735D01*
X0052264Y0137871D01*
X0052114Y0138003D01*
X0052054Y0137931D01*
X0052202Y0137801D01*
X0052347Y0137667D01*
X0052489Y0137529D01*
X0052627Y0137388D01*
X0052762Y0137244D01*
X0052894Y0137097D01*
X0053021Y0136946D01*
X0053145Y0136792D01*
X0053266Y0136636D01*
X0053382Y0136476D01*
X0053494Y0136314D01*
X0053603Y0136149D01*
X0053707Y0135981D01*
X0053807Y0135811D01*
X0053903Y0135638D01*
X0053995Y0135463D01*
X0054083Y0135286D01*
X0054166Y0135107D01*
X0054244Y0134926D01*
X0054319Y0134743D01*
X0054388Y0134558D01*
X0054453Y0134372D01*
X0054514Y0134184D01*
X0054570Y0133994D01*
X0054621Y0133804D01*
X0054668Y0133612D01*
X0054710Y0133419D01*
X0054747Y0133225D01*
X0054780Y0133030D01*
X0054807Y0132834D01*
X0054830Y0132638D01*
X0054848Y0132442D01*
X0054862Y0132245D01*
X0054870Y0132047D01*
X0054874Y0131850D01*
X0054780Y0131850D01*
X0054776Y0132045D01*
X0054768Y0132240D01*
X0054755Y0132435D01*
X0054737Y0132629D01*
X0054714Y0132823D01*
X0054687Y0133016D01*
X0054655Y0133209D01*
X0054618Y0133400D01*
X0054576Y0133591D01*
X0054530Y0133781D01*
X0054480Y0133969D01*
X0054424Y0134156D01*
X0054364Y0134342D01*
X0054300Y0134526D01*
X0054231Y0134709D01*
X0054158Y0134890D01*
X0054080Y0135069D01*
X0053998Y0135246D01*
X0053911Y0135421D01*
X0053821Y0135593D01*
X0053726Y0135764D01*
X0053627Y0135932D01*
X0053524Y0136098D01*
X0053417Y0136261D01*
X0053306Y0136422D01*
X0053191Y0136579D01*
X0053072Y0136734D01*
X0052949Y0136886D01*
X0052823Y0137035D01*
X0052693Y0137181D01*
X0052560Y0137323D01*
X0052423Y0137462D01*
X0052283Y0137598D01*
X0052139Y0137730D01*
X0051993Y0137859D01*
X0051932Y0137787D01*
X0052077Y0137660D01*
X0052219Y0137529D01*
X0052357Y0137395D01*
X0052492Y0137258D01*
X0052624Y0137117D01*
X0052752Y0136973D01*
X0052877Y0136826D01*
X0052998Y0136676D01*
X0053115Y0136523D01*
X0053229Y0136367D01*
X0053339Y0136208D01*
X0053445Y0136047D01*
X0053546Y0135883D01*
X0053644Y0135717D01*
X0053738Y0135549D01*
X0053828Y0135378D01*
X0053913Y0135205D01*
X0053994Y0135030D01*
X0054071Y0134853D01*
X0054143Y0134675D01*
X0054212Y0134494D01*
X0054275Y0134312D01*
X0054334Y0134129D01*
X0054389Y0133944D01*
X0054439Y0133758D01*
X0054485Y0133570D01*
X0054526Y0133382D01*
X0054562Y0133192D01*
X0054594Y0133002D01*
X0054621Y0132811D01*
X0054643Y0132620D01*
X0054661Y0132428D01*
X0054674Y0132235D01*
X0054682Y0132043D01*
X0054686Y0131850D01*
X0054592Y0131850D01*
X0054588Y0132040D01*
X0054580Y0132231D01*
X0054567Y0132421D01*
X0054550Y0132610D01*
X0054528Y0132800D01*
X0054501Y0132988D01*
X0054470Y0133176D01*
X0054434Y0133363D01*
X0054393Y0133549D01*
X0054348Y0133734D01*
X0054299Y0133918D01*
X0054244Y0134101D01*
X0054186Y0134282D01*
X0054123Y0134462D01*
X0054056Y0134640D01*
X0053984Y0134817D01*
X0053908Y0134992D01*
X0053828Y0135164D01*
X0053744Y0135335D01*
X0053655Y0135504D01*
X0053563Y0135670D01*
X0053466Y0135835D01*
X0053366Y0135996D01*
X0053261Y0136156D01*
X0053153Y0136312D01*
X0053040Y0136466D01*
X0052924Y0136617D01*
X0052805Y0136766D01*
X0052682Y0136911D01*
X0052555Y0137053D01*
X0052425Y0137192D01*
X0052291Y0137328D01*
X0052155Y0137461D01*
X0052015Y0137590D01*
X0051871Y0137716D01*
X0051811Y0137644D01*
X0051952Y0137520D01*
X0052090Y0137392D01*
X0052225Y0137261D01*
X0052357Y0137127D01*
X0052486Y0136990D01*
X0052611Y0136849D01*
X0052733Y0136705D01*
X0052851Y0136559D01*
X0052965Y0136410D01*
X0053076Y0136258D01*
X0053183Y0136103D01*
X0053286Y0135946D01*
X0053386Y0135786D01*
X0053481Y0135624D01*
X0053573Y0135459D01*
X0053660Y0135293D01*
X0053743Y0135124D01*
X0053823Y0134953D01*
X0053898Y0134781D01*
X0053968Y0134606D01*
X0054035Y0134430D01*
X0054097Y0134253D01*
X0054155Y0134073D01*
X0054208Y0133893D01*
X0054257Y0133711D01*
X0054301Y0133529D01*
X0054341Y0133345D01*
X0054377Y0133160D01*
X0054408Y0132974D01*
X0054434Y0132788D01*
X0054456Y0132601D01*
X0054473Y0132414D01*
X0054486Y0132226D01*
X0054494Y0132038D01*
X0054498Y0131850D01*
X0054404Y0131850D01*
X0054400Y0132036D01*
X0054392Y0132221D01*
X0054380Y0132407D01*
X0054363Y0132592D01*
X0054341Y0132776D01*
X0054315Y0132960D01*
X0054284Y0133144D01*
X0054249Y0133326D01*
X0054210Y0133508D01*
X0054166Y0133688D01*
X0054117Y0133868D01*
X0054065Y0134046D01*
X0054008Y0134223D01*
X0053946Y0134398D01*
X0053881Y0134572D01*
X0053811Y0134744D01*
X0053737Y0134915D01*
X0053659Y0135083D01*
X0053576Y0135250D01*
X0053490Y0135414D01*
X0053400Y0135577D01*
X0053305Y0135737D01*
X0053207Y0135895D01*
X0053105Y0136050D01*
X0053000Y0136203D01*
X0052890Y0136353D01*
X0052777Y0136501D01*
X0052660Y0136645D01*
X0052540Y0136787D01*
X0052417Y0136926D01*
X0052290Y0137062D01*
X0052160Y0137194D01*
X0052026Y0137323D01*
X0051890Y0137450D01*
X0051750Y0137572D01*
X0041352Y0138259D02*
X0041929Y0137567D01*
X0041928Y0137568D02*
X0041791Y0137449D01*
X0041657Y0137328D01*
X0041526Y0137203D01*
X0041398Y0137075D01*
X0041274Y0136944D01*
X0041152Y0136810D01*
X0041033Y0136673D01*
X0040918Y0136534D01*
X0040807Y0136391D01*
X0040698Y0136246D01*
X0040593Y0136099D01*
X0040492Y0135949D01*
X0040395Y0135797D01*
X0040301Y0135642D01*
X0040210Y0135485D01*
X0040124Y0135326D01*
X0040041Y0135165D01*
X0039963Y0135002D01*
X0039888Y0134837D01*
X0039817Y0134671D01*
X0039750Y0134503D01*
X0039688Y0134333D01*
X0039629Y0134162D01*
X0039574Y0133989D01*
X0039524Y0133816D01*
X0039478Y0133641D01*
X0039436Y0133465D01*
X0039398Y0133288D01*
X0039365Y0133110D01*
X0039335Y0132931D01*
X0039310Y0132752D01*
X0039290Y0132572D01*
X0039273Y0132392D01*
X0039261Y0132212D01*
X0039254Y0132031D01*
X0039250Y0131850D01*
X0038351Y0131849D01*
X0038350Y0131850D01*
X0038354Y0132053D01*
X0038362Y0132255D01*
X0038376Y0132458D01*
X0038394Y0132660D01*
X0038417Y0132861D01*
X0038445Y0133062D01*
X0038478Y0133262D01*
X0038515Y0133462D01*
X0038557Y0133660D01*
X0038604Y0133858D01*
X0038656Y0134054D01*
X0038713Y0134248D01*
X0038774Y0134442D01*
X0038839Y0134634D01*
X0038910Y0134824D01*
X0038985Y0135013D01*
X0039064Y0135199D01*
X0039148Y0135384D01*
X0039236Y0135567D01*
X0039329Y0135747D01*
X0039425Y0135925D01*
X0039527Y0136101D01*
X0039632Y0136274D01*
X0039741Y0136445D01*
X0039855Y0136613D01*
X0039972Y0136779D01*
X0040094Y0136941D01*
X0040219Y0137101D01*
X0040348Y0137257D01*
X0040481Y0137410D01*
X0040618Y0137560D01*
X0040758Y0137707D01*
X0040901Y0137850D01*
X0041048Y0137990D01*
X0041198Y0138127D01*
X0041352Y0138259D01*
X0041412Y0138187D01*
X0041260Y0138056D01*
X0041112Y0137921D01*
X0040967Y0137783D01*
X0040825Y0137641D01*
X0040686Y0137496D01*
X0040551Y0137348D01*
X0040420Y0137196D01*
X0040292Y0137041D01*
X0040168Y0136884D01*
X0040048Y0136723D01*
X0039932Y0136560D01*
X0039820Y0136393D01*
X0039712Y0136225D01*
X0039607Y0136053D01*
X0039507Y0135879D01*
X0039412Y0135703D01*
X0039320Y0135525D01*
X0039233Y0135344D01*
X0039150Y0135161D01*
X0039071Y0134977D01*
X0038997Y0134791D01*
X0038928Y0134602D01*
X0038863Y0134413D01*
X0038803Y0134221D01*
X0038747Y0134029D01*
X0038696Y0133835D01*
X0038649Y0133640D01*
X0038607Y0133444D01*
X0038570Y0133247D01*
X0038538Y0133049D01*
X0038510Y0132850D01*
X0038487Y0132651D01*
X0038469Y0132451D01*
X0038456Y0132251D01*
X0038448Y0132050D01*
X0038444Y0131850D01*
X0038538Y0131850D01*
X0038542Y0132048D01*
X0038550Y0132246D01*
X0038563Y0132444D01*
X0038581Y0132642D01*
X0038604Y0132839D01*
X0038631Y0133035D01*
X0038663Y0133231D01*
X0038699Y0133425D01*
X0038741Y0133619D01*
X0038787Y0133812D01*
X0038837Y0134004D01*
X0038893Y0134194D01*
X0038952Y0134383D01*
X0039017Y0134571D01*
X0039085Y0134757D01*
X0039158Y0134941D01*
X0039236Y0135124D01*
X0039318Y0135304D01*
X0039404Y0135483D01*
X0039495Y0135659D01*
X0039589Y0135833D01*
X0039688Y0136005D01*
X0039791Y0136175D01*
X0039898Y0136342D01*
X0040009Y0136506D01*
X0040124Y0136667D01*
X0040243Y0136826D01*
X0040365Y0136982D01*
X0040491Y0137135D01*
X0040621Y0137285D01*
X0040755Y0137432D01*
X0040892Y0137575D01*
X0041032Y0137715D01*
X0041175Y0137852D01*
X0041322Y0137985D01*
X0041472Y0138115D01*
X0041532Y0138043D01*
X0041384Y0137914D01*
X0041239Y0137783D01*
X0041097Y0137648D01*
X0040959Y0137509D01*
X0040823Y0137367D01*
X0040691Y0137222D01*
X0040563Y0137074D01*
X0040438Y0136923D01*
X0040317Y0136769D01*
X0040200Y0136612D01*
X0040086Y0136452D01*
X0039977Y0136290D01*
X0039871Y0136125D01*
X0039769Y0135957D01*
X0039671Y0135787D01*
X0039578Y0135615D01*
X0039488Y0135441D01*
X0039403Y0135264D01*
X0039322Y0135086D01*
X0039245Y0134906D01*
X0039173Y0134723D01*
X0039105Y0134540D01*
X0039042Y0134354D01*
X0038983Y0134167D01*
X0038928Y0133979D01*
X0038878Y0133790D01*
X0038833Y0133599D01*
X0038792Y0133407D01*
X0038755Y0133215D01*
X0038724Y0133021D01*
X0038697Y0132827D01*
X0038675Y0132632D01*
X0038657Y0132437D01*
X0038644Y0132242D01*
X0038636Y0132046D01*
X0038632Y0131850D01*
X0038726Y0131850D01*
X0038730Y0132044D01*
X0038738Y0132237D01*
X0038751Y0132430D01*
X0038768Y0132623D01*
X0038790Y0132816D01*
X0038817Y0133008D01*
X0038848Y0133199D01*
X0038884Y0133389D01*
X0038924Y0133579D01*
X0038969Y0133767D01*
X0039019Y0133954D01*
X0039073Y0134140D01*
X0039131Y0134325D01*
X0039194Y0134508D01*
X0039261Y0134690D01*
X0039332Y0134870D01*
X0039408Y0135048D01*
X0039488Y0135225D01*
X0039572Y0135399D01*
X0039661Y0135571D01*
X0039753Y0135741D01*
X0039850Y0135909D01*
X0039951Y0136075D01*
X0040055Y0136238D01*
X0040163Y0136398D01*
X0040276Y0136556D01*
X0040392Y0136711D01*
X0040511Y0136864D01*
X0040635Y0137013D01*
X0040761Y0137160D01*
X0040892Y0137303D01*
X0041025Y0137443D01*
X0041162Y0137580D01*
X0041303Y0137713D01*
X0041446Y0137844D01*
X0041593Y0137970D01*
X0041653Y0137898D01*
X0041508Y0137773D01*
X0041366Y0137644D01*
X0041228Y0137512D01*
X0041092Y0137377D01*
X0040960Y0137238D01*
X0040831Y0137097D01*
X0040706Y0136952D01*
X0040584Y0136805D01*
X0040466Y0136654D01*
X0040351Y0136501D01*
X0040241Y0136345D01*
X0040133Y0136186D01*
X0040030Y0136025D01*
X0039931Y0135861D01*
X0039835Y0135695D01*
X0039744Y0135527D01*
X0039657Y0135357D01*
X0039573Y0135185D01*
X0039494Y0135010D01*
X0039419Y0134834D01*
X0039349Y0134656D01*
X0039282Y0134477D01*
X0039220Y0134296D01*
X0039163Y0134113D01*
X0039109Y0133929D01*
X0039060Y0133744D01*
X0039016Y0133558D01*
X0038976Y0133371D01*
X0038941Y0133183D01*
X0038910Y0132994D01*
X0038883Y0132804D01*
X0038862Y0132614D01*
X0038844Y0132424D01*
X0038832Y0132233D01*
X0038824Y0132041D01*
X0038820Y0131850D01*
X0038914Y0131850D01*
X0038918Y0132039D01*
X0038926Y0132228D01*
X0038938Y0132417D01*
X0038955Y0132605D01*
X0038977Y0132793D01*
X0039003Y0132980D01*
X0039033Y0133167D01*
X0039068Y0133353D01*
X0039108Y0133538D01*
X0039152Y0133722D01*
X0039200Y0133904D01*
X0039253Y0134086D01*
X0039310Y0134266D01*
X0039371Y0134445D01*
X0039437Y0134623D01*
X0039506Y0134799D01*
X0039580Y0134973D01*
X0039658Y0135145D01*
X0039741Y0135315D01*
X0039827Y0135483D01*
X0039917Y0135649D01*
X0040012Y0135813D01*
X0040110Y0135975D01*
X0040212Y0136134D01*
X0040318Y0136291D01*
X0040427Y0136445D01*
X0040541Y0136597D01*
X0040657Y0136745D01*
X0040778Y0136891D01*
X0040901Y0137034D01*
X0041029Y0137174D01*
X0041159Y0137311D01*
X0041293Y0137445D01*
X0041430Y0137575D01*
X0041570Y0137702D01*
X0041713Y0137826D01*
X0041773Y0137754D01*
X0041632Y0137631D01*
X0041494Y0137506D01*
X0041358Y0137377D01*
X0041226Y0137245D01*
X0041097Y0137110D01*
X0040972Y0136971D01*
X0040849Y0136830D01*
X0040730Y0136686D01*
X0040615Y0136539D01*
X0040503Y0136390D01*
X0040395Y0136237D01*
X0040290Y0136082D01*
X0040190Y0135925D01*
X0040093Y0135765D01*
X0039999Y0135604D01*
X0039910Y0135439D01*
X0039825Y0135273D01*
X0039744Y0135105D01*
X0039666Y0134935D01*
X0039593Y0134763D01*
X0039524Y0134589D01*
X0039460Y0134414D01*
X0039399Y0134237D01*
X0039343Y0134059D01*
X0039291Y0133880D01*
X0039243Y0133699D01*
X0039200Y0133517D01*
X0039161Y0133335D01*
X0039126Y0133151D01*
X0039096Y0132967D01*
X0039070Y0132782D01*
X0039049Y0132596D01*
X0039032Y0132410D01*
X0039020Y0132223D01*
X0039012Y0132037D01*
X0039008Y0131850D01*
X0039102Y0131850D01*
X0039106Y0132034D01*
X0039113Y0132219D01*
X0039126Y0132403D01*
X0039142Y0132587D01*
X0039163Y0132770D01*
X0039189Y0132953D01*
X0039219Y0133135D01*
X0039253Y0133316D01*
X0039291Y0133497D01*
X0039334Y0133676D01*
X0039381Y0133855D01*
X0039433Y0134032D01*
X0039488Y0134208D01*
X0039548Y0134383D01*
X0039612Y0134556D01*
X0039680Y0134727D01*
X0039752Y0134897D01*
X0039829Y0135065D01*
X0039909Y0135231D01*
X0039993Y0135395D01*
X0040081Y0135558D01*
X0040173Y0135718D01*
X0040269Y0135875D01*
X0040369Y0136031D01*
X0040472Y0136184D01*
X0040579Y0136334D01*
X0040689Y0136482D01*
X0040803Y0136627D01*
X0040921Y0136769D01*
X0041042Y0136909D01*
X0041166Y0137045D01*
X0041293Y0137179D01*
X0041424Y0137309D01*
X0041557Y0137437D01*
X0041694Y0137561D01*
X0041833Y0137681D01*
X0041894Y0137609D01*
X0041756Y0137490D01*
X0041621Y0137367D01*
X0041489Y0137242D01*
X0041360Y0137113D01*
X0041234Y0136981D01*
X0041112Y0136846D01*
X0040992Y0136708D01*
X0040876Y0136568D01*
X0040764Y0136424D01*
X0040655Y0136278D01*
X0040549Y0136130D01*
X0040447Y0135979D01*
X0040349Y0135825D01*
X0040254Y0135670D01*
X0040163Y0135512D01*
X0040076Y0135351D01*
X0039993Y0135189D01*
X0039914Y0135025D01*
X0039839Y0134859D01*
X0039767Y0134691D01*
X0039700Y0134522D01*
X0039637Y0134351D01*
X0039578Y0134179D01*
X0039523Y0134005D01*
X0039472Y0133830D01*
X0039425Y0133654D01*
X0039383Y0133476D01*
X0039345Y0133298D01*
X0039311Y0133119D01*
X0039282Y0132939D01*
X0039257Y0132759D01*
X0039236Y0132578D01*
X0039219Y0132396D01*
X0039207Y0132214D01*
X0039200Y0132032D01*
X0039196Y0131850D01*
X0093351Y0111750D02*
X0094251Y0111750D01*
X0094250Y0111750D02*
X0094254Y0111567D01*
X0094261Y0111384D01*
X0094274Y0111201D01*
X0094291Y0111018D01*
X0094312Y0110836D01*
X0094337Y0110655D01*
X0094367Y0110474D01*
X0094402Y0110294D01*
X0094440Y0110115D01*
X0094483Y0109937D01*
X0094531Y0109760D01*
X0094582Y0109585D01*
X0094638Y0109410D01*
X0094698Y0109237D01*
X0094763Y0109066D01*
X0094831Y0108896D01*
X0094903Y0108727D01*
X0094980Y0108561D01*
X0095061Y0108397D01*
X0095145Y0108234D01*
X0095234Y0108074D01*
X0095326Y0107915D01*
X0095422Y0107759D01*
X0095522Y0107606D01*
X0095626Y0107455D01*
X0095733Y0107306D01*
X0095844Y0107160D01*
X0095958Y0107017D01*
X0096076Y0106877D01*
X0096197Y0106740D01*
X0096321Y0106605D01*
X0096449Y0106474D01*
X0096580Y0106345D01*
X0096714Y0106220D01*
X0096850Y0106099D01*
X0096990Y0105980D01*
X0097133Y0105865D01*
X0097278Y0105754D01*
X0097426Y0105646D01*
X0097577Y0105542D01*
X0097730Y0105441D01*
X0097885Y0105344D01*
X0098043Y0105251D01*
X0098203Y0105162D01*
X0097780Y0104368D01*
X0097600Y0104468D01*
X0097423Y0104572D01*
X0097249Y0104680D01*
X0097077Y0104793D01*
X0096909Y0104910D01*
X0096743Y0105031D01*
X0096580Y0105155D01*
X0096420Y0105284D01*
X0096263Y0105417D01*
X0096110Y0105553D01*
X0095960Y0105693D01*
X0095813Y0105837D01*
X0095670Y0105984D01*
X0095530Y0106135D01*
X0095395Y0106289D01*
X0095263Y0106446D01*
X0095135Y0106606D01*
X0095010Y0106770D01*
X0094890Y0106936D01*
X0094774Y0107106D01*
X0094662Y0107278D01*
X0094554Y0107452D01*
X0094451Y0107630D01*
X0094352Y0107809D01*
X0094257Y0107992D01*
X0094167Y0108176D01*
X0094081Y0108362D01*
X0094000Y0108551D01*
X0093923Y0108741D01*
X0093851Y0108934D01*
X0093784Y0109128D01*
X0093721Y0109323D01*
X0093663Y0109520D01*
X0093610Y0109718D01*
X0093562Y0109918D01*
X0093519Y0110119D01*
X0093481Y0110320D01*
X0093447Y0110523D01*
X0093419Y0110726D01*
X0093395Y0110930D01*
X0093376Y0111135D01*
X0093363Y0111339D01*
X0093354Y0111544D01*
X0093350Y0111750D01*
X0093444Y0111750D01*
X0093448Y0111547D01*
X0093456Y0111344D01*
X0093470Y0111141D01*
X0093488Y0110939D01*
X0093512Y0110738D01*
X0093540Y0110537D01*
X0093573Y0110336D01*
X0093611Y0110137D01*
X0093654Y0109939D01*
X0093702Y0109741D01*
X0093754Y0109545D01*
X0093811Y0109350D01*
X0093873Y0109157D01*
X0093940Y0108965D01*
X0094011Y0108775D01*
X0094086Y0108587D01*
X0094167Y0108401D01*
X0094252Y0108216D01*
X0094341Y0108034D01*
X0094435Y0107854D01*
X0094533Y0107676D01*
X0094635Y0107501D01*
X0094741Y0107328D01*
X0094852Y0107158D01*
X0094967Y0106990D01*
X0095086Y0106826D01*
X0095209Y0106664D01*
X0095335Y0106506D01*
X0095466Y0106350D01*
X0095600Y0106198D01*
X0095738Y0106049D01*
X0095879Y0105903D01*
X0096024Y0105761D01*
X0096173Y0105623D01*
X0096324Y0105488D01*
X0096479Y0105357D01*
X0096637Y0105230D01*
X0096799Y0105106D01*
X0096963Y0104987D01*
X0097130Y0104871D01*
X0097299Y0104760D01*
X0097472Y0104652D01*
X0097647Y0104549D01*
X0097824Y0104451D01*
X0097868Y0104534D01*
X0097693Y0104631D01*
X0097520Y0104733D01*
X0097350Y0104839D01*
X0097182Y0104949D01*
X0097017Y0105063D01*
X0096855Y0105182D01*
X0096695Y0105304D01*
X0096539Y0105430D01*
X0096386Y0105559D01*
X0096236Y0105693D01*
X0096089Y0105829D01*
X0095946Y0105970D01*
X0095806Y0106114D01*
X0095670Y0106261D01*
X0095537Y0106412D01*
X0095408Y0106565D01*
X0095283Y0106722D01*
X0095161Y0106882D01*
X0095044Y0107045D01*
X0094930Y0107210D01*
X0094821Y0107378D01*
X0094715Y0107549D01*
X0094614Y0107722D01*
X0094517Y0107898D01*
X0094425Y0108076D01*
X0094337Y0108256D01*
X0094253Y0108439D01*
X0094173Y0108623D01*
X0094098Y0108809D01*
X0094028Y0108997D01*
X0093962Y0109187D01*
X0093901Y0109378D01*
X0093845Y0109570D01*
X0093793Y0109764D01*
X0093746Y0109959D01*
X0093703Y0110155D01*
X0093666Y0110353D01*
X0093633Y0110551D01*
X0093605Y0110749D01*
X0093582Y0110949D01*
X0093564Y0111148D01*
X0093550Y0111349D01*
X0093542Y0111549D01*
X0093538Y0111750D01*
X0093632Y0111750D01*
X0093636Y0111551D01*
X0093644Y0111353D01*
X0093657Y0111155D01*
X0093676Y0110958D01*
X0093698Y0110761D01*
X0093726Y0110564D01*
X0093758Y0110369D01*
X0093796Y0110174D01*
X0093837Y0109980D01*
X0093884Y0109787D01*
X0093935Y0109595D01*
X0093991Y0109405D01*
X0094051Y0109216D01*
X0094116Y0109029D01*
X0094186Y0108843D01*
X0094260Y0108659D01*
X0094339Y0108477D01*
X0094422Y0108297D01*
X0094509Y0108118D01*
X0094600Y0107942D01*
X0094696Y0107769D01*
X0094796Y0107597D01*
X0094900Y0107429D01*
X0095008Y0107262D01*
X0095121Y0107099D01*
X0095237Y0106938D01*
X0095357Y0106780D01*
X0095481Y0106625D01*
X0095608Y0106473D01*
X0095739Y0106324D01*
X0095874Y0106179D01*
X0096012Y0106036D01*
X0096154Y0105898D01*
X0096299Y0105762D01*
X0096447Y0105630D01*
X0096599Y0105502D01*
X0096753Y0105378D01*
X0096910Y0105257D01*
X0097071Y0105140D01*
X0097234Y0105027D01*
X0097400Y0104919D01*
X0097568Y0104814D01*
X0097739Y0104713D01*
X0097912Y0104617D01*
X0097957Y0104699D01*
X0097785Y0104795D01*
X0097616Y0104894D01*
X0097450Y0104998D01*
X0097286Y0105106D01*
X0097125Y0105217D01*
X0096966Y0105333D01*
X0096811Y0105452D01*
X0096658Y0105575D01*
X0096509Y0105702D01*
X0096362Y0105832D01*
X0096219Y0105966D01*
X0096079Y0106103D01*
X0095942Y0106244D01*
X0095809Y0106387D01*
X0095679Y0106534D01*
X0095553Y0106685D01*
X0095431Y0106838D01*
X0095312Y0106994D01*
X0095197Y0107153D01*
X0095087Y0107315D01*
X0094980Y0107479D01*
X0094877Y0107646D01*
X0094778Y0107815D01*
X0094683Y0107987D01*
X0094593Y0108161D01*
X0094506Y0108337D01*
X0094425Y0108515D01*
X0094347Y0108695D01*
X0094274Y0108877D01*
X0094205Y0109060D01*
X0094141Y0109246D01*
X0094081Y0109432D01*
X0094026Y0109620D01*
X0093975Y0109810D01*
X0093929Y0110000D01*
X0093888Y0110192D01*
X0093851Y0110385D01*
X0093819Y0110578D01*
X0093792Y0110772D01*
X0093769Y0110967D01*
X0093751Y0111162D01*
X0093738Y0111358D01*
X0093730Y0111554D01*
X0093726Y0111750D01*
X0093820Y0111750D01*
X0093824Y0111556D01*
X0093832Y0111362D01*
X0093845Y0111169D01*
X0093863Y0110976D01*
X0093885Y0110784D01*
X0093912Y0110592D01*
X0093944Y0110401D01*
X0093980Y0110210D01*
X0094021Y0110021D01*
X0094066Y0109833D01*
X0094116Y0109646D01*
X0094171Y0109460D01*
X0094230Y0109275D01*
X0094293Y0109092D01*
X0094361Y0108911D01*
X0094434Y0108731D01*
X0094510Y0108553D01*
X0094591Y0108377D01*
X0094677Y0108203D01*
X0094766Y0108031D01*
X0094860Y0107861D01*
X0094957Y0107694D01*
X0095059Y0107529D01*
X0095165Y0107367D01*
X0095274Y0107207D01*
X0095388Y0107050D01*
X0095505Y0106896D01*
X0095626Y0106744D01*
X0095750Y0106596D01*
X0095878Y0106451D01*
X0096010Y0106308D01*
X0096145Y0106169D01*
X0096283Y0106034D01*
X0096425Y0105902D01*
X0096570Y0105773D01*
X0096718Y0105648D01*
X0096869Y0105526D01*
X0097022Y0105408D01*
X0097179Y0105294D01*
X0097338Y0105184D01*
X0097500Y0105078D01*
X0097665Y0104975D01*
X0097832Y0104877D01*
X0098001Y0104782D01*
X0098045Y0104865D01*
X0097878Y0104959D01*
X0097713Y0105056D01*
X0097550Y0105157D01*
X0097390Y0105262D01*
X0097233Y0105371D01*
X0097078Y0105484D01*
X0096926Y0105600D01*
X0096777Y0105720D01*
X0096631Y0105844D01*
X0096488Y0105971D01*
X0096348Y0106102D01*
X0096212Y0106236D01*
X0096078Y0106373D01*
X0095948Y0106514D01*
X0095821Y0106657D01*
X0095698Y0106804D01*
X0095579Y0106954D01*
X0095463Y0107106D01*
X0095351Y0107261D01*
X0095243Y0107419D01*
X0095138Y0107580D01*
X0095038Y0107743D01*
X0094941Y0107908D01*
X0094849Y0108075D01*
X0094761Y0108245D01*
X0094676Y0108417D01*
X0094596Y0108591D01*
X0094521Y0108767D01*
X0094449Y0108945D01*
X0094382Y0109124D01*
X0094319Y0109305D01*
X0094261Y0109487D01*
X0094207Y0109671D01*
X0094157Y0109856D01*
X0094113Y0110042D01*
X0094072Y0110229D01*
X0094036Y0110417D01*
X0094005Y0110606D01*
X0093978Y0110795D01*
X0093956Y0110985D01*
X0093939Y0111176D01*
X0093926Y0111367D01*
X0093918Y0111558D01*
X0093914Y0111750D01*
X0094008Y0111750D01*
X0094012Y0111561D01*
X0094020Y0111372D01*
X0094032Y0111183D01*
X0094050Y0110995D01*
X0094072Y0110807D01*
X0094098Y0110620D01*
X0094129Y0110433D01*
X0094164Y0110247D01*
X0094204Y0110062D01*
X0094249Y0109878D01*
X0094298Y0109696D01*
X0094351Y0109514D01*
X0094408Y0109334D01*
X0094470Y0109156D01*
X0094537Y0108978D01*
X0094607Y0108803D01*
X0094682Y0108629D01*
X0094761Y0108457D01*
X0094845Y0108288D01*
X0094932Y0108120D01*
X0095023Y0107954D01*
X0095119Y0107791D01*
X0095218Y0107630D01*
X0095321Y0107471D01*
X0095428Y0107315D01*
X0095539Y0107162D01*
X0095653Y0107011D01*
X0095771Y0106864D01*
X0095893Y0106719D01*
X0096018Y0106577D01*
X0096146Y0106438D01*
X0096278Y0106303D01*
X0096413Y0106170D01*
X0096551Y0106041D01*
X0096693Y0105915D01*
X0096837Y0105793D01*
X0096984Y0105674D01*
X0097134Y0105559D01*
X0097287Y0105448D01*
X0097443Y0105340D01*
X0097601Y0105236D01*
X0097761Y0105136D01*
X0097924Y0105040D01*
X0098089Y0104948D01*
X0098134Y0105031D01*
X0097970Y0105122D01*
X0097809Y0105217D01*
X0097651Y0105316D01*
X0097495Y0105418D01*
X0097341Y0105525D01*
X0097190Y0105635D01*
X0097042Y0105749D01*
X0096896Y0105866D01*
X0096754Y0105987D01*
X0096614Y0106111D01*
X0096478Y0106238D01*
X0096344Y0106369D01*
X0096214Y0106503D01*
X0096087Y0106640D01*
X0095964Y0106780D01*
X0095844Y0106923D01*
X0095727Y0107069D01*
X0095614Y0107218D01*
X0095505Y0107370D01*
X0095399Y0107524D01*
X0095297Y0107680D01*
X0095199Y0107839D01*
X0095105Y0108001D01*
X0095015Y0108164D01*
X0094928Y0108330D01*
X0094846Y0108498D01*
X0094768Y0108667D01*
X0094694Y0108839D01*
X0094625Y0109012D01*
X0094559Y0109187D01*
X0094498Y0109364D01*
X0094441Y0109542D01*
X0094388Y0109721D01*
X0094340Y0109901D01*
X0094296Y0110083D01*
X0094256Y0110266D01*
X0094221Y0110449D01*
X0094191Y0110633D01*
X0094165Y0110818D01*
X0094143Y0111004D01*
X0094126Y0111190D01*
X0094114Y0111376D01*
X0094106Y0111563D01*
X0094102Y0111750D01*
X0094196Y0111750D01*
X0094200Y0111565D01*
X0094208Y0111381D01*
X0094220Y0111197D01*
X0094237Y0111013D01*
X0094258Y0110830D01*
X0094284Y0110647D01*
X0094314Y0110465D01*
X0094349Y0110284D01*
X0094388Y0110104D01*
X0094431Y0109924D01*
X0094479Y0109746D01*
X0094531Y0109569D01*
X0094587Y0109393D01*
X0094647Y0109219D01*
X0094712Y0109046D01*
X0094781Y0108875D01*
X0094854Y0108706D01*
X0094931Y0108538D01*
X0095012Y0108372D01*
X0095098Y0108209D01*
X0095187Y0108047D01*
X0095280Y0107888D01*
X0095377Y0107731D01*
X0095477Y0107576D01*
X0095582Y0107424D01*
X0095690Y0107274D01*
X0095801Y0107127D01*
X0095916Y0106983D01*
X0096035Y0106842D01*
X0096157Y0106703D01*
X0096282Y0106568D01*
X0096411Y0106436D01*
X0096543Y0106306D01*
X0096677Y0106180D01*
X0096815Y0106058D01*
X0096956Y0105939D01*
X0097100Y0105823D01*
X0097246Y0105710D01*
X0097395Y0105602D01*
X0097547Y0105497D01*
X0097701Y0105395D01*
X0097858Y0105298D01*
X0098017Y0105204D01*
X0098178Y0105114D01*
X0106035Y0104489D02*
X0105589Y0105270D01*
X0105746Y0105363D01*
X0105900Y0105460D01*
X0106052Y0105561D01*
X0106201Y0105666D01*
X0106348Y0105774D01*
X0106493Y0105885D01*
X0106634Y0106000D01*
X0106773Y0106119D01*
X0106908Y0106241D01*
X0107041Y0106366D01*
X0107171Y0106494D01*
X0107297Y0106625D01*
X0107421Y0106759D01*
X0107541Y0106896D01*
X0107658Y0107036D01*
X0107771Y0107179D01*
X0107881Y0107325D01*
X0107987Y0107473D01*
X0108090Y0107624D01*
X0108189Y0107777D01*
X0108284Y0107932D01*
X0108375Y0108090D01*
X0108463Y0108250D01*
X0108547Y0108412D01*
X0108627Y0108575D01*
X0108703Y0108741D01*
X0108774Y0108909D01*
X0108842Y0109078D01*
X0108906Y0109249D01*
X0108965Y0109421D01*
X0109021Y0109595D01*
X0109072Y0109770D01*
X0109119Y0109946D01*
X0109161Y0110123D01*
X0109200Y0110302D01*
X0109234Y0110481D01*
X0109264Y0110661D01*
X0109289Y0110841D01*
X0109310Y0111022D01*
X0109326Y0111204D01*
X0109339Y0111386D01*
X0109346Y0111568D01*
X0109350Y0111750D01*
X0110249Y0111751D01*
X0110250Y0111750D01*
X0110246Y0111546D01*
X0110238Y0111342D01*
X0110224Y0111138D01*
X0110206Y0110934D01*
X0110182Y0110731D01*
X0110154Y0110529D01*
X0110121Y0110327D01*
X0110083Y0110127D01*
X0110040Y0109927D01*
X0109992Y0109728D01*
X0109940Y0109531D01*
X0109882Y0109335D01*
X0109820Y0109140D01*
X0109754Y0108947D01*
X0109682Y0108755D01*
X0109606Y0108566D01*
X0109526Y0108378D01*
X0109441Y0108192D01*
X0109351Y0108008D01*
X0109258Y0107827D01*
X0109159Y0107648D01*
X0109057Y0107471D01*
X0108950Y0107297D01*
X0108839Y0107125D01*
X0108724Y0106956D01*
X0108605Y0106790D01*
X0108482Y0106627D01*
X0108355Y0106467D01*
X0108224Y0106310D01*
X0108089Y0106156D01*
X0107951Y0106006D01*
X0107809Y0105859D01*
X0107664Y0105715D01*
X0107515Y0105575D01*
X0107363Y0105439D01*
X0107207Y0105306D01*
X0107049Y0105178D01*
X0106887Y0105053D01*
X0106722Y0104932D01*
X0106555Y0104815D01*
X0106384Y0104702D01*
X0106211Y0104593D01*
X0106036Y0104488D01*
X0105989Y0104570D01*
X0106163Y0104673D01*
X0106334Y0104781D01*
X0106502Y0104893D01*
X0106668Y0105008D01*
X0106831Y0105128D01*
X0106990Y0105252D01*
X0107147Y0105379D01*
X0107301Y0105510D01*
X0107451Y0105645D01*
X0107599Y0105783D01*
X0107742Y0105925D01*
X0107883Y0106071D01*
X0108019Y0106219D01*
X0108152Y0106371D01*
X0108282Y0106527D01*
X0108407Y0106685D01*
X0108529Y0106846D01*
X0108647Y0107010D01*
X0108761Y0107177D01*
X0108870Y0107347D01*
X0108976Y0107519D01*
X0109077Y0107694D01*
X0109175Y0107871D01*
X0109267Y0108050D01*
X0109356Y0108232D01*
X0109440Y0108416D01*
X0109520Y0108601D01*
X0109595Y0108789D01*
X0109665Y0108978D01*
X0109731Y0109169D01*
X0109792Y0109362D01*
X0109849Y0109556D01*
X0109901Y0109751D01*
X0109948Y0109947D01*
X0109990Y0110145D01*
X0110028Y0110343D01*
X0110061Y0110543D01*
X0110089Y0110743D01*
X0110112Y0110944D01*
X0110130Y0111145D01*
X0110144Y0111346D01*
X0110152Y0111548D01*
X0110156Y0111750D01*
X0110062Y0111750D01*
X0110058Y0111551D01*
X0110050Y0111351D01*
X0110037Y0111152D01*
X0110018Y0110953D01*
X0109996Y0110754D01*
X0109968Y0110557D01*
X0109935Y0110359D01*
X0109898Y0110163D01*
X0109856Y0109968D01*
X0109810Y0109774D01*
X0109758Y0109581D01*
X0109702Y0109389D01*
X0109642Y0109199D01*
X0109577Y0109010D01*
X0109507Y0108823D01*
X0109433Y0108637D01*
X0109354Y0108454D01*
X0109271Y0108272D01*
X0109183Y0108092D01*
X0109092Y0107915D01*
X0108996Y0107740D01*
X0108895Y0107567D01*
X0108791Y0107397D01*
X0108682Y0107229D01*
X0108570Y0107064D01*
X0108454Y0106902D01*
X0108333Y0106743D01*
X0108209Y0106586D01*
X0108081Y0106433D01*
X0107950Y0106282D01*
X0107814Y0106135D01*
X0107676Y0105992D01*
X0107534Y0105851D01*
X0107388Y0105714D01*
X0107239Y0105581D01*
X0107087Y0105451D01*
X0106932Y0105325D01*
X0106774Y0105203D01*
X0106613Y0105085D01*
X0106450Y0104971D01*
X0106283Y0104860D01*
X0106114Y0104754D01*
X0105943Y0104652D01*
X0105896Y0104733D01*
X0106066Y0104834D01*
X0106233Y0104939D01*
X0106397Y0105049D01*
X0106559Y0105162D01*
X0106718Y0105279D01*
X0106874Y0105399D01*
X0107028Y0105524D01*
X0107178Y0105652D01*
X0107325Y0105784D01*
X0107469Y0105919D01*
X0107609Y0106058D01*
X0107746Y0106200D01*
X0107880Y0106345D01*
X0108010Y0106494D01*
X0108136Y0106646D01*
X0108259Y0106800D01*
X0108378Y0106958D01*
X0108493Y0107118D01*
X0108604Y0107281D01*
X0108711Y0107447D01*
X0108815Y0107615D01*
X0108914Y0107786D01*
X0109009Y0107959D01*
X0109099Y0108135D01*
X0109186Y0108312D01*
X0109268Y0108492D01*
X0109346Y0108673D01*
X0109419Y0108856D01*
X0109488Y0109041D01*
X0109552Y0109228D01*
X0109612Y0109416D01*
X0109668Y0109606D01*
X0109718Y0109796D01*
X0109765Y0109988D01*
X0109806Y0110181D01*
X0109843Y0110375D01*
X0109875Y0110570D01*
X0109902Y0110766D01*
X0109925Y0110962D01*
X0109943Y0111159D01*
X0109956Y0111356D01*
X0109964Y0111553D01*
X0109968Y0111750D01*
X0109874Y0111750D01*
X0109870Y0111555D01*
X0109862Y0111360D01*
X0109849Y0111165D01*
X0109831Y0110971D01*
X0109809Y0110777D01*
X0109782Y0110584D01*
X0109750Y0110391D01*
X0109714Y0110200D01*
X0109673Y0110009D01*
X0109627Y0109819D01*
X0109577Y0109631D01*
X0109522Y0109443D01*
X0109463Y0109257D01*
X0109400Y0109073D01*
X0109331Y0108890D01*
X0109259Y0108709D01*
X0109182Y0108530D01*
X0109101Y0108352D01*
X0109015Y0108177D01*
X0108926Y0108003D01*
X0108832Y0107832D01*
X0108734Y0107664D01*
X0108632Y0107497D01*
X0108526Y0107333D01*
X0108416Y0107172D01*
X0108302Y0107014D01*
X0108185Y0106858D01*
X0108063Y0106705D01*
X0107938Y0106555D01*
X0107810Y0106408D01*
X0107678Y0106265D01*
X0107542Y0106124D01*
X0107403Y0105987D01*
X0107261Y0105853D01*
X0107116Y0105723D01*
X0106968Y0105596D01*
X0106816Y0105473D01*
X0106662Y0105354D01*
X0106505Y0105238D01*
X0106345Y0105127D01*
X0106182Y0105019D01*
X0106017Y0104915D01*
X0105849Y0104815D01*
X0105803Y0104896D01*
X0105968Y0104995D01*
X0106132Y0105098D01*
X0106292Y0105205D01*
X0106450Y0105315D01*
X0106606Y0105429D01*
X0106758Y0105547D01*
X0106908Y0105669D01*
X0107054Y0105794D01*
X0107198Y0105923D01*
X0107338Y0106055D01*
X0107476Y0106190D01*
X0107610Y0106329D01*
X0107740Y0106471D01*
X0107867Y0106616D01*
X0107991Y0106764D01*
X0108110Y0106915D01*
X0108227Y0107069D01*
X0108339Y0107226D01*
X0108448Y0107385D01*
X0108552Y0107547D01*
X0108653Y0107712D01*
X0108750Y0107878D01*
X0108843Y0108048D01*
X0108931Y0108219D01*
X0109016Y0108392D01*
X0109096Y0108568D01*
X0109172Y0108745D01*
X0109244Y0108924D01*
X0109311Y0109105D01*
X0109374Y0109287D01*
X0109432Y0109471D01*
X0109486Y0109656D01*
X0109536Y0109842D01*
X0109581Y0110030D01*
X0109622Y0110218D01*
X0109658Y0110407D01*
X0109689Y0110598D01*
X0109716Y0110789D01*
X0109738Y0110980D01*
X0109755Y0111172D01*
X0109768Y0111365D01*
X0109776Y0111557D01*
X0109780Y0111750D01*
X0109686Y0111750D01*
X0109682Y0111560D01*
X0109674Y0111369D01*
X0109662Y0111179D01*
X0109644Y0110989D01*
X0109622Y0110800D01*
X0109596Y0110612D01*
X0109565Y0110424D01*
X0109529Y0110236D01*
X0109489Y0110050D01*
X0109445Y0109865D01*
X0109396Y0109681D01*
X0109342Y0109498D01*
X0109285Y0109316D01*
X0109222Y0109136D01*
X0109156Y0108958D01*
X0109085Y0108781D01*
X0109010Y0108606D01*
X0108931Y0108432D01*
X0108847Y0108261D01*
X0108760Y0108092D01*
X0108668Y0107925D01*
X0108572Y0107760D01*
X0108473Y0107597D01*
X0108369Y0107437D01*
X0108262Y0107280D01*
X0108151Y0107125D01*
X0108036Y0106973D01*
X0107918Y0106824D01*
X0107796Y0106678D01*
X0107670Y0106534D01*
X0107541Y0106394D01*
X0107409Y0106257D01*
X0107273Y0106123D01*
X0107135Y0105992D01*
X0106993Y0105865D01*
X0106848Y0105741D01*
X0106700Y0105621D01*
X0106549Y0105505D01*
X0106396Y0105392D01*
X0106240Y0105283D01*
X0106081Y0105177D01*
X0105920Y0105076D01*
X0105756Y0104978D01*
X0105709Y0105060D01*
X0105871Y0105156D01*
X0106030Y0105256D01*
X0106187Y0105360D01*
X0106342Y0105468D01*
X0106493Y0105580D01*
X0106642Y0105695D01*
X0106788Y0105814D01*
X0106931Y0105936D01*
X0107071Y0106062D01*
X0107208Y0106191D01*
X0107342Y0106323D01*
X0107473Y0106459D01*
X0107600Y0106597D01*
X0107724Y0106739D01*
X0107845Y0106883D01*
X0107962Y0107031D01*
X0108075Y0107181D01*
X0108185Y0107334D01*
X0108291Y0107490D01*
X0108393Y0107648D01*
X0108492Y0107808D01*
X0108586Y0107971D01*
X0108677Y0108136D01*
X0108763Y0108303D01*
X0108846Y0108472D01*
X0108924Y0108643D01*
X0108998Y0108816D01*
X0109068Y0108991D01*
X0109134Y0109168D01*
X0109195Y0109346D01*
X0109252Y0109525D01*
X0109305Y0109706D01*
X0109354Y0109888D01*
X0109398Y0110071D01*
X0109437Y0110255D01*
X0109472Y0110440D01*
X0109503Y0110625D01*
X0109529Y0110812D01*
X0109551Y0110999D01*
X0109568Y0111186D01*
X0109580Y0111374D01*
X0109588Y0111562D01*
X0109592Y0111750D01*
X0109498Y0111750D01*
X0109494Y0111564D01*
X0109486Y0111379D01*
X0109474Y0111193D01*
X0109457Y0111008D01*
X0109436Y0110823D01*
X0109410Y0110639D01*
X0109380Y0110456D01*
X0109345Y0110273D01*
X0109306Y0110091D01*
X0109262Y0109910D01*
X0109215Y0109731D01*
X0109162Y0109552D01*
X0109106Y0109375D01*
X0109045Y0109199D01*
X0108980Y0109025D01*
X0108911Y0108852D01*
X0108838Y0108681D01*
X0108761Y0108512D01*
X0108679Y0108345D01*
X0108594Y0108180D01*
X0108504Y0108017D01*
X0108411Y0107856D01*
X0108314Y0107698D01*
X0108213Y0107542D01*
X0108108Y0107388D01*
X0108000Y0107237D01*
X0107888Y0107088D01*
X0107772Y0106943D01*
X0107653Y0106800D01*
X0107531Y0106660D01*
X0107405Y0106523D01*
X0107276Y0106389D01*
X0107143Y0106259D01*
X0107008Y0106131D01*
X0106870Y0106007D01*
X0106728Y0105886D01*
X0106584Y0105769D01*
X0106437Y0105655D01*
X0106287Y0105545D01*
X0106135Y0105438D01*
X0105980Y0105336D01*
X0105822Y0105237D01*
X0105663Y0105141D01*
X0105616Y0105223D01*
X0105774Y0105317D01*
X0105929Y0105415D01*
X0106082Y0105516D01*
X0106233Y0105622D01*
X0106381Y0105731D01*
X0106526Y0105843D01*
X0106668Y0105959D01*
X0106808Y0106078D01*
X0106945Y0106201D01*
X0107078Y0106327D01*
X0107209Y0106456D01*
X0107337Y0106588D01*
X0107461Y0106723D01*
X0107582Y0106861D01*
X0107699Y0107002D01*
X0107813Y0107146D01*
X0107924Y0107293D01*
X0108031Y0107442D01*
X0108135Y0107594D01*
X0108234Y0107748D01*
X0108330Y0107904D01*
X0108422Y0108063D01*
X0108511Y0108224D01*
X0108595Y0108387D01*
X0108676Y0108552D01*
X0108752Y0108719D01*
X0108824Y0108888D01*
X0108893Y0109059D01*
X0108957Y0109231D01*
X0109017Y0109404D01*
X0109073Y0109579D01*
X0109124Y0109756D01*
X0109171Y0109933D01*
X0109214Y0110112D01*
X0109253Y0110291D01*
X0109287Y0110472D01*
X0109317Y0110653D01*
X0109342Y0110835D01*
X0109364Y0111017D01*
X0109380Y0111200D01*
X0109393Y0111383D01*
X0109400Y0111567D01*
X0109404Y0111750D01*
X0110249Y0111849D02*
X0109349Y0111849D01*
X0109350Y0111850D02*
X0109346Y0112034D01*
X0109338Y0112219D01*
X0109326Y0112403D01*
X0109309Y0112586D01*
X0109287Y0112770D01*
X0109262Y0112952D01*
X0109231Y0113134D01*
X0109196Y0113315D01*
X0109157Y0113496D01*
X0109113Y0113675D01*
X0109065Y0113853D01*
X0109013Y0114030D01*
X0108956Y0114206D01*
X0108896Y0114380D01*
X0108830Y0114552D01*
X0108761Y0114723D01*
X0108688Y0114893D01*
X0108610Y0115060D01*
X0108528Y0115225D01*
X0108443Y0115389D01*
X0108353Y0115550D01*
X0108259Y0115709D01*
X0108162Y0115866D01*
X0108061Y0116020D01*
X0107956Y0116172D01*
X0107847Y0116321D01*
X0107735Y0116467D01*
X0107619Y0116611D01*
X0107500Y0116751D01*
X0107377Y0116889D01*
X0107251Y0117024D01*
X0107122Y0117156D01*
X0106989Y0117284D01*
X0106854Y0117409D01*
X0106715Y0117531D01*
X0107296Y0118218D01*
X0107452Y0118082D01*
X0107604Y0117941D01*
X0107753Y0117797D01*
X0107898Y0117650D01*
X0108039Y0117499D01*
X0108176Y0117345D01*
X0108310Y0117187D01*
X0108440Y0117026D01*
X0108566Y0116862D01*
X0108688Y0116695D01*
X0108806Y0116525D01*
X0108919Y0116352D01*
X0109028Y0116176D01*
X0109133Y0115998D01*
X0109234Y0115817D01*
X0109330Y0115634D01*
X0109422Y0115449D01*
X0109509Y0115261D01*
X0109591Y0115071D01*
X0109669Y0114880D01*
X0109742Y0114686D01*
X0109810Y0114491D01*
X0109874Y0114294D01*
X0109932Y0114096D01*
X0109986Y0113896D01*
X0110035Y0113695D01*
X0110079Y0113493D01*
X0110118Y0113290D01*
X0110152Y0113086D01*
X0110181Y0112881D01*
X0110205Y0112676D01*
X0110223Y0112470D01*
X0110237Y0112263D01*
X0110246Y0112057D01*
X0110250Y0111850D01*
X0110156Y0111850D01*
X0110152Y0112054D01*
X0110143Y0112259D01*
X0110130Y0112463D01*
X0110111Y0112666D01*
X0110087Y0112869D01*
X0110059Y0113072D01*
X0110025Y0113274D01*
X0109987Y0113474D01*
X0109943Y0113674D01*
X0109895Y0113873D01*
X0109842Y0114070D01*
X0109784Y0114267D01*
X0109721Y0114461D01*
X0109653Y0114654D01*
X0109581Y0114846D01*
X0109504Y0115035D01*
X0109423Y0115223D01*
X0109337Y0115408D01*
X0109246Y0115591D01*
X0109151Y0115773D01*
X0109052Y0115951D01*
X0108948Y0116127D01*
X0108840Y0116301D01*
X0108728Y0116472D01*
X0108611Y0116640D01*
X0108491Y0116805D01*
X0108366Y0116968D01*
X0108238Y0117127D01*
X0108106Y0117283D01*
X0107970Y0117435D01*
X0107830Y0117585D01*
X0107687Y0117730D01*
X0107540Y0117873D01*
X0107389Y0118011D01*
X0107236Y0118146D01*
X0107175Y0118075D01*
X0107327Y0117941D01*
X0107476Y0117804D01*
X0107621Y0117663D01*
X0107762Y0117519D01*
X0107901Y0117372D01*
X0108035Y0117221D01*
X0108166Y0117067D01*
X0108293Y0116909D01*
X0108416Y0116749D01*
X0108535Y0116585D01*
X0108650Y0116419D01*
X0108761Y0116250D01*
X0108868Y0116079D01*
X0108970Y0115904D01*
X0109069Y0115728D01*
X0109163Y0115549D01*
X0109252Y0115367D01*
X0109337Y0115184D01*
X0109418Y0114999D01*
X0109494Y0114811D01*
X0109565Y0114622D01*
X0109632Y0114431D01*
X0109694Y0114239D01*
X0109751Y0114045D01*
X0109804Y0113850D01*
X0109851Y0113653D01*
X0109894Y0113456D01*
X0109932Y0113257D01*
X0109966Y0113058D01*
X0109994Y0112858D01*
X0110017Y0112657D01*
X0110036Y0112456D01*
X0110050Y0112254D01*
X0110058Y0112052D01*
X0110062Y0111850D01*
X0109968Y0111850D01*
X0109964Y0112050D01*
X0109956Y0112249D01*
X0109942Y0112449D01*
X0109924Y0112648D01*
X0109901Y0112846D01*
X0109873Y0113044D01*
X0109840Y0113241D01*
X0109802Y0113437D01*
X0109760Y0113633D01*
X0109713Y0113827D01*
X0109661Y0114020D01*
X0109604Y0114211D01*
X0109543Y0114402D01*
X0109477Y0114590D01*
X0109406Y0114777D01*
X0109331Y0114962D01*
X0109251Y0115146D01*
X0109167Y0115327D01*
X0109079Y0115506D01*
X0108986Y0115683D01*
X0108889Y0115858D01*
X0108787Y0116030D01*
X0108682Y0116199D01*
X0108572Y0116367D01*
X0108458Y0116531D01*
X0108341Y0116692D01*
X0108219Y0116851D01*
X0108094Y0117006D01*
X0107964Y0117159D01*
X0107831Y0117308D01*
X0107695Y0117454D01*
X0107555Y0117596D01*
X0107411Y0117735D01*
X0107264Y0117871D01*
X0107114Y0118003D01*
X0107054Y0117931D01*
X0107202Y0117801D01*
X0107347Y0117667D01*
X0107489Y0117529D01*
X0107627Y0117388D01*
X0107762Y0117244D01*
X0107894Y0117097D01*
X0108021Y0116946D01*
X0108145Y0116792D01*
X0108266Y0116636D01*
X0108382Y0116476D01*
X0108494Y0116314D01*
X0108603Y0116149D01*
X0108707Y0115981D01*
X0108807Y0115811D01*
X0108903Y0115638D01*
X0108995Y0115463D01*
X0109083Y0115286D01*
X0109166Y0115107D01*
X0109244Y0114926D01*
X0109319Y0114743D01*
X0109388Y0114558D01*
X0109453Y0114372D01*
X0109514Y0114184D01*
X0109570Y0113994D01*
X0109621Y0113804D01*
X0109668Y0113612D01*
X0109710Y0113419D01*
X0109747Y0113225D01*
X0109780Y0113030D01*
X0109807Y0112834D01*
X0109830Y0112638D01*
X0109848Y0112442D01*
X0109862Y0112245D01*
X0109870Y0112047D01*
X0109874Y0111850D01*
X0109780Y0111850D01*
X0109776Y0112045D01*
X0109768Y0112240D01*
X0109755Y0112435D01*
X0109737Y0112629D01*
X0109714Y0112823D01*
X0109687Y0113016D01*
X0109655Y0113209D01*
X0109618Y0113400D01*
X0109576Y0113591D01*
X0109530Y0113781D01*
X0109480Y0113969D01*
X0109424Y0114156D01*
X0109364Y0114342D01*
X0109300Y0114526D01*
X0109231Y0114709D01*
X0109158Y0114890D01*
X0109080Y0115069D01*
X0108998Y0115246D01*
X0108911Y0115421D01*
X0108821Y0115593D01*
X0108726Y0115764D01*
X0108627Y0115932D01*
X0108524Y0116098D01*
X0108417Y0116261D01*
X0108306Y0116422D01*
X0108191Y0116579D01*
X0108072Y0116734D01*
X0107949Y0116886D01*
X0107823Y0117035D01*
X0107693Y0117181D01*
X0107560Y0117323D01*
X0107423Y0117462D01*
X0107283Y0117598D01*
X0107139Y0117730D01*
X0106993Y0117859D01*
X0106932Y0117787D01*
X0107077Y0117660D01*
X0107219Y0117529D01*
X0107357Y0117395D01*
X0107492Y0117258D01*
X0107624Y0117117D01*
X0107752Y0116973D01*
X0107877Y0116826D01*
X0107998Y0116676D01*
X0108115Y0116523D01*
X0108229Y0116367D01*
X0108339Y0116208D01*
X0108445Y0116047D01*
X0108546Y0115883D01*
X0108644Y0115717D01*
X0108738Y0115549D01*
X0108828Y0115378D01*
X0108913Y0115205D01*
X0108994Y0115030D01*
X0109071Y0114853D01*
X0109143Y0114675D01*
X0109212Y0114494D01*
X0109275Y0114312D01*
X0109334Y0114129D01*
X0109389Y0113944D01*
X0109439Y0113758D01*
X0109485Y0113570D01*
X0109526Y0113382D01*
X0109562Y0113192D01*
X0109594Y0113002D01*
X0109621Y0112811D01*
X0109643Y0112620D01*
X0109661Y0112428D01*
X0109674Y0112235D01*
X0109682Y0112043D01*
X0109686Y0111850D01*
X0109592Y0111850D01*
X0109588Y0112040D01*
X0109580Y0112231D01*
X0109567Y0112421D01*
X0109550Y0112610D01*
X0109528Y0112800D01*
X0109501Y0112988D01*
X0109470Y0113176D01*
X0109434Y0113363D01*
X0109393Y0113549D01*
X0109348Y0113734D01*
X0109299Y0113918D01*
X0109244Y0114101D01*
X0109186Y0114282D01*
X0109123Y0114462D01*
X0109056Y0114640D01*
X0108984Y0114817D01*
X0108908Y0114992D01*
X0108828Y0115164D01*
X0108744Y0115335D01*
X0108655Y0115504D01*
X0108563Y0115670D01*
X0108466Y0115835D01*
X0108366Y0115996D01*
X0108261Y0116156D01*
X0108153Y0116312D01*
X0108040Y0116466D01*
X0107924Y0116617D01*
X0107805Y0116766D01*
X0107682Y0116911D01*
X0107555Y0117053D01*
X0107425Y0117192D01*
X0107291Y0117328D01*
X0107155Y0117461D01*
X0107015Y0117590D01*
X0106871Y0117716D01*
X0106811Y0117644D01*
X0106952Y0117520D01*
X0107090Y0117392D01*
X0107225Y0117261D01*
X0107357Y0117127D01*
X0107486Y0116990D01*
X0107611Y0116849D01*
X0107733Y0116705D01*
X0107851Y0116559D01*
X0107965Y0116410D01*
X0108076Y0116258D01*
X0108183Y0116103D01*
X0108286Y0115946D01*
X0108386Y0115786D01*
X0108481Y0115624D01*
X0108573Y0115459D01*
X0108660Y0115293D01*
X0108743Y0115124D01*
X0108823Y0114953D01*
X0108898Y0114781D01*
X0108968Y0114606D01*
X0109035Y0114430D01*
X0109097Y0114253D01*
X0109155Y0114073D01*
X0109208Y0113893D01*
X0109257Y0113711D01*
X0109301Y0113529D01*
X0109341Y0113345D01*
X0109377Y0113160D01*
X0109408Y0112974D01*
X0109434Y0112788D01*
X0109456Y0112601D01*
X0109473Y0112414D01*
X0109486Y0112226D01*
X0109494Y0112038D01*
X0109498Y0111850D01*
X0109404Y0111850D01*
X0109400Y0112036D01*
X0109392Y0112221D01*
X0109380Y0112407D01*
X0109363Y0112592D01*
X0109341Y0112776D01*
X0109315Y0112960D01*
X0109284Y0113144D01*
X0109249Y0113326D01*
X0109210Y0113508D01*
X0109166Y0113688D01*
X0109117Y0113868D01*
X0109065Y0114046D01*
X0109008Y0114223D01*
X0108946Y0114398D01*
X0108881Y0114572D01*
X0108811Y0114744D01*
X0108737Y0114915D01*
X0108659Y0115083D01*
X0108576Y0115250D01*
X0108490Y0115414D01*
X0108400Y0115577D01*
X0108305Y0115737D01*
X0108207Y0115895D01*
X0108105Y0116050D01*
X0108000Y0116203D01*
X0107890Y0116353D01*
X0107777Y0116501D01*
X0107660Y0116645D01*
X0107540Y0116787D01*
X0107417Y0116926D01*
X0107290Y0117062D01*
X0107160Y0117194D01*
X0107026Y0117323D01*
X0106890Y0117450D01*
X0106750Y0117572D01*
X0096352Y0118259D02*
X0096929Y0117567D01*
X0096928Y0117568D02*
X0096791Y0117449D01*
X0096657Y0117328D01*
X0096526Y0117203D01*
X0096398Y0117075D01*
X0096274Y0116944D01*
X0096152Y0116810D01*
X0096033Y0116673D01*
X0095918Y0116534D01*
X0095807Y0116391D01*
X0095698Y0116246D01*
X0095593Y0116099D01*
X0095492Y0115949D01*
X0095395Y0115797D01*
X0095301Y0115642D01*
X0095210Y0115485D01*
X0095124Y0115326D01*
X0095041Y0115165D01*
X0094963Y0115002D01*
X0094888Y0114837D01*
X0094817Y0114671D01*
X0094750Y0114503D01*
X0094688Y0114333D01*
X0094629Y0114162D01*
X0094574Y0113989D01*
X0094524Y0113816D01*
X0094478Y0113641D01*
X0094436Y0113465D01*
X0094398Y0113288D01*
X0094365Y0113110D01*
X0094335Y0112931D01*
X0094310Y0112752D01*
X0094290Y0112572D01*
X0094273Y0112392D01*
X0094261Y0112212D01*
X0094254Y0112031D01*
X0094250Y0111850D01*
X0093351Y0111849D01*
X0093350Y0111850D01*
X0093354Y0112053D01*
X0093362Y0112255D01*
X0093376Y0112458D01*
X0093394Y0112660D01*
X0093417Y0112861D01*
X0093445Y0113062D01*
X0093478Y0113262D01*
X0093515Y0113462D01*
X0093557Y0113660D01*
X0093604Y0113858D01*
X0093656Y0114054D01*
X0093713Y0114248D01*
X0093774Y0114442D01*
X0093839Y0114634D01*
X0093910Y0114824D01*
X0093985Y0115013D01*
X0094064Y0115199D01*
X0094148Y0115384D01*
X0094236Y0115567D01*
X0094329Y0115747D01*
X0094425Y0115925D01*
X0094527Y0116101D01*
X0094632Y0116274D01*
X0094741Y0116445D01*
X0094855Y0116613D01*
X0094972Y0116779D01*
X0095094Y0116941D01*
X0095219Y0117101D01*
X0095348Y0117257D01*
X0095481Y0117410D01*
X0095618Y0117560D01*
X0095758Y0117707D01*
X0095901Y0117850D01*
X0096048Y0117990D01*
X0096198Y0118127D01*
X0096352Y0118259D01*
X0096412Y0118187D01*
X0096260Y0118056D01*
X0096112Y0117921D01*
X0095967Y0117783D01*
X0095825Y0117641D01*
X0095686Y0117496D01*
X0095551Y0117348D01*
X0095420Y0117196D01*
X0095292Y0117041D01*
X0095168Y0116884D01*
X0095048Y0116723D01*
X0094932Y0116560D01*
X0094820Y0116393D01*
X0094712Y0116225D01*
X0094607Y0116053D01*
X0094507Y0115879D01*
X0094412Y0115703D01*
X0094320Y0115525D01*
X0094233Y0115344D01*
X0094150Y0115161D01*
X0094071Y0114977D01*
X0093997Y0114791D01*
X0093928Y0114602D01*
X0093863Y0114413D01*
X0093803Y0114221D01*
X0093747Y0114029D01*
X0093696Y0113835D01*
X0093649Y0113640D01*
X0093607Y0113444D01*
X0093570Y0113247D01*
X0093538Y0113049D01*
X0093510Y0112850D01*
X0093487Y0112651D01*
X0093469Y0112451D01*
X0093456Y0112251D01*
X0093448Y0112050D01*
X0093444Y0111850D01*
X0093538Y0111850D01*
X0093542Y0112048D01*
X0093550Y0112246D01*
X0093563Y0112444D01*
X0093581Y0112642D01*
X0093604Y0112839D01*
X0093631Y0113035D01*
X0093663Y0113231D01*
X0093699Y0113425D01*
X0093741Y0113619D01*
X0093787Y0113812D01*
X0093837Y0114004D01*
X0093893Y0114194D01*
X0093952Y0114383D01*
X0094017Y0114571D01*
X0094085Y0114757D01*
X0094158Y0114941D01*
X0094236Y0115124D01*
X0094318Y0115304D01*
X0094404Y0115483D01*
X0094495Y0115659D01*
X0094589Y0115833D01*
X0094688Y0116005D01*
X0094791Y0116175D01*
X0094898Y0116342D01*
X0095009Y0116506D01*
X0095124Y0116667D01*
X0095243Y0116826D01*
X0095365Y0116982D01*
X0095491Y0117135D01*
X0095621Y0117285D01*
X0095755Y0117432D01*
X0095892Y0117575D01*
X0096032Y0117715D01*
X0096175Y0117852D01*
X0096322Y0117985D01*
X0096472Y0118115D01*
X0096532Y0118043D01*
X0096384Y0117914D01*
X0096239Y0117783D01*
X0096097Y0117648D01*
X0095959Y0117509D01*
X0095823Y0117367D01*
X0095691Y0117222D01*
X0095563Y0117074D01*
X0095438Y0116923D01*
X0095317Y0116769D01*
X0095200Y0116612D01*
X0095086Y0116452D01*
X0094977Y0116290D01*
X0094871Y0116125D01*
X0094769Y0115957D01*
X0094671Y0115787D01*
X0094578Y0115615D01*
X0094488Y0115441D01*
X0094403Y0115264D01*
X0094322Y0115086D01*
X0094245Y0114906D01*
X0094173Y0114723D01*
X0094105Y0114540D01*
X0094042Y0114354D01*
X0093983Y0114167D01*
X0093928Y0113979D01*
X0093878Y0113790D01*
X0093833Y0113599D01*
X0093792Y0113407D01*
X0093755Y0113215D01*
X0093724Y0113021D01*
X0093697Y0112827D01*
X0093675Y0112632D01*
X0093657Y0112437D01*
X0093644Y0112242D01*
X0093636Y0112046D01*
X0093632Y0111850D01*
X0093726Y0111850D01*
X0093730Y0112044D01*
X0093738Y0112237D01*
X0093751Y0112430D01*
X0093768Y0112623D01*
X0093790Y0112816D01*
X0093817Y0113008D01*
X0093848Y0113199D01*
X0093884Y0113389D01*
X0093924Y0113579D01*
X0093969Y0113767D01*
X0094019Y0113954D01*
X0094073Y0114140D01*
X0094131Y0114325D01*
X0094194Y0114508D01*
X0094261Y0114690D01*
X0094332Y0114870D01*
X0094408Y0115048D01*
X0094488Y0115225D01*
X0094572Y0115399D01*
X0094661Y0115571D01*
X0094753Y0115741D01*
X0094850Y0115909D01*
X0094951Y0116075D01*
X0095055Y0116238D01*
X0095163Y0116398D01*
X0095276Y0116556D01*
X0095392Y0116711D01*
X0095511Y0116864D01*
X0095635Y0117013D01*
X0095761Y0117160D01*
X0095892Y0117303D01*
X0096025Y0117443D01*
X0096162Y0117580D01*
X0096303Y0117713D01*
X0096446Y0117844D01*
X0096593Y0117970D01*
X0096653Y0117898D01*
X0096508Y0117773D01*
X0096366Y0117644D01*
X0096228Y0117512D01*
X0096092Y0117377D01*
X0095960Y0117238D01*
X0095831Y0117097D01*
X0095706Y0116952D01*
X0095584Y0116805D01*
X0095466Y0116654D01*
X0095351Y0116501D01*
X0095241Y0116345D01*
X0095133Y0116186D01*
X0095030Y0116025D01*
X0094931Y0115861D01*
X0094835Y0115695D01*
X0094744Y0115527D01*
X0094657Y0115357D01*
X0094573Y0115185D01*
X0094494Y0115010D01*
X0094419Y0114834D01*
X0094349Y0114656D01*
X0094282Y0114477D01*
X0094220Y0114296D01*
X0094163Y0114113D01*
X0094109Y0113929D01*
X0094060Y0113744D01*
X0094016Y0113558D01*
X0093976Y0113371D01*
X0093941Y0113183D01*
X0093910Y0112994D01*
X0093883Y0112804D01*
X0093862Y0112614D01*
X0093844Y0112424D01*
X0093832Y0112233D01*
X0093824Y0112041D01*
X0093820Y0111850D01*
X0093914Y0111850D01*
X0093918Y0112039D01*
X0093926Y0112228D01*
X0093938Y0112417D01*
X0093955Y0112605D01*
X0093977Y0112793D01*
X0094003Y0112980D01*
X0094033Y0113167D01*
X0094068Y0113353D01*
X0094108Y0113538D01*
X0094152Y0113722D01*
X0094200Y0113904D01*
X0094253Y0114086D01*
X0094310Y0114266D01*
X0094371Y0114445D01*
X0094437Y0114623D01*
X0094506Y0114799D01*
X0094580Y0114973D01*
X0094658Y0115145D01*
X0094741Y0115315D01*
X0094827Y0115483D01*
X0094917Y0115649D01*
X0095012Y0115813D01*
X0095110Y0115975D01*
X0095212Y0116134D01*
X0095318Y0116291D01*
X0095427Y0116445D01*
X0095541Y0116597D01*
X0095657Y0116745D01*
X0095778Y0116891D01*
X0095901Y0117034D01*
X0096029Y0117174D01*
X0096159Y0117311D01*
X0096293Y0117445D01*
X0096430Y0117575D01*
X0096570Y0117702D01*
X0096713Y0117826D01*
X0096773Y0117754D01*
X0096632Y0117631D01*
X0096494Y0117506D01*
X0096358Y0117377D01*
X0096226Y0117245D01*
X0096097Y0117110D01*
X0095972Y0116971D01*
X0095849Y0116830D01*
X0095730Y0116686D01*
X0095615Y0116539D01*
X0095503Y0116390D01*
X0095395Y0116237D01*
X0095290Y0116082D01*
X0095190Y0115925D01*
X0095093Y0115765D01*
X0094999Y0115604D01*
X0094910Y0115439D01*
X0094825Y0115273D01*
X0094744Y0115105D01*
X0094666Y0114935D01*
X0094593Y0114763D01*
X0094524Y0114589D01*
X0094460Y0114414D01*
X0094399Y0114237D01*
X0094343Y0114059D01*
X0094291Y0113880D01*
X0094243Y0113699D01*
X0094200Y0113517D01*
X0094161Y0113335D01*
X0094126Y0113151D01*
X0094096Y0112967D01*
X0094070Y0112782D01*
X0094049Y0112596D01*
X0094032Y0112410D01*
X0094020Y0112223D01*
X0094012Y0112037D01*
X0094008Y0111850D01*
X0094102Y0111850D01*
X0094106Y0112034D01*
X0094113Y0112219D01*
X0094126Y0112403D01*
X0094142Y0112587D01*
X0094163Y0112770D01*
X0094189Y0112953D01*
X0094219Y0113135D01*
X0094253Y0113316D01*
X0094291Y0113497D01*
X0094334Y0113676D01*
X0094381Y0113855D01*
X0094433Y0114032D01*
X0094488Y0114208D01*
X0094548Y0114383D01*
X0094612Y0114556D01*
X0094680Y0114727D01*
X0094752Y0114897D01*
X0094829Y0115065D01*
X0094909Y0115231D01*
X0094993Y0115395D01*
X0095081Y0115558D01*
X0095173Y0115718D01*
X0095269Y0115875D01*
X0095369Y0116031D01*
X0095472Y0116184D01*
X0095579Y0116334D01*
X0095689Y0116482D01*
X0095803Y0116627D01*
X0095921Y0116769D01*
X0096042Y0116909D01*
X0096166Y0117045D01*
X0096293Y0117179D01*
X0096424Y0117309D01*
X0096557Y0117437D01*
X0096694Y0117561D01*
X0096833Y0117681D01*
X0096894Y0117609D01*
X0096756Y0117490D01*
X0096621Y0117367D01*
X0096489Y0117242D01*
X0096360Y0117113D01*
X0096234Y0116981D01*
X0096112Y0116846D01*
X0095992Y0116708D01*
X0095876Y0116568D01*
X0095764Y0116424D01*
X0095655Y0116278D01*
X0095549Y0116130D01*
X0095447Y0115979D01*
X0095349Y0115825D01*
X0095254Y0115670D01*
X0095163Y0115512D01*
X0095076Y0115351D01*
X0094993Y0115189D01*
X0094914Y0115025D01*
X0094839Y0114859D01*
X0094767Y0114691D01*
X0094700Y0114522D01*
X0094637Y0114351D01*
X0094578Y0114179D01*
X0094523Y0114005D01*
X0094472Y0113830D01*
X0094425Y0113654D01*
X0094383Y0113476D01*
X0094345Y0113298D01*
X0094311Y0113119D01*
X0094282Y0112939D01*
X0094257Y0112759D01*
X0094236Y0112578D01*
X0094219Y0112396D01*
X0094207Y0112214D01*
X0094200Y0112032D01*
X0094196Y0111850D01*
D12*
X0096506Y0118550D02*
X0096506Y0121553D01*
X0098007Y0121553D02*
X0096506Y0120051D01*
X0098007Y0121553D02*
X0098757Y0121553D01*
X0100342Y0120802D02*
X0101093Y0121553D01*
X0102594Y0121553D01*
X0103345Y0120802D01*
X0103345Y0120051D01*
X0100342Y0120051D01*
X0100342Y0119301D02*
X0100342Y0120802D01*
X0100342Y0119301D02*
X0101093Y0118550D01*
X0102594Y0118550D01*
X0104946Y0119301D02*
X0104946Y0120802D01*
X0105697Y0121553D01*
X0107949Y0121553D01*
X0107949Y0123054D02*
X0107949Y0118550D01*
X0105697Y0118550D01*
X0104946Y0119301D01*
X0095000Y0104500D02*
X0095000Y0101600D01*
X0095738Y0100054D02*
X0095738Y0095550D01*
X0098741Y0095550D01*
X0100342Y0095550D02*
X0102594Y0095550D01*
X0103345Y0096301D01*
X0103345Y0099303D01*
X0102594Y0100054D01*
X0100342Y0100054D01*
X0100342Y0095550D01*
X0097239Y0097802D02*
X0095738Y0097802D01*
X0094137Y0095550D02*
X0091134Y0095550D01*
X0091134Y0100054D01*
X0093500Y0103000D02*
X0096600Y0103000D01*
X0095738Y0100054D02*
X0098741Y0100054D01*
X0104946Y0098553D02*
X0106447Y0100054D01*
X0106447Y0095550D01*
X0104946Y0095550D02*
X0107949Y0095550D01*
X0052949Y0138550D02*
X0052949Y0140802D01*
X0052198Y0141553D01*
X0049946Y0141553D01*
X0049946Y0138550D01*
X0048345Y0140051D02*
X0048345Y0140802D01*
X0047594Y0141553D01*
X0046093Y0141553D01*
X0045342Y0140802D01*
X0045342Y0139301D01*
X0046093Y0138550D01*
X0047594Y0138550D01*
X0048345Y0140051D02*
X0045342Y0140051D01*
X0043741Y0140051D02*
X0043741Y0140802D01*
X0042990Y0141553D01*
X0041489Y0141553D01*
X0040738Y0140802D01*
X0040738Y0139301D01*
X0041489Y0138550D01*
X0042990Y0138550D01*
X0043741Y0140051D02*
X0040738Y0140051D01*
X0039153Y0141553D02*
X0038403Y0141553D01*
X0036902Y0140051D01*
X0036902Y0138550D02*
X0036902Y0141553D01*
X0035300Y0141553D02*
X0033048Y0141553D01*
X0032298Y0140802D01*
X0032298Y0139301D01*
X0033048Y0138550D01*
X0035300Y0138550D01*
X0035300Y0137799D02*
X0035300Y0141553D01*
X0035300Y0137799D02*
X0034550Y0137049D01*
X0033799Y0137049D01*
X0036134Y0145550D02*
X0039137Y0145550D01*
X0040738Y0145550D02*
X0043741Y0145550D01*
X0045342Y0145550D02*
X0047594Y0145550D01*
X0048345Y0146301D01*
X0048345Y0149303D01*
X0047594Y0150054D01*
X0045342Y0150054D01*
X0045342Y0145550D01*
X0042239Y0147802D02*
X0040738Y0147802D01*
X0040738Y0150054D02*
X0040738Y0145550D01*
X0040738Y0150054D02*
X0043741Y0150054D01*
X0049946Y0149303D02*
X0050697Y0150054D01*
X0052198Y0150054D01*
X0052949Y0149303D01*
X0052949Y0148553D01*
X0049946Y0145550D01*
X0052949Y0145550D01*
X0036134Y0145550D02*
X0036134Y0150054D01*
X0024750Y0140325D02*
X0024750Y0138523D01*
X0022948Y0140325D01*
X0022498Y0140325D01*
X0022048Y0139874D01*
X0022048Y0138974D01*
X0022498Y0138523D01*
X0022498Y0137378D02*
X0022048Y0136928D01*
X0022048Y0135577D01*
X0024750Y0135577D01*
X0024750Y0136928D01*
X0024300Y0137378D01*
X0022498Y0137378D01*
X0022048Y0134432D02*
X0023849Y0134432D01*
X0024750Y0133531D01*
X0023849Y0132630D01*
X0022048Y0132630D01*
X0038500Y0123000D02*
X0041600Y0123000D01*
X0040000Y0121600D02*
X0040000Y0124500D01*
X0034424Y0106552D02*
X0034424Y0103850D01*
X0033523Y0103850D02*
X0035325Y0103850D01*
X0033523Y0105652D02*
X0034424Y0106552D01*
X0032378Y0106102D02*
X0031928Y0106552D01*
X0030577Y0106552D01*
X0030577Y0103850D01*
X0031928Y0103850D01*
X0032378Y0104300D01*
X0032378Y0106102D01*
X0029432Y0106552D02*
X0029432Y0104751D01*
X0028531Y0103850D01*
X0027630Y0104751D01*
X0027630Y0106552D01*
D13*
X0061300Y0141800D02*
X0062300Y0141800D01*
X0066300Y0116800D02*
X0067300Y0116800D01*
X0081800Y0087300D02*
X0081800Y0086300D01*
X0096300Y0141800D02*
X0097300Y0141800D01*
X0021800Y0062300D02*
X0021800Y0061300D01*
D14*
X0017400Y0062026D02*
X0016666Y0061292D01*
X0015932Y0061292D01*
X0015198Y0062026D01*
X0015198Y0063494D01*
X0015932Y0064228D01*
X0016666Y0064228D01*
X0017400Y0063494D01*
X0017400Y0062026D01*
X0015198Y0062026D02*
X0014464Y0061292D01*
X0013730Y0061292D01*
X0012996Y0062026D01*
X0012996Y0063494D01*
X0013730Y0064228D01*
X0014464Y0064228D01*
X0015198Y0063494D01*
X0015198Y0065896D02*
X0013730Y0065896D01*
X0012996Y0066630D01*
X0012996Y0068098D01*
X0013730Y0068832D01*
X0015198Y0068832D01*
X0015932Y0068098D01*
X0017400Y0068098D01*
X0017400Y0068832D01*
X0017400Y0066630D02*
X0015932Y0066630D01*
X0015198Y0065896D01*
X0017400Y0065896D02*
X0017400Y0066630D01*
X0016666Y0059624D02*
X0015932Y0059624D01*
X0015198Y0058890D01*
X0015198Y0056688D01*
X0016666Y0056688D01*
X0017400Y0057422D01*
X0017400Y0058890D01*
X0016666Y0059624D01*
X0013730Y0058156D02*
X0015198Y0056688D01*
X0013730Y0058156D02*
X0012996Y0059624D01*
X0026696Y0061292D02*
X0026696Y0063494D01*
X0027430Y0064228D01*
X0028898Y0064228D01*
X0029632Y0063494D01*
X0029632Y0061292D01*
X0031100Y0061292D02*
X0026696Y0061292D01*
X0029632Y0062760D02*
X0031100Y0064228D01*
X0030366Y0065896D02*
X0031100Y0066630D01*
X0031100Y0068098D01*
X0030366Y0068832D01*
X0029632Y0068832D01*
X0028898Y0068098D01*
X0028898Y0067364D01*
X0028898Y0068098D02*
X0028164Y0068832D01*
X0027430Y0068832D01*
X0026696Y0068098D01*
X0026696Y0066630D01*
X0027430Y0065896D01*
X0023800Y0107800D02*
X0039800Y0107800D01*
X0039860Y0107802D01*
X0039921Y0107807D01*
X0039980Y0107816D01*
X0040039Y0107829D01*
X0040098Y0107845D01*
X0040155Y0107865D01*
X0040210Y0107888D01*
X0040265Y0107915D01*
X0040317Y0107944D01*
X0040368Y0107977D01*
X0040417Y0108013D01*
X0040463Y0108051D01*
X0040507Y0108093D01*
X0040549Y0108137D01*
X0040587Y0108183D01*
X0040623Y0108232D01*
X0040656Y0108283D01*
X0040685Y0108335D01*
X0040712Y0108390D01*
X0040735Y0108445D01*
X0040755Y0108502D01*
X0040771Y0108561D01*
X0040784Y0108620D01*
X0040793Y0108679D01*
X0040798Y0108740D01*
X0040800Y0108800D01*
X0040800Y0114800D01*
X0040798Y0114860D01*
X0040793Y0114921D01*
X0040784Y0114980D01*
X0040771Y0115039D01*
X0040755Y0115098D01*
X0040735Y0115155D01*
X0040712Y0115210D01*
X0040685Y0115265D01*
X0040656Y0115317D01*
X0040623Y0115368D01*
X0040587Y0115417D01*
X0040549Y0115463D01*
X0040507Y0115507D01*
X0040463Y0115549D01*
X0040417Y0115587D01*
X0040368Y0115623D01*
X0040317Y0115656D01*
X0040265Y0115685D01*
X0040210Y0115712D01*
X0040155Y0115735D01*
X0040098Y0115755D01*
X0040039Y0115771D01*
X0039980Y0115784D01*
X0039921Y0115793D01*
X0039860Y0115798D01*
X0039800Y0115800D01*
X0023800Y0115800D01*
X0023740Y0115798D01*
X0023679Y0115793D01*
X0023620Y0115784D01*
X0023561Y0115771D01*
X0023502Y0115755D01*
X0023445Y0115735D01*
X0023390Y0115712D01*
X0023335Y0115685D01*
X0023283Y0115656D01*
X0023232Y0115623D01*
X0023183Y0115587D01*
X0023137Y0115549D01*
X0023093Y0115507D01*
X0023051Y0115463D01*
X0023013Y0115417D01*
X0022977Y0115368D01*
X0022944Y0115317D01*
X0022915Y0115265D01*
X0022888Y0115210D01*
X0022865Y0115155D01*
X0022845Y0115098D01*
X0022829Y0115039D01*
X0022816Y0114980D01*
X0022807Y0114921D01*
X0022802Y0114860D01*
X0022800Y0114800D01*
X0022800Y0108800D01*
X0022802Y0108740D01*
X0022807Y0108679D01*
X0022816Y0108620D01*
X0022829Y0108561D01*
X0022845Y0108502D01*
X0022865Y0108445D01*
X0022888Y0108390D01*
X0022915Y0108335D01*
X0022944Y0108283D01*
X0022977Y0108232D01*
X0023013Y0108183D01*
X0023051Y0108137D01*
X0023093Y0108093D01*
X0023137Y0108051D01*
X0023183Y0108013D01*
X0023232Y0107977D01*
X0023283Y0107944D01*
X0023335Y0107915D01*
X0023390Y0107888D01*
X0023445Y0107865D01*
X0023502Y0107845D01*
X0023561Y0107829D01*
X0023620Y0107816D01*
X0023679Y0107807D01*
X0023740Y0107802D01*
X0023800Y0107800D01*
X0027800Y0109300D02*
X0031800Y0111800D01*
X0031800Y0114300D01*
X0031800Y0111800D02*
X0031800Y0109300D01*
X0031800Y0111800D02*
X0025800Y0111800D01*
X0027800Y0114300D02*
X0031800Y0111800D01*
X0034300Y0111800D01*
X0027800Y0109300D02*
X0027800Y0114300D01*
X0019800Y0127800D02*
X0013800Y0127800D01*
X0013740Y0127802D01*
X0013679Y0127807D01*
X0013620Y0127816D01*
X0013561Y0127829D01*
X0013502Y0127845D01*
X0013445Y0127865D01*
X0013390Y0127888D01*
X0013335Y0127915D01*
X0013283Y0127944D01*
X0013232Y0127977D01*
X0013183Y0128013D01*
X0013137Y0128051D01*
X0013093Y0128093D01*
X0013051Y0128137D01*
X0013013Y0128183D01*
X0012977Y0128232D01*
X0012944Y0128283D01*
X0012915Y0128335D01*
X0012888Y0128390D01*
X0012865Y0128445D01*
X0012845Y0128502D01*
X0012829Y0128561D01*
X0012816Y0128620D01*
X0012807Y0128679D01*
X0012802Y0128740D01*
X0012800Y0128800D01*
X0012800Y0144800D01*
X0012802Y0144860D01*
X0012807Y0144921D01*
X0012816Y0144980D01*
X0012829Y0145039D01*
X0012845Y0145098D01*
X0012865Y0145155D01*
X0012888Y0145210D01*
X0012915Y0145265D01*
X0012944Y0145317D01*
X0012977Y0145368D01*
X0013013Y0145417D01*
X0013051Y0145463D01*
X0013093Y0145507D01*
X0013137Y0145549D01*
X0013183Y0145587D01*
X0013232Y0145623D01*
X0013283Y0145656D01*
X0013335Y0145685D01*
X0013390Y0145712D01*
X0013445Y0145735D01*
X0013502Y0145755D01*
X0013561Y0145771D01*
X0013620Y0145784D01*
X0013679Y0145793D01*
X0013740Y0145798D01*
X0013800Y0145800D01*
X0019800Y0145800D01*
X0019860Y0145798D01*
X0019921Y0145793D01*
X0019980Y0145784D01*
X0020039Y0145771D01*
X0020098Y0145755D01*
X0020155Y0145735D01*
X0020210Y0145712D01*
X0020265Y0145685D01*
X0020317Y0145656D01*
X0020368Y0145623D01*
X0020417Y0145587D01*
X0020463Y0145549D01*
X0020507Y0145507D01*
X0020549Y0145463D01*
X0020587Y0145417D01*
X0020623Y0145368D01*
X0020656Y0145317D01*
X0020685Y0145265D01*
X0020712Y0145210D01*
X0020735Y0145155D01*
X0020755Y0145098D01*
X0020771Y0145039D01*
X0020784Y0144980D01*
X0020793Y0144921D01*
X0020798Y0144860D01*
X0020800Y0144800D01*
X0020800Y0128800D01*
X0020798Y0128740D01*
X0020793Y0128679D01*
X0020784Y0128620D01*
X0020771Y0128561D01*
X0020755Y0128502D01*
X0020735Y0128445D01*
X0020712Y0128390D01*
X0020685Y0128335D01*
X0020656Y0128283D01*
X0020623Y0128232D01*
X0020587Y0128183D01*
X0020549Y0128137D01*
X0020507Y0128093D01*
X0020463Y0128051D01*
X0020417Y0128013D01*
X0020368Y0127977D01*
X0020317Y0127944D01*
X0020265Y0127915D01*
X0020210Y0127888D01*
X0020155Y0127865D01*
X0020098Y0127845D01*
X0020039Y0127829D01*
X0019980Y0127816D01*
X0019921Y0127807D01*
X0019860Y0127802D01*
X0019800Y0127800D01*
X0016800Y0130800D02*
X0016800Y0136800D01*
X0014300Y0136800D01*
X0016800Y0136800D02*
X0014300Y0132800D01*
X0019300Y0132800D01*
X0016800Y0136800D01*
X0019300Y0136800D01*
X0016800Y0136800D02*
X0016800Y0139300D01*
X0042084Y0134870D02*
X0042818Y0135604D01*
X0044286Y0135604D01*
X0045020Y0134870D01*
X0045020Y0134136D01*
X0044286Y0133402D01*
X0045020Y0132668D01*
X0045020Y0131934D01*
X0044286Y0131200D01*
X0042818Y0131200D01*
X0042084Y0131934D01*
X0043552Y0133402D02*
X0044286Y0133402D01*
X0046688Y0134870D02*
X0047422Y0135604D01*
X0048890Y0135604D01*
X0049624Y0134870D01*
X0049624Y0134136D01*
X0048890Y0133402D01*
X0049624Y0132668D01*
X0049624Y0131934D01*
X0048890Y0131200D01*
X0047422Y0131200D01*
X0046688Y0131934D01*
X0048156Y0133402D02*
X0048890Y0133402D01*
X0051292Y0131934D02*
X0051292Y0134870D01*
X0052026Y0135604D01*
X0053494Y0135604D01*
X0054228Y0134870D01*
X0051292Y0131934D01*
X0052026Y0131200D01*
X0053494Y0131200D01*
X0054228Y0131934D01*
X0054228Y0134870D01*
X0055896Y0134870D02*
X0055896Y0133402D01*
X0056630Y0132668D01*
X0056630Y0131200D01*
X0055896Y0131200D01*
X0058098Y0131200D02*
X0058098Y0132668D01*
X0058832Y0133402D01*
X0058832Y0134870D01*
X0058098Y0135604D01*
X0056630Y0135604D01*
X0055896Y0134870D01*
X0058098Y0131200D02*
X0058832Y0131200D01*
X0061292Y0132500D02*
X0061292Y0136904D01*
X0063494Y0136904D01*
X0064228Y0136170D01*
X0064228Y0134702D01*
X0063494Y0133968D01*
X0061292Y0133968D01*
X0062760Y0133968D02*
X0064228Y0132500D01*
X0065896Y0134702D02*
X0068832Y0134702D01*
X0068098Y0136904D02*
X0065896Y0134702D01*
X0068098Y0132500D02*
X0068098Y0136904D01*
X0082996Y0137422D02*
X0082996Y0138890D01*
X0083730Y0139624D01*
X0084464Y0139624D01*
X0085198Y0138890D01*
X0085932Y0139624D01*
X0086666Y0139624D01*
X0087400Y0138890D01*
X0087400Y0137422D01*
X0086666Y0136688D01*
X0086666Y0135020D02*
X0085932Y0135020D01*
X0085198Y0134286D01*
X0085198Y0133552D01*
X0085198Y0134286D02*
X0084464Y0135020D01*
X0083730Y0135020D01*
X0082996Y0134286D01*
X0082996Y0132818D01*
X0083730Y0132084D01*
X0086666Y0132084D02*
X0087400Y0132818D01*
X0087400Y0134286D01*
X0086666Y0135020D01*
X0083730Y0136688D02*
X0082996Y0137422D01*
X0085198Y0138156D02*
X0085198Y0138890D01*
X0083730Y0141292D02*
X0082996Y0142026D01*
X0082996Y0143494D01*
X0083730Y0144228D01*
X0086666Y0141292D01*
X0087400Y0142026D01*
X0087400Y0143494D01*
X0086666Y0144228D01*
X0083730Y0144228D01*
X0083730Y0145896D02*
X0082996Y0146630D01*
X0082996Y0148098D01*
X0083730Y0148832D01*
X0085198Y0148832D01*
X0085932Y0148098D01*
X0087400Y0148098D01*
X0087400Y0148832D01*
X0087400Y0146630D02*
X0085932Y0146630D01*
X0085198Y0145896D01*
X0083730Y0145896D01*
X0087400Y0145896D02*
X0087400Y0146630D01*
X0086666Y0141292D02*
X0083730Y0141292D01*
X0091292Y0136904D02*
X0093494Y0136904D01*
X0094228Y0136170D01*
X0094228Y0134702D01*
X0093494Y0133968D01*
X0091292Y0133968D01*
X0091292Y0132500D02*
X0091292Y0136904D01*
X0092760Y0133968D02*
X0094228Y0132500D01*
X0095896Y0133234D02*
X0096630Y0132500D01*
X0098098Y0132500D01*
X0098832Y0133234D01*
X0098832Y0134702D01*
X0098098Y0135436D01*
X0097364Y0135436D01*
X0095896Y0134702D01*
X0095896Y0136904D01*
X0098832Y0136904D01*
X0079772Y0116104D02*
X0079772Y0111700D01*
X0078304Y0111700D02*
X0081240Y0111700D01*
X0078304Y0114636D02*
X0079772Y0116104D01*
X0076636Y0115370D02*
X0076636Y0113902D01*
X0075902Y0113168D01*
X0073700Y0113168D01*
X0075168Y0113168D02*
X0076636Y0111700D01*
X0073700Y0111700D02*
X0073700Y0116104D01*
X0075902Y0116104D01*
X0076636Y0115370D01*
X0068832Y0114870D02*
X0068832Y0114136D01*
X0068098Y0113402D01*
X0066630Y0113402D01*
X0065896Y0114136D01*
X0065896Y0114870D01*
X0066630Y0115604D01*
X0068098Y0115604D01*
X0068832Y0114870D01*
X0068098Y0113402D02*
X0068832Y0112668D01*
X0068832Y0111934D01*
X0068098Y0111200D01*
X0066630Y0111200D01*
X0065896Y0111934D01*
X0065896Y0112668D01*
X0066630Y0113402D01*
X0064228Y0112668D02*
X0063494Y0113402D01*
X0061292Y0113402D01*
X0061292Y0111934D01*
X0062026Y0111200D01*
X0063494Y0111200D01*
X0064228Y0111934D01*
X0064228Y0112668D01*
X0062760Y0114870D02*
X0061292Y0113402D01*
X0062760Y0114870D02*
X0064228Y0115604D01*
X0073730Y0093832D02*
X0075198Y0093832D01*
X0075932Y0093098D01*
X0077400Y0093098D01*
X0077400Y0093832D01*
X0077400Y0091630D02*
X0075932Y0091630D01*
X0075198Y0090896D01*
X0073730Y0090896D01*
X0072996Y0091630D01*
X0072996Y0093098D01*
X0073730Y0093832D01*
X0077400Y0091630D02*
X0077400Y0090896D01*
X0077400Y0089228D02*
X0075198Y0087026D01*
X0075932Y0086292D02*
X0072996Y0089228D01*
X0072996Y0086292D02*
X0077400Y0086292D01*
X0077400Y0084624D02*
X0077400Y0081688D01*
X0077400Y0083156D02*
X0072996Y0083156D01*
X0074464Y0081688D01*
X0086696Y0081292D02*
X0086696Y0083494D01*
X0087430Y0084228D01*
X0088898Y0084228D01*
X0089632Y0083494D01*
X0089632Y0081292D01*
X0091100Y0081292D02*
X0086696Y0081292D01*
X0089632Y0082760D02*
X0091100Y0084228D01*
X0091100Y0085896D02*
X0088164Y0088832D01*
X0087430Y0088832D01*
X0086696Y0088098D01*
X0086696Y0086630D01*
X0087430Y0085896D01*
X0091100Y0085896D02*
X0091100Y0088832D01*
D15*
X0061850Y0073550D02*
X0061850Y0105050D01*
X0031750Y0105050D01*
X0031750Y0068550D01*
X0061850Y0068550D01*
D16*
X0043178Y0059910D02*
X0043178Y0023493D01*
X0043180Y0023390D01*
X0043186Y0023287D01*
X0043195Y0023184D01*
X0043209Y0023082D01*
X0043226Y0022981D01*
X0043247Y0022880D01*
X0043272Y0022780D01*
X0043300Y0022681D01*
X0043333Y0022583D01*
X0043369Y0022486D01*
X0043408Y0022391D01*
X0043451Y0022297D01*
X0043497Y0022205D01*
X0043547Y0022115D01*
X0043600Y0022027D01*
X0043657Y0021940D01*
X0043717Y0021856D01*
X0043779Y0021775D01*
X0043845Y0021695D01*
X0043914Y0021618D01*
X0043985Y0021544D01*
X0044059Y0021473D01*
X0044136Y0021404D01*
X0044216Y0021338D01*
X0044297Y0021276D01*
X0044381Y0021216D01*
X0044468Y0021159D01*
X0044556Y0021106D01*
X0044646Y0021056D01*
X0044738Y0021010D01*
X0044832Y0020967D01*
X0044927Y0020928D01*
X0045024Y0020892D01*
X0045122Y0020859D01*
X0045221Y0020831D01*
X0045321Y0020806D01*
X0045422Y0020785D01*
X0045523Y0020768D01*
X0045625Y0020754D01*
X0045728Y0020745D01*
X0045831Y0020739D01*
X0045934Y0020737D01*
X0087666Y0020737D01*
X0087769Y0020739D01*
X0087872Y0020745D01*
X0087975Y0020754D01*
X0088077Y0020768D01*
X0088178Y0020785D01*
X0088279Y0020806D01*
X0088379Y0020831D01*
X0088478Y0020859D01*
X0088576Y0020892D01*
X0088673Y0020928D01*
X0088768Y0020967D01*
X0088862Y0021010D01*
X0088954Y0021056D01*
X0089044Y0021106D01*
X0089132Y0021159D01*
X0089219Y0021216D01*
X0089303Y0021276D01*
X0089384Y0021338D01*
X0089464Y0021404D01*
X0089541Y0021473D01*
X0089615Y0021544D01*
X0089686Y0021618D01*
X0089755Y0021695D01*
X0089821Y0021775D01*
X0089883Y0021856D01*
X0089943Y0021940D01*
X0090000Y0022027D01*
X0090053Y0022115D01*
X0090103Y0022205D01*
X0090149Y0022297D01*
X0090192Y0022391D01*
X0090231Y0022486D01*
X0090267Y0022583D01*
X0090300Y0022681D01*
X0090328Y0022780D01*
X0090353Y0022880D01*
X0090374Y0022981D01*
X0090391Y0023082D01*
X0090405Y0023184D01*
X0090414Y0023287D01*
X0090420Y0023390D01*
X0090422Y0023493D01*
X0090422Y0059910D01*
X0090420Y0060013D01*
X0090414Y0060116D01*
X0090405Y0060219D01*
X0090391Y0060321D01*
X0090374Y0060422D01*
X0090353Y0060523D01*
X0090328Y0060623D01*
X0090300Y0060722D01*
X0090267Y0060820D01*
X0090231Y0060917D01*
X0090192Y0061012D01*
X0090149Y0061106D01*
X0090103Y0061198D01*
X0090053Y0061288D01*
X0090000Y0061376D01*
X0089943Y0061463D01*
X0089883Y0061547D01*
X0089821Y0061628D01*
X0089755Y0061708D01*
X0089686Y0061785D01*
X0089615Y0061859D01*
X0089541Y0061930D01*
X0089464Y0061999D01*
X0089384Y0062065D01*
X0089303Y0062127D01*
X0089219Y0062187D01*
X0089132Y0062244D01*
X0089044Y0062297D01*
X0088954Y0062347D01*
X0088862Y0062393D01*
X0088768Y0062436D01*
X0088673Y0062475D01*
X0088576Y0062511D01*
X0088478Y0062544D01*
X0088379Y0062572D01*
X0088279Y0062597D01*
X0088178Y0062618D01*
X0088077Y0062635D01*
X0087975Y0062649D01*
X0087872Y0062658D01*
X0087769Y0062664D01*
X0087666Y0062666D01*
X0046131Y0062666D01*
X0045812Y0062000D02*
X0047346Y0062000D01*
X0046579Y0062000D02*
X0046579Y0066604D01*
X0045812Y0066604D02*
X0047346Y0066604D01*
X0048881Y0066604D02*
X0051950Y0062000D01*
X0051950Y0066604D01*
X0053485Y0066604D02*
X0053485Y0065837D01*
X0055020Y0064302D01*
X0055020Y0062000D01*
X0053887Y0063654D02*
X0056957Y0066723D01*
X0056957Y0067490D01*
X0056189Y0068257D01*
X0054655Y0068257D01*
X0053887Y0067490D01*
X0052353Y0068257D02*
X0049283Y0063654D01*
X0048881Y0062000D02*
X0048881Y0066604D01*
X0049283Y0068257D02*
X0052353Y0063654D01*
X0053887Y0063654D02*
X0056957Y0063654D01*
X0058089Y0063535D02*
X0058856Y0064302D01*
X0060391Y0064302D01*
X0061158Y0063535D01*
X0061158Y0062767D01*
X0060391Y0062000D01*
X0058856Y0062000D01*
X0058089Y0062767D01*
X0058089Y0063535D01*
X0058856Y0064302D02*
X0058089Y0065069D01*
X0058089Y0065837D01*
X0058856Y0066604D01*
X0060391Y0066604D01*
X0061158Y0065837D01*
X0061158Y0065069D01*
X0060391Y0064302D01*
X0062693Y0064302D02*
X0062693Y0066604D01*
X0065762Y0066604D01*
X0064995Y0065069D02*
X0064227Y0065069D01*
X0062693Y0064302D01*
X0062693Y0062767D02*
X0063460Y0062000D01*
X0064995Y0062000D01*
X0065762Y0062767D01*
X0065762Y0064302D01*
X0064995Y0065069D01*
X0056554Y0065837D02*
X0056554Y0066604D01*
X0056554Y0065837D02*
X0055020Y0064302D01*
X0056564Y0058926D02*
X0077036Y0058926D01*
X0084910Y0051052D01*
X0084910Y0047902D01*
X0084320Y0047312D01*
X0084320Y0031957D01*
X0084910Y0031367D01*
X0084910Y0027627D01*
X0081957Y0024674D01*
X0051643Y0024674D01*
X0048690Y0027627D01*
X0048690Y0031367D01*
X0049280Y0031957D01*
X0049280Y0047312D01*
X0048690Y0047902D01*
X0048690Y0051052D01*
X0056564Y0058926D01*
X0056957Y0057154D02*
X0076643Y0057154D01*
X0083139Y0050658D01*
X0083139Y0045146D01*
X0081957Y0043965D01*
X0081957Y0033532D01*
X0083139Y0032351D01*
X0083139Y0027824D01*
X0081761Y0026446D01*
X0051839Y0026446D01*
X0050461Y0027824D01*
X0050461Y0032351D01*
X0051643Y0033532D01*
X0051643Y0043965D01*
X0050461Y0045146D01*
X0050461Y0050658D01*
X0056957Y0057154D01*
X0055776Y0047902D02*
X0055776Y0035698D01*
X0057745Y0037272D02*
X0057745Y0046328D01*
X0043178Y0059910D02*
X0043180Y0060013D01*
X0043186Y0060116D01*
X0043195Y0060219D01*
X0043209Y0060321D01*
X0043226Y0060422D01*
X0043247Y0060523D01*
X0043272Y0060623D01*
X0043300Y0060722D01*
X0043333Y0060820D01*
X0043369Y0060917D01*
X0043408Y0061012D01*
X0043451Y0061106D01*
X0043497Y0061198D01*
X0043547Y0061288D01*
X0043600Y0061376D01*
X0043657Y0061463D01*
X0043717Y0061547D01*
X0043779Y0061628D01*
X0043845Y0061708D01*
X0043914Y0061785D01*
X0043985Y0061859D01*
X0044059Y0061930D01*
X0044136Y0061999D01*
X0044216Y0062065D01*
X0044297Y0062127D01*
X0044381Y0062187D01*
X0044468Y0062244D01*
X0044556Y0062297D01*
X0044646Y0062347D01*
X0044738Y0062393D01*
X0044832Y0062436D01*
X0044927Y0062475D01*
X0045024Y0062511D01*
X0045122Y0062544D01*
X0045221Y0062572D01*
X0045321Y0062597D01*
X0045422Y0062618D01*
X0045523Y0062635D01*
X0045625Y0062649D01*
X0045728Y0062658D01*
X0045831Y0062664D01*
X0045934Y0062666D01*
X0042742Y0062000D02*
X0042742Y0066604D01*
X0041208Y0066604D02*
X0044277Y0066604D01*
X0039673Y0066604D02*
X0036604Y0066604D01*
X0035069Y0065069D02*
X0035069Y0062000D01*
X0035069Y0064302D02*
X0032000Y0064302D01*
X0032000Y0065069D02*
X0033535Y0066604D01*
X0035069Y0065069D01*
X0032000Y0065069D02*
X0032000Y0062000D01*
X0038139Y0062000D02*
X0038139Y0066604D01*
X0038139Y0106233D02*
X0038139Y0112371D01*
X0038906Y0111604D02*
X0039673Y0110837D01*
X0038906Y0111604D02*
X0037371Y0111604D01*
X0036604Y0110837D01*
X0036604Y0110069D01*
X0037371Y0109302D01*
X0038906Y0109302D01*
X0039673Y0108535D01*
X0039673Y0107767D01*
X0038906Y0107000D01*
X0037371Y0107000D01*
X0036604Y0107767D01*
X0035069Y0107767D02*
X0035069Y0111604D01*
X0032000Y0111604D02*
X0032000Y0107767D01*
X0032767Y0107000D01*
X0034302Y0107000D01*
X0035069Y0107767D01*
X0041208Y0107000D02*
X0044277Y0107000D01*
X0042742Y0107000D02*
X0042742Y0111604D01*
X0041208Y0110069D01*
X0077824Y0047902D02*
X0077824Y0035698D01*
X0075855Y0037272D02*
X0075855Y0046328D01*
X0076140Y0019045D02*
X0074605Y0019045D01*
X0073838Y0018278D01*
X0073838Y0017510D01*
X0074605Y0016743D01*
X0076140Y0016743D01*
X0076907Y0015976D01*
X0076907Y0015208D01*
X0076140Y0014441D01*
X0074605Y0014441D01*
X0073838Y0015208D01*
X0072303Y0015208D02*
X0072303Y0019045D01*
X0069234Y0019045D02*
X0069234Y0015208D01*
X0070001Y0014441D01*
X0071536Y0014441D01*
X0072303Y0015208D01*
X0076140Y0019045D02*
X0076907Y0018278D01*
X0078442Y0019045D02*
X0080744Y0019045D01*
X0081511Y0018278D01*
X0081511Y0017510D01*
X0080744Y0016743D01*
X0078442Y0016743D01*
X0078442Y0014441D02*
X0078442Y0019045D01*
X0080744Y0016743D02*
X0081511Y0015976D01*
X0081511Y0015208D01*
X0080744Y0014441D01*
X0078442Y0014441D01*
X0083046Y0013674D02*
X0086115Y0013674D01*
X0087649Y0016743D02*
X0090719Y0016743D01*
X0092253Y0015976D02*
X0094555Y0015976D01*
X0095323Y0016743D01*
X0095323Y0018278D01*
X0094555Y0019045D01*
X0092253Y0019045D01*
X0092253Y0014441D01*
X0089951Y0014441D02*
X0089951Y0019045D01*
X0087649Y0016743D01*
X0096857Y0016743D02*
X0099927Y0016743D01*
X0101461Y0017510D02*
X0101461Y0018278D01*
X0102229Y0019045D01*
X0103763Y0019045D01*
X0104531Y0018278D01*
X0104531Y0017510D01*
X0103763Y0016743D01*
X0102229Y0016743D01*
X0101461Y0017510D01*
X0102229Y0016743D02*
X0101461Y0015976D01*
X0101461Y0015208D01*
X0102229Y0014441D01*
X0103763Y0014441D01*
X0104531Y0015208D01*
X0104531Y0015976D01*
X0103763Y0016743D01*
X0106065Y0016743D02*
X0107600Y0017510D01*
X0108367Y0017510D01*
X0109134Y0016743D01*
X0109134Y0015208D01*
X0108367Y0014441D01*
X0106833Y0014441D01*
X0106065Y0015208D01*
X0106065Y0016743D02*
X0106065Y0019045D01*
X0109134Y0019045D01*
X0110669Y0016743D02*
X0113738Y0016743D01*
X0115273Y0018278D02*
X0116040Y0019045D01*
X0117575Y0019045D01*
X0118342Y0018278D01*
X0118342Y0017510D01*
X0117575Y0016743D01*
X0118342Y0015976D01*
X0118342Y0015208D01*
X0117575Y0014441D01*
X0116040Y0014441D01*
X0115273Y0015208D01*
X0116808Y0016743D02*
X0117575Y0016743D01*
X0119877Y0018278D02*
X0120644Y0019045D01*
X0122179Y0019045D01*
X0122946Y0018278D01*
X0122946Y0017510D01*
X0119877Y0014441D01*
X0122946Y0014441D01*
X0124481Y0015208D02*
X0127550Y0018278D01*
X0127550Y0015208D01*
X0126783Y0014441D01*
X0125248Y0014441D01*
X0124481Y0015208D01*
X0124481Y0018278D01*
X0125248Y0019045D01*
X0126783Y0019045D01*
X0127550Y0018278D01*
X0129085Y0018278D02*
X0129852Y0019045D01*
X0131387Y0019045D01*
X0132154Y0018278D01*
X0129085Y0015208D01*
X0129852Y0014441D01*
X0131387Y0014441D01*
X0132154Y0015208D01*
X0132154Y0018278D01*
X0133689Y0016743D02*
X0136758Y0016743D01*
X0138293Y0016743D02*
X0141362Y0016743D01*
X0142897Y0016743D02*
X0145966Y0016743D01*
X0147501Y0015208D02*
X0147501Y0018278D01*
X0148268Y0019045D01*
X0149802Y0019045D01*
X0150570Y0018278D01*
X0147501Y0015208D01*
X0148268Y0014441D01*
X0149802Y0014441D01*
X0150570Y0015208D01*
X0150570Y0018278D01*
X0152104Y0019045D02*
X0155174Y0014441D01*
X0152104Y0014441D02*
X0155174Y0019045D01*
X0145199Y0019045D02*
X0142897Y0016743D01*
X0145199Y0014441D02*
X0145199Y0019045D01*
X0135991Y0019045D02*
X0135991Y0014441D01*
X0133689Y0016743D02*
X0135991Y0019045D01*
X0129085Y0018278D02*
X0129085Y0015208D01*
X0067699Y0016743D02*
X0064630Y0016743D01*
X0063095Y0019045D02*
X0061561Y0019045D01*
X0062328Y0019045D02*
X0062328Y0014441D01*
X0061561Y0014441D02*
X0063095Y0014441D01*
X0060026Y0014441D02*
X0060026Y0019045D01*
X0056957Y0019045D02*
X0060026Y0014441D01*
X0056957Y0014441D02*
X0056957Y0019045D01*
X0055422Y0019045D02*
X0053887Y0019045D01*
X0054655Y0019045D02*
X0054655Y0014441D01*
X0055422Y0014441D02*
X0053887Y0014441D01*
X0052353Y0014441D02*
X0052353Y0019045D01*
X0050818Y0017510D01*
X0049283Y0019045D01*
X0049283Y0014441D01*
D17*
X0038300Y0111800D03*
D18*
X0042050Y0111800D03*
X0021550Y0111800D03*
D19*
X0016800Y0143300D03*
D20*
X0016800Y0147050D03*
X0016800Y0126550D03*
M02*
